<svg width="144" height="188" viewBox="0 0 144 188" fill="none" xmlns="http://www.w3.org/2000/svg">
<path d="M30.6006 2.65791C30.4813 2.56113 30.4216 2.51274 30.3675 2.47126C28.5724 1.09432 26.0764 1.09434 24.2813 2.47131C24.2272 2.51279 24.1675 2.56118 24.0482 2.65797L4.97739 18.1304C4.80372 18.2713 4.71688 18.3417 4.64986 18.4002C2.36486 20.3928 2.36489 23.9443 4.64992 25.9369C4.71695 25.9954 4.80378 26.0658 4.97745 26.2067L83.5628 89.9618C83.7365 90.1027 83.8233 90.1731 83.8903 90.2316C86.1754 92.2243 86.1754 95.7757 83.8903 97.7684C83.8233 97.8269 83.7365 97.8973 83.5628 98.0382L4.97745 161.793C4.80378 161.934 4.71695 162.005 4.64992 162.063C2.36489 164.056 2.36486 167.607 4.64986 169.6C4.71689 169.658 4.80372 169.729 4.97738 169.87L24.0482 185.342C24.1675 185.439 24.2272 185.487 24.2813 185.529C26.0764 186.906 28.5724 186.906 30.3675 185.529C30.4216 185.487 30.4813 185.439 30.6006 185.342L138.212 98.0382C138.386 97.8973 138.473 97.8269 138.54 97.7684C140.825 95.7757 140.825 92.2243 138.54 90.2316C138.473 90.1731 138.386 90.1027 138.212 89.9618L30.6006 2.65791Z" fill="black"/>
</svg>
