<?xml version="1.0" encoding="UTF-8"?>
<svg xmlns="http://www.w3.org/2000/svg" xmlns:xlink="http://www.w3.org/1999/xlink" width="436.28pt" height="219.34pt" viewBox="0 0 436.28 219.34" version="1.1">
<defs>
<clipPath id="clip1">
  <path d="M 33 204 L 51 204 L 51 219.339844 L 33 219.339844 Z M 33 204 "/>
</clipPath>
<clipPath id="clip2">
  <path d="M 59 204 L 75 204 L 75 219.339844 L 59 219.339844 Z M 59 204 "/>
</clipPath>
<clipPath id="clip3">
  <path d="M 84 204 L 100 204 L 100 219.339844 L 84 219.339844 Z M 84 204 "/>
</clipPath>
<clipPath id="clip4">
  <path d="M 117 204 L 133 204 L 133 219.339844 L 117 219.339844 Z M 117 204 "/>
</clipPath>
<clipPath id="clip5">
  <path d="M 141 204 L 155 204 L 155 219.339844 L 141 219.339844 Z M 141 204 "/>
</clipPath>
<clipPath id="clip6">
  <path d="M 162 204 L 178 204 L 178 219.339844 L 162 219.339844 Z M 162 204 "/>
</clipPath>
<clipPath id="clip7">
  <path d="M 186 204 L 199 204 L 199 219.339844 L 186 219.339844 Z M 186 204 "/>
</clipPath>
<clipPath id="clip8">
  <path d="M 206 204 L 221 204 L 221 219.339844 L 206 219.339844 Z M 206 204 "/>
</clipPath>
<clipPath id="clip9">
  <path d="M 243 204 L 258 204 L 258 219.339844 L 243 219.339844 Z M 243 204 "/>
</clipPath>
<clipPath id="clip10">
  <path d="M 266 204 L 284 204 L 284 219.339844 L 266 219.339844 Z M 266 204 "/>
</clipPath>
<clipPath id="clip11">
  <path d="M 293 204 L 310 204 L 310 219.339844 L 293 219.339844 Z M 293 204 "/>
</clipPath>
<clipPath id="clip12">
  <path d="M 319 204 L 332 204 L 332 219.339844 L 319 219.339844 Z M 319 204 "/>
</clipPath>
<clipPath id="clip13">
  <path d="M 336 204 L 354 204 L 354 219.339844 L 336 219.339844 Z M 336 204 "/>
</clipPath>
<clipPath id="clip14">
  <path d="M 362 204 L 378 204 L 378 219.339844 L 362 219.339844 Z M 362 204 "/>
</clipPath>
<clipPath id="clip15">
  <path d="M 386 204 L 402 204 L 402 219.339844 L 386 219.339844 Z M 386 204 "/>
</clipPath>
<clipPath id="clip16">
  <path d="M 396 126 L 436.28125 126 L 436.28125 177 L 396 177 Z M 396 126 "/>
</clipPath>
</defs>
<g id="surface1">
<path style=" stroke:none;fill-rule:nonzero;fill:rgb(26.699829%,54.499817%,27.49939%);fill-opacity:1;" d="M 214.730469 52.175781 L 248.273438 52.175781 L 248.273438 61.949219 C 248.273438 61.949219 243.613281 88.863281 217.960938 88.863281 C 192.308594 88.863281 185.941406 66.007813 185.941406 55.957031 C 185.941406 45.910156 196.074219 25.46875 215.355469 25.976563 L 244.289063 26.027344 Z M 245.757813 25.507813 L 274.648438 0 L 212.472656 0 C 212.472656 0 161.632813 3.6875 161.632813 61.765625 C 161.632813 61.765625 162.351563 113.015625 219.394531 113.015625 C 219.394531 113.015625 266.394531 112.828125 271.953125 63.976563 L 271.953125 25.445313 L 245.757813 25.507813 "/>
<g clip-path="url(#clip1)" clip-rule="nonzero">
<path style=" stroke:none;fill-rule:nonzero;fill:rgb(13.699341%,12.199402%,12.5%);fill-opacity:1;" d="M 43.84375 204.558594 L 50.316406 219.140625 L 46.40625 219.140625 L 45.195313 216.234375 L 38.695313 216.234375 L 37.597656 219.140625 L 33.746094 219.140625 L 39.601563 204.558594 Z M 44.140625 213.695313 L 41.785156 208.042969 L 39.652344 213.695313 L 44.140625 213.695313 "/>
</g>
<g clip-path="url(#clip2)" clip-rule="nonzero">
<path style=" stroke:none;fill-rule:nonzero;fill:rgb(13.699341%,12.199402%,12.5%);fill-opacity:1;" d="M 74.046875 204.558594 L 74.046875 219.140625 L 71.003906 219.140625 L 62.925781 209.796875 L 62.925781 219.140625 L 59.296875 219.140625 L 59.296875 204.558594 L 62.625 204.558594 L 70.417969 213.472656 L 70.417969 204.558594 L 74.046875 204.558594 "/>
</g>
<g clip-path="url(#clip3)" clip-rule="nonzero">
<path style=" stroke:none;fill-rule:nonzero;fill:rgb(13.699341%,12.199402%,12.5%);fill-opacity:1;" d="M 84.585938 204.558594 L 91.011719 204.558594 C 93.496094 204.558594 95.464844 205.234375 96.90625 206.597656 C 98.347656 207.957031 99.070313 209.714844 99.070313 211.878906 C 99.070313 214.140625 98.339844 215.914063 96.875 217.203125 C 95.410156 218.492188 93.320313 219.140625 90.605469 219.140625 L 84.585938 219.140625 Z M 88.214844 207.230469 L 88.214844 216.464844 L 90.585938 216.464844 C 92.125 216.464844 93.300781 216.042969 94.117188 215.199219 C 94.933594 214.355469 95.339844 213.242188 95.339844 211.855469 C 95.339844 210.417969 94.929688 209.289063 94.101563 208.464844 C 93.277344 207.640625 92.09375 207.230469 90.546875 207.230469 L 88.214844 207.230469 "/>
</g>
<g clip-path="url(#clip4)" clip-rule="nonzero">
<path style=" stroke:none;fill-rule:nonzero;fill:rgb(13.699341%,12.199402%,12.5%);fill-opacity:1;" d="M 132.167969 204.558594 L 132.167969 207.230469 L 126.886719 207.230469 L 126.886719 219.140625 L 123.257813 219.140625 L 123.257813 207.230469 L 117.980469 207.230469 L 117.980469 204.558594 L 132.167969 204.558594 "/>
</g>
<g clip-path="url(#clip5)" clip-rule="nonzero">
<path style=" stroke:none;fill-rule:nonzero;fill:rgb(13.699341%,12.199402%,12.5%);fill-opacity:1;" d="M 141.683594 204.558594 L 148.199219 204.558594 C 149.609375 204.558594 150.761719 204.96875 151.640625 205.78125 C 152.527344 206.605469 152.96875 207.59375 152.96875 208.753906 C 152.96875 210.363281 152.136719 211.554688 150.46875 212.328125 C 151.191406 212.65625 151.882813 213.546875 152.542969 215.007813 C 153.203125 216.46875 153.839844 217.847656 154.457031 219.140625 L 150.488281 219.140625 C 150.246094 218.660156 149.828125 217.746094 149.230469 216.398438 C 148.636719 215.046875 148.125 214.179688 147.703125 213.800781 C 147.28125 213.421875 146.835938 213.234375 146.355469 213.234375 L 145.316406 213.234375 L 145.316406 219.140625 L 141.683594 219.140625 Z M 145.316406 207.230469 L 145.316406 210.5625 L 147.238281 210.5625 C 147.851563 210.5625 148.339844 210.417969 148.699219 210.125 C 149.058594 209.839844 149.238281 209.425781 149.238281 208.882813 C 149.238281 207.78125 148.542969 207.230469 147.15625 207.230469 L 145.316406 207.230469 "/>
</g>
<g clip-path="url(#clip6)" clip-rule="nonzero">
<path style=" stroke:none;fill-rule:nonzero;fill:rgb(13.699341%,12.199402%,12.5%);fill-opacity:1;" d="M 173.578125 204.558594 L 177.207031 204.558594 L 177.207031 212.839844 C 177.207031 214.96875 176.574219 216.585938 175.316406 217.6875 C 174.058594 218.789063 172.257813 219.339844 169.921875 219.339844 C 167.609375 219.339844 165.8125 218.78125 164.539063 217.667969 C 163.261719 216.550781 162.621094 214.949219 162.621094 212.859375 L 162.621094 204.558594 L 166.253906 204.558594 L 166.253906 212.941406 C 166.253906 213.960938 166.582031 214.773438 167.25 215.382813 C 167.917969 215.996094 168.789063 216.304688 169.871094 216.304688 C 170.996094 216.304688 171.890625 215.988281 172.566406 215.363281 C 173.238281 214.738281 173.578125 213.847656 173.578125 212.691406 L 173.578125 204.558594 "/>
</g>
<g clip-path="url(#clip7)" clip-rule="nonzero">
<path style=" stroke:none;fill-rule:nonzero;fill:rgb(13.699341%,12.199402%,12.5%);fill-opacity:1;" d="M 197.523438 205.480469 L 197.523438 208.316406 C 195.578125 207.460938 194.03125 207.035156 192.878906 207.035156 C 192.21875 207.035156 191.695313 207.140625 191.3125 207.359375 C 190.921875 207.578125 190.730469 207.871094 190.730469 208.238281 C 190.730469 208.515625 190.871094 208.78125 191.15625 209.03125 C 191.4375 209.28125 192.121094 209.605469 193.203125 210 C 194.285156 210.398438 195.148438 210.769531 195.796875 211.113281 C 196.445313 211.453125 197.007813 211.933594 197.476563 212.554688 C 197.949219 213.175781 198.183594 213.960938 198.183594 214.90625 C 198.183594 216.253906 197.671875 217.335938 196.640625 218.136719 C 195.609375 218.9375 194.253906 219.339844 192.574219 219.339844 C 190.757813 219.339844 189 218.871094 187.296875 217.941406 L 187.296875 214.820313 C 188.273438 215.464844 189.144531 215.929688 189.898438 216.222656 C 190.652344 216.515625 191.457031 216.667969 192.304688 216.667969 C 193.734375 216.667969 194.457031 216.222656 194.457031 215.328125 C 194.457031 215.023438 194.308594 214.738281 194.015625 214.46875 C 193.714844 214.195313 193.027344 213.867188 191.9375 213.464844 C 190.851563 213.070313 189.984375 212.699219 189.347656 212.363281 C 188.710938 212.027344 188.160156 211.554688 187.691406 210.929688 C 187.230469 210.3125 186.996094 209.519531 186.996094 208.546875 C 186.996094 207.292969 187.503906 206.285156 188.515625 205.511719 C 189.523438 204.742188 190.878906 204.359375 192.578125 204.359375 C 194.140625 204.359375 195.785156 204.730469 197.523438 205.480469 "/>
</g>
<g clip-path="url(#clip8)" clip-rule="nonzero">
<path style=" stroke:none;fill-rule:nonzero;fill:rgb(13.699341%,12.199402%,12.5%);fill-opacity:1;" d="M 220.976563 204.558594 L 220.976563 207.230469 L 215.695313 207.230469 L 215.695313 219.140625 L 212.066406 219.140625 L 212.066406 207.230469 L 206.785156 207.230469 L 206.785156 204.558594 L 220.976563 204.558594 "/>
</g>
<g clip-path="url(#clip9)" clip-rule="nonzero">
<path style=" stroke:none;fill-rule:nonzero;fill:rgb(13.699341%,12.199402%,12.5%);fill-opacity:1;" d="M 257.261719 214.6875 L 257.261719 217.882813 C 255.4375 218.855469 253.527344 219.339844 251.527344 219.339844 C 248.9375 219.339844 246.878906 218.621094 245.34375 217.191406 C 243.8125 215.753906 243.039063 213.992188 243.039063 211.898438 C 243.039063 209.800781 243.851563 208.015625 245.46875 206.550781 C 247.089844 205.09375 249.207031 204.359375 251.8125 204.359375 C 253.890625 204.359375 255.660156 204.785156 257.09375 205.636719 L 257.09375 208.875 C 255.332031 207.894531 253.660156 207.394531 252.082031 207.394531 C 250.53125 207.394531 249.261719 207.8125 248.277344 208.644531 C 247.296875 209.476563 246.800781 210.535156 246.800781 211.828125 C 246.800781 213.125 247.289063 214.195313 248.261719 215.035156 C 249.226563 215.882813 250.46875 216.304688 251.988281 216.304688 C 252.734375 216.304688 253.460938 216.203125 254.152344 216.003906 C 254.847656 215.804688 255.886719 215.363281 257.261719 214.6875 "/>
</g>
<g clip-path="url(#clip10)" clip-rule="nonzero">
<path style=" stroke:none;fill-rule:nonzero;fill:rgb(13.699341%,12.199402%,12.5%);fill-opacity:1;" d="M 275.167969 204.359375 C 277.660156 204.359375 279.671875 205.109375 281.21875 206.609375 C 282.757813 208.113281 283.527344 209.859375 283.527344 211.855469 C 283.527344 213.875 282.742188 215.625 281.183594 217.117188 C 279.625 218.597656 277.617188 219.339844 275.167969 219.339844 C 272.699219 219.339844 270.683594 218.597656 269.125 217.121094 C 267.574219 215.644531 266.796875 213.890625 266.796875 211.855469 C 266.796875 209.859375 267.566406 208.101563 269.113281 206.609375 C 270.65625 205.109375 272.675781 204.359375 275.167969 204.359375 Z M 275.167969 216.304688 C 276.550781 216.304688 277.660156 215.894531 278.5 215.074219 C 279.339844 214.253906 279.765625 213.179688 279.765625 211.847656 C 279.765625 210.507813 279.339844 209.4375 278.5 208.617188 C 277.660156 207.800781 276.550781 207.394531 275.167969 207.394531 C 273.785156 207.394531 272.675781 207.800781 271.828125 208.617188 C 270.980469 209.4375 270.558594 210.507813 270.558594 211.847656 C 270.558594 213.179688 270.980469 214.253906 271.828125 215.074219 C 272.675781 215.894531 273.785156 216.304688 275.167969 216.304688 "/>
</g>
<g clip-path="url(#clip11)" clip-rule="nonzero">
<path style=" stroke:none;fill-rule:nonzero;fill:rgb(13.699341%,12.199402%,12.5%);fill-opacity:1;" d="M 301.273438 209.972656 L 305.96875 204.558594 L 309.140625 204.558594 L 309.140625 219.140625 L 305.507813 219.140625 L 305.507813 210.046875 L 301.535156 214.617188 L 301.019531 214.617188 L 297.0625 210.046875 L 297.0625 219.140625 L 293.433594 219.140625 L 293.433594 204.558594 L 296.59375 204.558594 L 301.273438 209.972656 "/>
</g>
<g clip-path="url(#clip12)" clip-rule="nonzero">
<path style=" stroke:none;fill-rule:nonzero;fill:rgb(13.699341%,12.199402%,12.5%);fill-opacity:1;" d="M 319.757813 204.558594 L 326.253906 204.558594 C 327.726563 204.558594 328.898438 204.984375 329.769531 205.835938 C 330.636719 206.695313 331.074219 207.703125 331.074219 208.871094 C 331.074219 210.078125 330.640625 211.117188 329.785156 211.972656 C 328.921875 212.835938 327.753906 213.269531 326.269531 213.269531 L 323.382813 213.269531 L 323.382813 219.140625 L 319.757813 219.140625 Z M 323.382813 207.230469 L 323.382813 210.59375 L 325.070313 210.59375 C 326.585938 210.59375 327.34375 210.03125 327.34375 208.910156 C 327.34375 208.28125 327.140625 207.84375 326.738281 207.597656 C 326.335938 207.351563 325.644531 207.230469 324.671875 207.230469 L 323.382813 207.230469 "/>
</g>
<g clip-path="url(#clip13)" clip-rule="nonzero">
<path style=" stroke:none;fill-rule:nonzero;fill:rgb(13.699341%,12.199402%,12.5%);fill-opacity:1;" d="M 347.074219 204.558594 L 353.542969 219.140625 L 349.636719 219.140625 L 348.429688 216.234375 L 341.921875 216.234375 L 340.835938 219.140625 L 336.980469 219.140625 L 342.835938 204.558594 Z M 347.367188 213.695313 L 345.015625 208.042969 L 342.886719 213.695313 L 347.367188 213.695313 "/>
</g>
<g clip-path="url(#clip14)" clip-rule="nonzero">
<path style=" stroke:none;fill-rule:nonzero;fill:rgb(13.699341%,12.199402%,12.5%);fill-opacity:1;" d="M 377.277344 204.558594 L 377.277344 219.140625 L 374.234375 219.140625 L 366.15625 209.796875 L 366.15625 219.140625 L 362.527344 219.140625 L 362.527344 204.558594 L 365.855469 204.558594 L 373.648438 213.472656 L 373.648438 204.558594 L 377.277344 204.558594 "/>
</g>
<g clip-path="url(#clip15)" clip-rule="nonzero">
<path style=" stroke:none;fill-rule:nonzero;fill:rgb(13.699341%,12.199402%,12.5%);fill-opacity:1;" d="M 391.9375 219.140625 L 391.9375 212.378906 L 386.203125 204.558594 L 390.597656 204.558594 L 393.753906 209.140625 L 396.925781 204.558594 L 401.308594 204.558594 L 395.566406 212.402344 L 395.566406 219.140625 L 391.9375 219.140625 "/>
</g>
<path style=" stroke:none;fill-rule:nonzero;fill:rgb(13.699341%,12.199402%,12.5%);fill-opacity:1;" d="M 98.488281 168.554688 L 98.488281 159.527344 C 95.132813 160.902344 92.832031 162.140625 91.582031 163.230469 C 90.332031 164.328125 89.703125 165.714844 89.703125 167.40625 C 89.703125 168.488281 90.019531 169.421875 90.648438 170.195313 C 91.28125 170.972656 92.046875 171.363281 92.949219 171.363281 C 94.839844 171.363281 96.6875 170.433594 98.488281 168.554688 Z M 113.8125 166.738281 L 110.976563 176.769531 C 104.464844 179.019531 101.332031 176.386719 99.847656 173.730469 C 96.621094 176.085938 91.828125 177.628906 88.769531 177.628906 C 86.492188 177.628906 84.257813 176.40625 82.664063 174.707031 C 81.070313 173.007813 80.367188 170.75 80.367188 168.5 C 80.367188 165.492188 81.1875 163.0625 82.835938 161.214844 C 84.476563 159.371094 89.464844 156.996094 97.789063 154.082031 C 97.992188 150.207031 96.292969 148.269531 92.683594 148.269531 C 88.765625 148.269531 85.15625 150.179688 81.859375 153.988281 L 81.859375 141.730469 C 85.71875 138.933594 89.964844 137.535156 94.589844 137.535156 C 102.894531 137.535156 107.042969 141.054688 109.628906 148.09375 L 109.628906 165.453125 C 110.359375 167.605469 113.8125 166.738281 113.8125 166.738281 "/>
<path style=" stroke:none;fill-rule:nonzero;fill:rgb(13.699341%,12.199402%,12.5%);fill-opacity:1;" d="M 160.785156 168.554688 L 160.785156 159.527344 C 157.429688 160.902344 155.125 162.140625 153.875 163.230469 C 152.628906 164.328125 152 165.714844 152 167.40625 C 152 168.488281 152.316406 169.421875 152.945313 170.195313 C 153.578125 170.972656 154.347656 171.363281 155.246094 171.363281 C 157.136719 171.363281 158.980469 170.433594 160.785156 168.554688 Z M 176.109375 166.738281 L 173.273438 176.769531 C 166.761719 179.019531 163.628906 176.386719 162.144531 173.730469 C 158.917969 176.085938 154.125 177.628906 151.066406 177.628906 C 148.789063 177.628906 146.558594 176.40625 144.960938 174.707031 C 143.371094 173.007813 142.664063 170.75 142.664063 168.5 C 142.664063 165.492188 143.488281 163.0625 145.132813 161.214844 C 146.777344 159.371094 151.761719 156.996094 160.082031 154.082031 C 160.292969 150.207031 158.59375 148.269531 154.980469 148.269531 C 151.058594 148.269531 147.453125 150.179688 144.15625 153.988281 L 144.15625 141.730469 C 148.015625 138.933594 152.257813 137.535156 156.890625 137.535156 C 165.195313 137.535156 169.34375 141.054688 171.925781 148.09375 L 171.925781 165.453125 C 172.65625 167.605469 176.109375 166.738281 176.109375 166.738281 "/>
<path style=" stroke:none;fill-rule:nonzero;fill:rgb(13.699341%,12.199402%,12.5%);fill-opacity:1;" d="M 343.628906 168.554688 L 343.628906 159.527344 C 340.273438 160.902344 337.972656 162.140625 336.714844 163.230469 C 335.46875 164.328125 334.84375 165.714844 334.84375 167.40625 C 334.84375 168.488281 335.15625 169.421875 335.792969 170.195313 C 336.425781 170.972656 337.1875 171.363281 338.089844 171.363281 C 339.980469 171.363281 341.828125 170.433594 343.628906 168.554688 Z M 358.949219 166.738281 L 356.113281 176.769531 C 349.601563 179.019531 346.472656 176.386719 344.988281 173.730469 C 341.765625 176.085938 336.96875 177.628906 333.90625 177.628906 C 331.632813 177.628906 329.394531 176.40625 327.804688 174.707031 C 326.210938 173.007813 325.507813 170.75 325.507813 168.5 C 325.507813 165.492188 326.332031 163.0625 327.976563 161.214844 C 329.621094 159.371094 334.601563 156.996094 342.929688 154.082031 C 343.136719 150.207031 341.433594 148.269531 337.824219 148.269531 C 333.90625 148.269531 330.296875 150.179688 326.996094 153.988281 L 326.996094 141.730469 C 330.855469 138.933594 335.105469 137.535156 339.734375 137.535156 C 348.035156 137.535156 352.1875 141.054688 354.765625 148.09375 L 354.765625 165.453125 C 355.5 167.605469 358.949219 166.738281 358.949219 166.738281 "/>
<g clip-path="url(#clip16)" clip-rule="nonzero">
<path style=" stroke:none;fill-rule:nonzero;fill:rgb(13.699341%,12.199402%,12.5%);fill-opacity:1;" d="M 420.582031 176.546875 L 436.277344 176.546875 L 421.015625 154.746094 L 434.097656 138.175781 L 418.398438 138.175781 L 409.023438 150.820313 L 409.023438 126.621094 L 396.378906 126.621094 L 396.378906 176.546875 L 408.371094 176.546875 L 408.371094 159.542969 L 420.582031 176.546875 "/>
</g>
<path style=" stroke:none;fill-rule:nonzero;fill:rgb(13.699341%,12.199402%,12.5%);fill-opacity:1;" d="M 200.589844 137.523438 C 200.589844 137.523438 194.5625 136.957031 189.6875 144.578125 L 189.6875 137.738281 L 177.910156 137.738281 L 177.910156 176.769531 L 189.6875 176.769531 L 189.6875 152.402344 C 190.527344 150.933594 191.992188 149.515625 194.515625 149.515625 C 198.550781 149.515625 198.933594 155.347656 198.902344 158.015625 L 198.84375 158.015625 L 198.84375 176.769531 L 210.617188 176.769531 L 210.617188 148.421875 C 210.617188 148.421875 210.398438 137.523438 200.589844 137.523438 "/>
<path style=" stroke:none;fill-rule:nonzero;fill:rgb(13.699341%,12.199402%,12.5%);fill-opacity:1;" d="M 383.734375 137.523438 C 383.734375 137.523438 377.707031 136.957031 372.835938 144.578125 L 372.835938 137.738281 L 361.058594 137.738281 L 361.058594 176.769531 L 372.835938 176.769531 L 372.835938 152.402344 C 373.675781 150.933594 375.140625 149.515625 377.660156 149.515625 C 381.699219 149.515625 382.085938 155.347656 382.046875 158.015625 L 381.988281 158.015625 L 381.988281 176.769531 L 393.761719 176.769531 L 393.761719 148.421875 C 393.761719 148.421875 393.542969 137.523438 383.734375 137.523438 "/>
<path style=" stroke:none;fill-rule:nonzero;fill:rgb(13.699341%,12.199402%,12.5%);fill-opacity:1;" d="M 75.21875 164.558594 L 75.003906 164.65625 L 75.003906 137.515625 L 63.226563 137.515625 L 63.226563 161.875 C 62.386719 163.351563 60.921875 164.765625 58.398438 164.765625 C 54.359375 164.765625 53.976563 158.933594 54.015625 156.265625 L 54.070313 156.265625 L 54.070313 137.515625 L 42.296875 137.515625 L 42.296875 165.855469 C 42.296875 165.855469 42.515625 176.757813 52.328125 176.757813 C 52.328125 176.757813 58.351563 177.320313 63.226563 169.699219 L 63.226563 169.78125 L 63.6875 169.78125 L 63.664063 169.789063 C 63.664063 169.789063 64.753906 180.691406 76.089844 176.769531 L 78.925781 166.738281 C 78.925781 166.738281 75.21875 167.828125 75.21875 164.558594 "/>
<path style=" stroke:none;fill-rule:nonzero;fill:rgb(13.699341%,12.199402%,12.5%);fill-opacity:1;" d="M 136.921875 137.304688 C 130.117188 137.304688 127.035156 144.28125 126.234375 146.46875 L 126.234375 137.738281 L 114.464844 137.738281 L 114.464844 176.769531 L 126.234375 176.769531 L 126.234375 158.722656 C 127.488281 155.183594 130.316406 152.347656 132.777344 152.347656 C 136.050781 152.347656 138.230469 155.613281 138.230469 155.613281 L 143.460938 140.359375 C 140.628906 137.523438 136.921875 137.304688 136.921875 137.304688 "/>
<path style=" stroke:none;fill-rule:nonzero;fill:rgb(13.699341%,12.199402%,12.5%);fill-opacity:1;" d="M 28.996094 159.328125 L 24.199219 159.328125 L 24.199219 148.863281 L 39.242188 148.863281 L 39.242188 174.585938 C 39.242188 174.585938 32.046875 177.640625 23.328125 177.640625 C 14.605469 177.640625 0 170.882813 0 151.695313 C 0 132.507813 15.042969 125.753906 24.855469 125.753906 C 34.664063 125.753906 38.808594 129.671875 38.808594 129.671875 L 38.808594 141.878906 C 38.808594 141.878906 34.664063 137.523438 26.816406 137.523438 C 26.816406 137.523438 13.953125 138.394531 13.953125 151.039063 C 13.953125 163.683594 21.582031 165.433594 21.582031 165.433594 L 28.953125 165.433594 L 28.996094 159.328125 "/>
<path style=" stroke:none;fill-rule:nonzero;fill:rgb(13.699341%,12.199402%,12.5%);fill-opacity:1;" d="M 311.78125 126.835938 C 315.054688 126.835938 321.8125 129.890625 321.8125 138.394531 C 321.8125 146.898438 315.921875 149.074219 315.921875 149.074219 L 315.707031 150.167969 C 315.707031 150.167969 323.992188 151.910156 323.992188 163.25 C 323.992188 174.585938 313.742188 176.546875 313.742188 176.546875 L 285.183594 176.546875 L 285.183594 126.621094 C 285.183594 126.621094 308.515625 126.835938 311.78125 126.835938 Z M 299.355469 155.179688 L 299.355469 169.351563 L 306.550781 169.351563 C 306.550781 169.351563 311.128906 168.269531 311.128906 161.941406 C 311.128906 155.613281 306.328125 155.179688 306.328125 155.179688 Z M 299.355469 147.332031 L 306.113281 147.332031 C 306.113281 147.332031 310.035156 146.464844 310.035156 140.574219 C 310.035156 134.6875 305.898438 134.6875 305.898438 134.6875 L 299.574219 134.6875 L 299.355469 147.332031 "/>
<path style=" stroke:none;fill-rule:nonzero;fill:rgb(13.699341%,12.199402%,12.5%);fill-opacity:1;" d="M 265.125 137.960938 L 258.585938 156.058594 L 252.480469 137.960938 L 230.019531 137.960938 L 230.066406 126.402344 L 227.1875 126.402344 L 212.359375 142.320313 L 212.359375 147.765625 L 217.664063 147.765625 L 217.664063 168.152344 C 217.664063 168.152344 217.589844 177.363281 229.335938 177.363281 C 229.335938 177.363281 236.792969 177.039063 240.363281 172.917969 L 240.363281 161.886719 C 240.363281 161.886719 237.449219 165.085938 234.097656 165.085938 C 232.425781 165.085938 229.730469 165.21875 229.730469 162.601563 L 229.730469 147.765625 L 239.179688 147.765625 L 239.179688 139.703125 L 240.269531 139.703125 L 251.605469 170.882813 L 242.664063 193.117188 L 254.878906 193.117188 L 276.460938 137.960938 L 265.125 137.960938 "/>
</g>
</svg>
