<?xml version="1.0" encoding="UTF-8"?>
<svg xmlns="http://www.w3.org/2000/svg" xmlns:xlink="http://www.w3.org/1999/xlink" width="351.5pt" height="180.8pt" viewBox="0 0 351.5 180.8" version="1.1">
<defs>
<clipPath id="clip1">
  <path d="M 0 44 L 351.5 44 L 351.5 180.800781 L 0 180.800781 Z M 0 44 "/>
</clipPath>
</defs>
<g id="surface1">
<path style=" stroke:none;fill-rule:nonzero;fill:rgb(98.799133%,82.699585%,4.699707%);fill-opacity:1;" d="M 160.089844 27.070313 C 159.601563 27.070313 159.285156 27.039063 158.972656 27.074219 C 152.457031 27.800781 146.234375 29.539063 140.394531 32.550781 C 138.175781 33.691406 136.019531 34.960938 134.496094 37.03125 C 133.296875 38.664063 133.941406 40.210938 135.960938 40.257813 C 137.589844 40.296875 139.269531 40.1875 140.855469 39.824219 C 144.933594 38.898438 148.636719 37.050781 152.109375 34.75 C 155.179688 32.71875 157.96875 30.390625 160.089844 27.070313 M 141.34375 0.00390625 C 142.289063 0.4375 143.242188 0.867188 143.46875 2.046875 C 143.765625 3.628906 143.105469 4.722656 141.546875 5.273438 C 139.375 6.035156 137.410156 7.125 135.960938 8.972656 C 135.023438 10.164063 134.378906 11.476563 134.292969 13.035156 C 134.128906 16.152344 136.449219 17.285156 138.957031 17.046875 C 141.601563 16.792969 143.910156 15.625 146.164063 14.324219 C 149.273438 12.527344 152.582031 11.390625 156.21875 11.515625 C 161.851563 11.710938 166.234375 15.28125 166.605469 21.429688 C 166.648438 22.113281 166.871094 22.34375 167.472656 22.546875 C 172.335938 24.171875 174.578125 27.300781 173.96875 32.183594 C 173.734375 34.046875 172.9375 35.9375 172.003906 37.59375 C 169.523438 42.007813 165.78125 45.269531 161.625 48.046875 C 154.671875 52.695313 147.027344 55.488281 138.714844 56.488281 C 135.058594 56.925781 131.410156 56.929688 127.75 56.632813 C 126.292969 56.515625 125.148438 55.269531 125.222656 53.9375 C 125.308594 52.394531 126.378906 51.367188 127.957031 51.402344 C 129.835938 51.4375 131.714844 51.617188 133.589844 51.585938 C 140.761719 51.460938 147.542969 49.71875 153.933594 46.464844 C 158.625 44.078125 162.894531 41.101563 166.132813 36.894531 C 167.175781 35.535156 168.027344 33.945313 168.589844 32.328125 C 169.445313 29.863281 168.367188 28.234375 165.785156 27.574219 C 165.167969 28.660156 164.617188 29.792969 163.917969 30.828125 C 161.539063 34.359375 158.316406 37.007813 154.789063 39.292969 C 150.464844 42.09375 145.851563 44.265625 140.757813 45.238281 C 138.070313 45.753906 135.359375 45.921875 132.738281 44.792969 C 129.101563 43.222656 127.566406 38.988281 129.339844 35.429688 C 130.441406 33.210938 132.164063 31.570313 134.152344 30.183594 C 138.75 26.972656 143.914063 25.03125 149.277344 23.570313 C 153.128906 22.523438 157.035156 21.785156 161.046875 21.765625 C 161.136719 21.765625 161.226563 21.71875 161.3125 21.691406 C 161.21875 18.746094 159.191406 16.835938 156.066406 16.746094 C 153.277344 16.667969 150.824219 17.703125 148.46875 19.0625 C 145.617188 20.714844 142.636719 21.96875 139.296875 22.261719 C 133.027344 22.8125 128.007813 18.347656 129.199219 11.542969 C 130.226563 5.671875 134.28125 2.382813 139.597656 0.386719 C 139.921875 0.261719 140.242188 0.132813 140.566406 0.00390625 "/>
<g clip-path="url(#clip1)" clip-rule="nonzero">
<path style=" stroke:none;fill-rule:nonzero;fill:rgb(76.899719%,12.89978%,19.599915%);fill-opacity:1;" d="M 276.988281 139.117188 C 276.988281 140.71875 278.097656 141.851563 279.644531 141.824219 C 281.191406 141.796875 282.296875 140.640625 282.277344 139.0625 C 282.261719 137.539063 281.144531 136.417969 279.640625 136.414063 C 278.070313 136.40625 276.992188 137.507813 276.988281 139.117188 M 222.125 129.046875 L 222.125 131.523438 L 232.875 131.523438 C 232.875 131.222656 232.875 130.996094 232.875 130.769531 C 232.875 111.40625 232.871094 92.042969 232.871094 72.679688 C 232.871094 72.195313 232.910156 71.703125 232.859375 71.222656 C 232.652344 69.308594 231.726563 67.890625 229.925781 67.105469 C 228.308594 63.980469 225.464844 63.523438 223.46875 64.097656 C 220.851563 64.851563 219.558594 66.820313 219.558594 70.050781 C 219.558594 88.980469 219.558594 107.910156 219.558594 126.839844 L 219.558594 128.933594 C 220.457031 128.972656 221.289063 129.011719 222.125 129.046875 M 200.367188 163.332031 C 200.96875 164.542969 201.960938 165.089844 203.089844 164.832031 C 204.222656 164.570313 204.835938 163.730469 204.839844 162.390625 C 204.847656 160.445313 204.839844 158.503906 204.839844 156.558594 C 204.839844 156.121094 204.839844 155.6875 204.839844 155.28125 C 205.070313 155.238281 205.144531 155.203125 205.191406 155.21875 C 205.433594 155.3125 205.667969 155.417969 205.90625 155.519531 C 207.574219 156.199219 209.3125 156.355469 211.050781 155.992188 C 215.921875 154.972656 218.910156 150.941406 218.398438 145.996094 C 218.160156 143.679688 217.195313 141.652344 215.28125 140.183594 C 215.230469 140.148438 215.160156 140.125 215.125 140.078125 C 212.578125 136.5625 207.347656 135.148438 202.851563 137.90625 C 202.601563 138.0625 202.117188 138.050781 201.84375 137.914063 C 200.828125 137.410156 199.855469 136.816406 198.769531 136.199219 C 198.769531 144.429688 198.789063 152.472656 198.75 160.515625 C 198.742188 161.84375 199.183594 162.761719 200.367188 163.332031 M 178.925781 124.195313 L 178.917969 124.1875 C 179.089844 124.464844 179.210938 124.796875 179.4375 125.015625 C 183.363281 128.769531 188.09375 130.644531 193.480469 130.753906 C 197.929688 130.84375 202.039063 129.582031 205.726563 127.066406 C 206.234375 126.722656 206.609375 126.679688 207.121094 126.992188 C 208.226563 127.667969 209.355469 128.300781 210.480469 128.941406 C 211.847656 129.71875 213.21875 130.484375 214.765625 131.355469 L 214.765625 130 C 214.765625 110.839844 214.765625 91.675781 214.765625 72.515625 C 214.765625 72.222656 214.796875 71.925781 214.742188 71.644531 C 214.703125 71.445313 214.585938 71.1875 214.425781 71.101563 C 213.683594 70.710938 212.917969 70.367188 212.160156 70.007813 C 212.34375 68.902344 211.773438 68.371094 210.816406 67.921875 C 208.5625 66.859375 206.367188 65.675781 204.148438 64.539063 C 203.332031 64.121094 202.511719 63.710938 201.535156 63.222656 L 201.535156 88.863281 C 201.15625 88.683594 200.898438 88.566406 200.644531 88.441406 C 195.957031 86.117188 191.058594 85.613281 186 86.867188 C 175.21875 89.539063 168.449219 100.410156 170.699219 111.324219 C 171.738281 116.386719 174.320313 120.476563 178.320313 123.707031 C 178.523438 123.867188 178.722656 124.03125 178.925781 124.195313 M 263.242188 163.152344 C 263.617188 164.1875 264.355469 164.703125 265.453125 164.710938 C 265.9375 164.714844 266.425781 164.695313 266.910156 164.726563 C 271.066406 164.988281 274.347656 161.671875 274.308594 157.386719 C 274.246094 151.066406 274.292969 144.742188 274.289063 138.417969 C 274.289063 138.152344 274.238281 137.890625 274.203125 137.539063 C 273.632813 137.824219 273.203125 138.042969 272.777344 138.261719 L 272.777344 135.984375 C 271.308594 136.824219 270.015625 137.59375 268.695313 138.3125 C 268.246094 138.558594 268.070313 138.832031 268.078125 139.363281 C 268.109375 141.882813 268.101563 144.40625 268.085938 146.925781 C 268.074219 148.699219 266.910156 149.609375 265.148438 149.261719 C 265.136719 146.257813 265.128906 143.257813 265.105469 140.253906 C 265.097656 138.996094 264.671875 138.394531 263.554688 138 C 262.867188 136.632813 261.890625 136.0625 260.730469 136.351563 C 259.515625 136.65625 258.941406 137.535156 258.941406 139.09375 C 258.9375 141.652344 258.96875 144.214844 258.933594 146.773438 C 258.898438 149.371094 259.921875 151.402344 262.023438 152.90625 C 262.257813 153.203125 262.453125 153.542969 262.730469 153.789063 C 264.242188 155.148438 266.046875 155.65625 268.046875 155.542969 C 268.191406 157.667969 267.296875 158.699219 265.347656 158.640625 C 265.023438 158.632813 264.699219 158.617188 264.375 158.617188 C 262.890625 158.617188 261.96875 159.214844 261.6875 160.355469 C 261.410156 161.496094 261.945313 162.464844 263.242188 163.152344 M 224.285156 153.570313 L 224.292969 153.570313 C 224.441406 153.8125 224.53125 154.132813 224.746094 154.285156 C 227.039063 155.972656 229.582031 156.546875 232.363281 155.851563 C 233.097656 155.664063 233.804688 155.359375 234.429688 155.140625 C 234.671875 155.460938 234.839844 155.886719 235.027344 155.894531 C 236.46875 155.949219 237.914063 155.925781 239.335938 155.925781 L 239.335938 137.726563 C 238.785156 137.972656 238.355469 138.164063 237.921875 138.355469 C 237.886719 137.667969 237.855469 136.984375 237.816406 136.183594 C 236.753906 136.785156 235.8125 137.28125 234.914063 137.847656 C 234.410156 138.164063 234.058594 138.148438 233.542969 137.816406 C 229.917969 135.484375 224.914063 136.230469 222.042969 139.402344 C 218.542969 143.265625 218.875 149.757813 223.679688 153.097656 C 223.882813 153.253906 224.085938 153.410156 224.285156 153.570313 M 155.375 153.382813 L 155.371094 153.378906 C 155.484375 153.582031 155.554688 153.835938 155.722656 153.980469 C 157.890625 155.871094 160.476563 156.519531 163.234375 156.042969 C 169.226563 155.011719 172.496094 148.734375 169.949219 143.210938 C 169.527344 142.285156 168.660156 141.566406 168 140.753906 L 168.003906 140.757813 L 167.710938 140.351563 C 167.605469 140.226563 167.496094 140.109375 167.398438 139.984375 C 165.050781 136.9375 160.890625 135.667969 157.304688 136.898438 C 153.570313 138.183594 151.109375 141.613281 151.101563 145.527344 C 151.097656 148.625 152.445313 151.046875 154.800781 152.972656 C 154.992188 153.109375 155.183594 153.246094 155.375 153.382813 M 254.632813 139.980469 C 254.53125 139.84375 254.433594 139.707031 254.335938 139.570313 C 251.820313 136.3125 248.390625 135.582031 244.824219 137.503906 C 244.589844 137.628906 244.167969 137.582031 243.90625 137.457031 C 243.164063 137.097656 242.464844 136.660156 241.695313 136.222656 L 241.695313 154.402344 L 243.121094 154.402344 C 243.144531 154.878906 243.171875 155.351563 243.195313 155.851563 L 247.785156 155.851563 L 247.785156 154.730469 C 247.785156 151.550781 247.777344 148.375 247.785156 145.195313 C 247.792969 143.539063 248.515625 142.78125 250.164063 142.652344 C 250.316406 142.640625 250.464844 142.566406 250.617188 142.519531 C 250.667969 142.898438 250.761719 143.273438 250.761719 143.648438 C 250.777344 146.367188 250.789063 149.089844 250.761719 151.808594 C 250.746094 153.105469 251.199219 154.070313 252.425781 154.597656 C 253.0625 155.910156 253.914063 156.371094 255.203125 156.109375 C 256.230469 155.898438 256.953125 154.914063 256.960938 153.632813 C 256.976563 150.628906 257.007813 147.621094 256.953125 144.621094 C 256.925781 143.03125 256.367188 141.585938 255.296875 140.378906 C 255.132813 140.191406 254.851563 140.105469 254.621094 139.972656 Z M 194.480469 139.980469 C 194.382813 139.84375 194.28125 139.707031 194.183594 139.570313 C 191.476563 136.027344 188.183594 135.558594 183.785156 138.085938 C 180.433594 135.984375 178.273438 135.902344 175.105469 137.765625 C 174.226563 137.269531 173.339844 136.769531 172.367188 136.222656 L 172.367188 154.328125 C 172.859375 154.355469 173.304688 154.382813 173.75 154.40625 C 173.777344 154.902344 173.808594 155.402344 173.835938 155.828125 L 178.488281 155.828125 C 178.488281 152.332031 178.488281 148.933594 178.488281 145.535156 C 178.488281 143.3125 179.152344 142.65625 181.367188 142.664063 C 181.402344 143.015625 181.464844 143.363281 181.464844 143.714844 C 181.472656 146.425781 181.492188 149.136719 181.457031 151.847656 C 181.441406 153.148438 181.898438 154.097656 183.144531 154.59375 C 183.582031 155.773438 184.5 156.320313 185.710938 156.125 C 186.847656 155.941406 187.617188 155.046875 187.628906 153.796875 C 187.648438 151.011719 187.632813 148.222656 187.636719 145.4375 C 187.640625 143.332031 188.429688 142.589844 190.542969 142.683594 C 190.585938 143.132813 190.660156 143.578125 190.660156 144.027344 C 190.671875 146.664063 190.691406 149.308594 190.65625 151.945313 C 190.636719 153.222656 191.109375 154.117188 192.308594 154.597656 C 192.832031 155.804688 193.808594 156.351563 194.996094 156.105469 C 196.097656 155.875 196.808594 154.945313 196.8125 153.675781 C 196.820313 150.726563 196.835938 147.777344 196.808594 144.828125 C 196.792969 143.191406 196.273438 141.710938 195.214844 140.445313 C 195.035156 140.230469 194.722656 140.128906 194.472656 139.972656 Z M 69.113281 93.050781 L 69.121094 93.0625 C 69.011719 92.925781 68.90625 92.789063 68.796875 92.652344 C 68.710938 92.554688 68.621094 92.464844 68.539063 92.363281 C 63.863281 86.5 55.863281 84.648438 49.101563 87.871094 C 48.179688 88.308594 47.238281 89.148438 46.347656 89.09375 C 45.390625 89.03125 44.488281 88.140625 43.5625 87.605469 C 43.394531 87.511719 43.234375 87.394531 43.066406 87.300781 C 42.152344 86.785156 41.234375 86.273438 40.265625 85.730469 L 40.265625 127.679688 L 42.835938 127.679688 L 42.835938 130.167969 L 53.394531 130.167969 C 53.394531 129.789063 53.394531 129.46875 53.394531 129.152344 C 53.398438 121.144531 53.394531 113.136719 53.40625 105.128906 C 53.414063 102.125 55.328125 99.917969 58.292969 99.585938 C 59.097656 99.496094 59.941406 99.761719 60.769531 99.863281 L 60.746094 99.851563 C 60.792969 99.90625 60.835938 99.964844 60.878906 100.019531 C 61.03125 100.769531 61.316406 101.519531 61.316406 102.269531 C 61.351563 109 61.347656 115.734375 61.332031 122.464844 C 61.324219 124.902344 62.332031 126.6875 64.515625 127.789063 C 64.574219 127.8125 64.621094 127.851563 64.65625 127.90625 L 64.648438 127.886719 C 64.703125 128.0625 64.722656 128.261719 64.816406 128.417969 C 65.949219 130.296875 68.425781 131.296875 70.554688 130.746094 C 72.839844 130.15625 74.574219 128.023438 74.574219 125.738281 C 74.582031 118.707031 74.570313 111.675781 74.582031 104.644531 C 74.585938 101.042969 73.40625 97.855469 71.234375 95.03125 C 70.710938 94.347656 69.953125 93.84375 69.304688 93.257813 L 69.3125 93.261719 C 69.246094 93.191406 69.179688 93.121094 69.113281 93.050781 M 136.476563 153.191406 C 136.546875 153.257813 136.617188 153.328125 136.6875 153.394531 L 136.675781 153.382813 C 136.714844 153.496094 136.71875 153.648438 136.796875 153.722656 C 140.175781 156.96875 145.839844 156.984375 149.1875 153.792969 C 150.429688 152.609375 149.878906 150.671875 148.230469 150.082031 C 147.34375 148.28125 146.015625 147.910156 144.355469 149.058594 C 142.59375 150.273438 140.832031 150.386719 139.015625 149.21875 C 138.914063 148.144531 138.539063 147.007813 138.765625 146.003906 C 139.476563 142.847656 143.171875 141.609375 145.753906 143.558594 C 146.464844 144.09375 147.199219 144.414063 148.085938 144.175781 C 149.105469 143.902344 149.703125 143.1875 149.8125 142.175781 C 149.941406 140.9375 149.273438 140.105469 148.1875 139.582031 C 147.957031 139.269531 147.769531 138.914063 147.488281 138.660156 C 144.140625 135.621094 138.539063 135.789063 135.269531 138.929688 C 131.429688 142.621094 131.332031 149.199219 136.101563 152.90625 C 136.230469 153.003906 136.359375 153.105469 136.488281 153.203125 Z M 161.582031 94.632813 L 161.292969 94.40625 C 156.058594 88.066406 149.351563 85.316406 141.234375 86.640625 C 133.378906 87.921875 127.859375 92.484375 125.113281 99.914063 C 122.351563 107.394531 123.589844 114.453125 128.644531 120.703125 C 129.773438 122.101563 131.15625 123.296875 132.421875 124.585938 C 132.441406 124.644531 132.441406 124.71875 132.480469 124.761719 C 137.839844 130.425781 147.5 132.417969 154.769531 129.582031 C 163.140625 126.3125 168.777344 118.050781 168.242188 108.785156 C 167.945313 103.628906 166.066406 99.183594 162.53125 95.433594 C 162.339844 95.230469 162.027344 95.144531 161.773438 95 L 161.78125 95.007813 C 161.707031 94.878906 161.636719 94.746094 161.5625 94.613281 Z M 249.765625 115.261719 C 249.695313 115.195313 249.625 115.128906 249.554688 115.0625 L 249.558594 115.066406 C 249.347656 114.359375 249.136719 113.65625 248.894531 112.835938 L 279.300781 112.835938 C 279.390625 112.367188 279.5 111.992188 279.53125 111.609375 C 280.03125 105.445313 278.257813 100.039063 274.085938 95.453125 C 273.835938 95.171875 273.445313 95.019531 273.117188 94.808594 L 273.121094 94.816406 C 272.960938 94.613281 272.796875 94.414063 272.636719 94.210938 C 267.59375 88.148438 261.164063 85.320313 253.316406 86.453125 C 245.265625 87.613281 239.617188 92.1875 236.8125 99.769531 C 234.050781 107.238281 235.386719 114.238281 240.472656 120.421875 C 241.429688 121.585938 242.59375 122.574219 243.664063 123.640625 C 243.757813 123.695313 243.851563 123.746094 243.949219 123.796875 L 243.941406 123.789063 C 244.179688 124.113281 244.375 124.480469 244.660156 124.75 C 252.542969 132.21875 264.957031 132.265625 272.960938 124.902344 C 274.050781 123.902344 274.640625 122.730469 274.828125 121.296875 C 275.09375 119.304688 273.761719 117.046875 271.9375 116.421875 L 271.960938 116.4375 C 271.90625 116.375 271.855469 116.3125 271.800781 116.25 C 271.261719 115.574219 270.808594 114.796875 270.160156 114.246094 C 268.535156 112.859375 265.429688 112.828125 263.335938 114.757813 C 259.464844 118.3125 253.957031 118.515625 249.921875 115.425781 C 249.863281 115.363281 249.808594 115.304688 249.753906 115.242188 Z M 114.664063 94.414063 L 114.679688 94.425781 C 114.609375 94.351563 114.542969 94.273438 114.476563 94.195313 C 109.234375 88.027344 102.589844 85.296875 94.59375 86.644531 C 86.128906 88.066406 80.414063 93.097656 78 101.28125 C 75.59375 109.449219 77.679688 116.695313 83.832031 122.683594 C 84.335938 123.167969 84.820313 123.675781 85.308594 124.175781 C 85.742188 124.605469 86.15625 125.066406 86.613281 125.464844 C 92.851563 130.890625 100.007813 132.324219 107.726563 129.636719 C 121.359375 124.890625 126.066406 107.949219 117.027344 96.726563 C 116.398438 95.945313 115.585938 95.316406 114.855469 94.613281 L 114.867188 94.625 C 114.800781 94.554688 114.730469 94.484375 114.664063 94.414063 M 118.960938 153.019531 C 118.890625 152.949219 118.820313 152.882813 118.75 152.816406 L 118.757813 152.824219 C 118.738281 152.578125 118.773438 152.308594 118.691406 152.085938 C 117.476563 148.859375 120.191406 145.117188 123.847656 145.21875 C 124.382813 145.230469 124.921875 145.21875 125.464844 145.21875 L 125.464844 140.519531 L 124.03125 140.519531 C 123.988281 140.082031 123.949219 139.644531 123.921875 139.308594 C 122.78125 139.097656 121.75 138.902344 120.714844 138.707031 C 120.769531 137.980469 120.671875 137.195313 120.910156 136.539063 C 121.558594 134.769531 123.058594 134.539063 124.703125 134.714844 C 124.800781 134.949219 124.972656 135.179688 124.988281 135.417969 C 125.058594 136.582031 125.679688 137.324219 126.691406 137.796875 C 127.019531 138.789063 127.738281 139.339844 128.757813 139.371094 C 129.660156 139.398438 130.714844 138.753906 130.953125 137.90625 C 131.5625 135.773438 130.070313 132.246094 128.410156 131.578125 C 126.195313 128.152344 121.179688 127.664063 118.105469 129.636719 C 116.394531 130.734375 115.242188 132.253906 114.753906 134.230469 C 114.136719 136.71875 114.734375 138.964844 116.285156 140.984375 C 116.058594 141.207031 115.878906 141.390625 115.683594 141.558594 C 112.878906 144.050781 111.867188 147.175781 112.484375 150.835938 C 112.9375 153.535156 114.46875 155.566406 116.617188 157.179688 L 116.835938 157.480469 L 116.824219 157.460938 C 117.238281 157.847656 117.621094 158.273438 118.070313 158.617188 C 120.898438 160.757813 125.761719 160.882813 128.546875 158.90625 C 129.214844 159.542969 129.882813 160.179688 130.550781 160.816406 C 130.777344 160.9375 131.003906 161.054688 131.234375 161.175781 L 131.226563 161.171875 C 131.414063 161.429688 131.546875 161.761719 131.792969 161.941406 C 137.011719 165.785156 142.714844 166.652344 148.859375 164.625 C 151.035156 163.90625 152.980469 162.742188 154.664063 161.195313 C 156.074219 159.902344 155.609375 157.816406 153.851563 157.265625 C 152.964844 155.445313 151.503906 155.109375 149.929688 156.359375 C 144.394531 160.761719 137.089844 160.570313 132.179688 155.894531 C 131.507813 154.585938 130.878906 153.25 130.128906 151.988281 C 129.898438 151.597656 129.335938 151.402344 128.925781 151.117188 C 128.847656 150.976563 128.773438 150.835938 128.691406 150.695313 C 128.054688 149.667969 126.992188 149.246094 125.96875 149.609375 C 124.863281 150 124.242188 151.011719 124.421875 152.203125 C 124.480469 152.570313 124.644531 152.925781 124.757813 153.273438 C 123.234375 154.613281 120.496094 154.382813 119.105469 153.164063 L 118.945313 153 Z M 286.558594 106.859375 C 286.632813 106.925781 286.703125 106.992188 286.773438 107.058594 L 286.765625 107.046875 C 286.902344 107.285156 286.980469 107.601563 287.179688 107.746094 C 288.660156 108.832031 290.039063 110.1875 291.695313 110.867188 C 294.027344 111.824219 296.570313 112.277344 299.023438 112.941406 C 299.632813 114.683594 299.058594 116.574219 297.527344 117.90625 C 295.109375 120.003906 291.207031 120.109375 288.527344 118.078125 C 287.496094 117.296875 286.558594 116.390625 285.628906 115.488281 C 285.167969 115.039063 284.816406 115.039063 284.300781 115.382813 C 282.597656 116.507813 280.898438 117.640625 279.136719 118.660156 C 278.339844 119.125 278.328125 119.570313 278.671875 120.289063 C 279.667969 122.359375 281.230469 123.921875 283.050781 125.265625 C 283.488281 125.800781 283.855469 126.425781 284.375 126.867188 C 288.265625 130.167969 292.769531 131.449219 297.824219 130.84375 C 302.328125 130.304688 306.109375 128.410156 308.972656 124.847656 C 312.457031 120.515625 312.875 113.703125 309.011719 109.351563 C 308.617188 108.90625 308.054688 108.613281 307.570313 108.25 L 307.570313 108.246094 C 307.5 108.113281 307.429688 107.984375 307.359375 107.851563 L 307.386719 107.871094 C 307.300781 107.796875 307.21875 107.71875 307.132813 107.644531 C 304.570313 104.269531 301.019531 102.511719 297.046875 101.40625 C 295.871094 101.082031 294.734375 100.632813 293.578125 100.238281 C 293.585938 98.769531 294.167969 97.835938 295.503906 97.464844 C 296.171875 97.28125 296.910156 97.355469 297.617188 97.316406 C 298.007813 97.535156 298.398438 97.757813 298.789063 97.976563 C 299.886719 100.175781 301.664063 101.210938 304.113281 101.035156 C 307.214844 100.808594 309.546875 97.8125 308.128906 95.078125 C 307.519531 93.902344 306.546875 92.914063 305.71875 91.855469 C 305.632813 91.746094 305.398438 91.753906 305.234375 91.703125 C 305.109375 91.53125 304.988281 91.355469 304.867188 91.183594 C 300.925781 85.851563 293.984375 84.628906 288.488281 86.835938 C 282.929688 89.066406 279.992188 94.589844 281.519531 100.042969 C 282.300781 102.84375 284.089844 104.925781 286.328125 106.683594 L 286.574219 106.871094 Z M 113.414063 48.289063 C 112.78125 48.988281 112.386719 49.453125 111.964844 49.886719 C 107.261719 54.691406 106.714844 58.695313 109.414063 64.308594 C 114.09375 74.046875 121.863281 79.824219 132.296875 82.140625 C 139.644531 83.769531 146.988281 83.261719 154.289063 81.757813 C 162.765625 80.011719 170.90625 77.300781 178.441406 72.972656 C 184.894531 69.261719 190.386719 64.519531 194.117188 57.960938 C 196.257813 54.199219 197.585938 50.167969 198.011719 45.851563 C 198.050781 45.46875 198.121094 45.082031 198.191406 44.574219 C 199.894531 44.660156 201.597656 44.710938 203.296875 44.832031 C 207.402344 45.121094 211.515625 45.386719 215.609375 45.773438 C 220.511719 46.238281 225.414063 46.734375 230.292969 47.378906 C 235.746094 48.097656 241.1875 48.933594 246.617188 49.824219 C 257.316406 51.578125 267.890625 53.9375 278.332031 56.859375 C 289.808594 60.074219 301.03125 63.984375 311.808594 69.109375 C 320.410156 73.199219 328.601563 77.953125 335.871094 84.171875 C 340.785156 88.375 345.109375 93.09375 348.0625 98.910156 C 353.214844 109.0625 352.480469 118.964844 346.542969 128.550781 C 342.585938 134.9375 337.167969 139.9375 331.171875 144.34375 C 322.636719 150.617188 313.257813 155.347656 303.496094 159.363281 C 290.996094 164.503906 278.101563 168.425781 264.90625 171.292969 C 256.976563 173.015625 249.003906 174.574219 240.996094 175.890625 C 234.195313 177.007813 227.328125 177.746094 220.476563 178.515625 C 210.453125 179.640625 200.390625 180.265625 190.3125 180.523438 C 184.21875 180.679688 178.121094 180.882813 172.03125 180.765625 C 163.382813 180.597656 154.726563 180.335938 146.09375 179.78125 C 138.210938 179.273438 130.339844 178.429688 122.488281 177.539063 C 108.9375 176.003906 95.535156 173.566406 82.289063 170.324219 C 68.476563 166.941406 54.957031 162.664063 41.992188 156.753906 C 33.152344 152.726563 24.707031 148.023438 17.136719 141.878906 C 11.863281 137.597656 7.183594 132.773438 3.90625 126.746094 C -1.640625 116.539063 -1.210938 106.460938 4.753906 96.582031 C 8.554688 90.296875 13.796875 85.34375 19.628906 80.980469 C 29.804688 73.371094 41.148438 67.96875 52.957031 63.476563 C 66.4375 58.347656 80.3125 54.582031 94.449219 51.78125 C 100.664063 50.550781 106.910156 49.484375 113.414063 48.289063 "/>
</g>
<path style=" stroke:none;fill-rule:nonzero;fill:rgb(7.499695%,3.49884%,3.49884%);fill-opacity:1;" d="M 191.0625 41.757813 C 188.441406 44.527344 185.519531 46.496094 182.464844 48.273438 C 174.988281 52.621094 166.996094 55.777344 158.785156 58.410156 C 149.789063 61.296875 140.632813 63.492188 131.214844 64.351563 C 127.777344 64.664063 124.289063 64.484375 120.828125 64.449219 C 119.707031 64.4375 118.585938 64.179688 117.359375 64.023438 C 120.945313 69.609375 125.917969 73.027344 132.367188 74.828125 C 131.300781 73.898438 130.363281 73.195313 129.558594 72.363281 C 128.707031 71.484375 127.890625 70.546875 127.222656 69.523438 C 126.539063 68.484375 126.882813 67.976563 128.113281 67.941406 C 128.730469 67.921875 129.355469 67.976563 129.960938 67.890625 C 135.402344 67.132813 140.886719 66.578125 146.273438 65.527344 C 159.773438 62.894531 172.429688 57.941406 184.328125 51.050781 C 185.292969 50.492188 185.832031 50.710938 185.878906 51.820313 C 185.914063 52.8125 185.769531 53.816406 185.632813 54.808594 C 185.535156 55.507813 185.328125 56.191406 185.144531 56.878906 C 184.964844 57.554688 184.757813 58.222656 184.5625 58.890625 C 188.914063 54.066406 191.175781 48.472656 191.0625 41.757813 M 177.1875 33.664063 C 177.304688 32.554688 177.414063 31.527344 177.527344 30.441406 C 179.496094 30.441406 181.429688 30.410156 183.359375 30.457031 C 184.292969 30.480469 185.234375 30.597656 186.152344 30.785156 C 186.78125 30.910156 187.238281 30.769531 187.761719 30.433594 C 194.550781 26.050781 201.554688 22.027344 208.808594 18.480469 C 218.386719 13.789063 228.066406 9.304688 237.703125 4.730469 C 239.101563 4.066406 240.492188 3.96875 241.859375 4.808594 C 242.839844 5.410156 242.824219 6 241.820313 6.585938 C 240.507813 7.34375 239.160156 8.046875 237.890625 8.863281 C 236.53125 9.742188 235.605469 10.910156 235.558594 12.664063 C 235.546875 13.046875 235.070313 13.5625 234.675781 13.765625 C 229.355469 16.546875 223.980469 19.210938 218.6875 22.046875 C 211.417969 25.9375 204.234375 29.980469 197.671875 35.023438 C 196.773438 35.714844 195.972656 36.53125 195.054688 37.191406 C 194.175781 37.824219 194.003906 38.578125 194.113281 39.609375 C 194.960938 47.492188 192.65625 54.429688 187.636719 60.484375 C 183.117188 65.9375 177.285156 69.597656 170.890625 72.4375 C 164.167969 75.425781 157.164063 77.503906 149.890625 78.585938 C 142.242188 79.71875 134.65625 79.617188 127.382813 76.523438 C 119.96875 73.378906 114.859375 68.011719 112.066406 60.4375 C 111.398438 58.625 111.632813 56.941406 112.578125 55.332031 C 113.78125 53.285156 115.480469 51.675781 117.398438 50.328125 C 120.277344 48.3125 123.21875 46.382813 126.066406 44.464844 C 127.035156 45.382813 127.828125 46.136719 128.695313 46.957031 C 128.398438 47.128906 128.035156 47.308594 127.699219 47.535156 C 124.398438 49.746094 121.058594 51.902344 117.828125 54.214844 C 116.859375 54.90625 116.09375 55.960938 115.425781 56.976563 C 114.453125 58.449219 114.730469 59.511719 116.386719 60.101563 C 118.066406 60.699219 119.859375 61.128906 121.636719 61.285156 C 128.441406 61.90625 135.136719 60.84375 141.773438 59.515625 C 152.324219 57.402344 162.550781 54.203125 172.371094 49.796875 C 177.507813 47.492188 182.535156 44.957031 186.851563 41.269531 C 188.011719 40.277344 189.015625 39.042969 189.878906 37.773438 C 190.667969 36.621094 190.320313 35.734375 189.078125 35.058594 C 187.308594 34.09375 185.347656 33.804688 183.378906 33.699219 C 181.570313 33.605469 179.753906 33.671875 177.941406 33.664063 C 177.691406 33.664063 177.4375 33.664063 177.1875 33.664063 "/>
<path style=" stroke:none;fill-rule:nonzero;fill:rgb(99.198914%,98.799133%,98.799133%);fill-opacity:1;" d="M 160.089844 27.070313 C 157.96875 30.390625 155.179688 32.71875 152.109375 34.75 C 148.636719 37.050781 144.933594 38.898438 140.855469 39.824219 C 139.269531 40.1875 137.589844 40.296875 135.960938 40.257813 C 133.941406 40.210938 133.296875 38.664063 134.496094 37.03125 C 136.019531 34.960938 138.175781 33.691406 140.394531 32.550781 C 146.234375 29.539063 152.457031 27.800781 158.972656 27.074219 C 159.285156 27.039063 159.601563 27.070313 160.089844 27.070313 "/>
<path style=" stroke:none;fill-rule:nonzero;fill:rgb(99.198914%,98.799133%,98.799133%);fill-opacity:1;" d="M 199.179688 100.792969 L 199.203125 100.808594 C 199.136719 100.660156 199.097656 100.480469 198.996094 100.359375 C 195.230469 96.054688 189.101563 95.570313 184.566406 99.207031 C 179.476563 103.289063 179.679688 111.792969 184.953125 115.347656 C 188.894531 118.519531 194.765625 118.15625 198.476563 114.511719 C 202.109375 110.941406 202.59375 105.089844 199.578125 101.164063 C 199.445313 101.039063 199.3125 100.914063 199.179688 100.792969 M 178.320313 123.703125 C 174.320313 120.476563 171.742188 116.386719 170.699219 111.324219 C 168.453125 100.410156 175.21875 89.539063 186 86.867188 C 191.058594 85.613281 195.957031 86.117188 200.644531 88.441406 C 200.898438 88.566406 201.15625 88.683594 201.535156 88.863281 L 201.535156 63.222656 C 202.511719 63.710938 203.332031 64.121094 204.152344 64.539063 C 206.371094 65.675781 208.5625 66.859375 210.816406 67.921875 C 211.773438 68.371094 212.34375 68.902344 212.160156 70.007813 C 212.140625 70.359375 212.097656 70.710938 212.097656 71.066406 C 212.09375 89.867188 212.09375 108.667969 212.09375 127.46875 C 212.09375 127.804688 212.09375 128.144531 212.09375 128.59375 C 211.832031 128.480469 211.714844 128.441406 211.613281 128.382813 C 209.222656 127.023438 206.828125 125.679688 204.457031 124.292969 C 203.9375 123.992188 203.617188 124.023438 203.097656 124.367188 C 198.507813 127.429688 193.464844 128.644531 187.984375 127.847656 C 184.671875 127.371094 181.683594 126.039063 178.917969 124.1875 L 178.925781 124.195313 C 178.726563 124.03125 178.523438 123.867188 178.320313 123.703125 "/>
<path style=" stroke:none;fill-rule:nonzero;fill:rgb(99.198914%,98.799133%,98.799133%);fill-opacity:1;" d="M 264.785156 100.796875 C 264.710938 100.65625 264.65625 100.5 264.558594 100.375 C 260.683594 95.398438 253.179688 94.945313 248.75 99.472656 C 247.847656 100.394531 247.179688 101.539063 246.273438 102.75 L 266.046875 102.75 C 265.570313 102.015625 265.179688 101.40625 264.785156 100.796875 M 249.921875 115.425781 C 253.957031 118.515625 259.464844 118.3125 263.335938 114.753906 C 265.429688 112.828125 268.539063 112.859375 270.160156 114.246094 C 270.808594 114.796875 271.261719 115.574219 271.800781 116.25 C 271.855469 116.3125 271.90625 116.375 271.960938 116.4375 L 271.9375 116.421875 C 271.953125 116.644531 271.941406 116.875 271.992188 117.089844 C 272.476563 119.078125 271.902344 120.765625 270.421875 122.089844 C 264.539063 127.355469 257.75 129 250.183594 126.738281 C 248.003906 126.085938 246.015625 124.789063 243.941406 123.789063 L 243.949219 123.796875 C 243.851563 123.746094 243.757813 123.695313 243.664063 123.640625 C 242.59375 122.574219 241.429688 121.585938 240.472656 120.421875 C 235.386719 114.238281 234.050781 107.238281 236.8125 99.769531 C 239.617188 92.183594 245.265625 87.613281 253.316406 86.453125 C 261.164063 85.324219 267.59375 88.148438 272.636719 94.210938 C 272.796875 94.414063 272.960938 94.613281 273.121094 94.816406 L 273.117188 94.808594 C 275.972656 99.125 277.394531 103.804688 276.851563 109.019531 C 276.765625 109.835938 276.605469 110.179688 275.664063 110.175781 C 266.128906 110.136719 256.59375 110.152344 247.058594 110.15625 C 246.78125 110.15625 246.507813 110.179688 246.222656 110.195313 C 246.613281 112.007813 248.144531 114.21875 249.558594 115.066406 L 249.554688 115.0625 C 249.625 115.128906 249.695313 115.195313 249.765625 115.261719 L 249.753906 115.242188 C 249.808594 115.304688 249.863281 115.363281 249.921875 115.425781 "/>
<path style=" stroke:none;fill-rule:nonzero;fill:rgb(99.198914%,98.799133%,98.799133%);fill-opacity:1;" d="M 138.414063 115.433594 C 138.488281 115.488281 138.566406 115.546875 138.640625 115.601563 C 141.128906 117.460938 143.910156 117.96875 146.910156 117.375 C 153.890625 115.992188 157.386719 107.355469 153.328125 101.542969 C 153.207031 101.371094 152.996094 101.261719 152.828125 101.121094 C 152.6875 100.851563 152.59375 100.535156 152.394531 100.324219 C 149.699219 97.46875 146.394531 96.3125 142.558594 97.148438 C 138.3125 98.066406 135.664063 100.792969 134.589844 104.960938 C 133.589844 108.832031 135.214844 113.085938 138.425781 115.449219 Z M 132.421875 124.585938 C 131.15625 123.296875 129.773438 122.101563 128.644531 120.703125 C 123.589844 114.453125 122.351563 107.394531 125.113281 99.914063 C 127.859375 92.480469 133.378906 87.921875 141.234375 86.640625 C 149.351563 85.316406 156.058594 88.066406 161.292969 94.40625 C 161.390625 94.480469 161.488281 94.554688 161.585938 94.632813 L 161.5625 94.617188 C 161.636719 94.746094 161.707031 94.878906 161.78125 95.007813 L 161.773438 95 C 161.9375 95.277344 162.105469 95.546875 162.269531 95.824219 C 166.746094 103.34375 166.996094 110.996094 162.351563 118.425781 C 156.113281 128.40625 143.523438 131.128906 133.46875 124.980469 C 133.15625 124.789063 132.769531 124.714844 132.421875 124.585938 "/>
<path style=" stroke:none;fill-rule:nonzero;fill:rgb(99.198914%,98.799133%,98.799133%);fill-opacity:1;" d="M 91.667969 115.253906 C 91.765625 115.367188 91.859375 115.480469 91.953125 115.59375 C 96.121094 118.667969 101.703125 118.214844 105.410156 114.5 C 108.96875 110.933594 109.382813 105.203125 106.375 101.175781 C 106.289063 101.113281 106.203125 101.054688 106.117188 100.992188 L 106.152344 101.007813 C 106.113281 100.894531 106.105469 100.761719 106.035156 100.675781 C 102.894531 96.792969 97.265625 95.757813 92.902344 98.257813 C 88.488281 100.785156 86.515625 106.09375 88.289063 110.789063 C 88.972656 112.601563 89.953125 114.238281 91.691406 115.277344 Z M 85.308594 124.175781 C 84.816406 123.675781 84.335938 123.167969 83.832031 122.683594 C 77.679688 116.695313 75.59375 109.449219 78 101.28125 C 80.414063 93.097656 86.128906 88.066406 94.59375 86.644531 C 102.589844 85.296875 109.234375 88.027344 114.476563 94.195313 C 114.542969 94.273438 114.609375 94.351563 114.679688 94.425781 L 114.664063 94.414063 C 114.730469 94.484375 114.800781 94.554688 114.867188 94.625 L 114.855469 94.613281 C 114.964844 94.808594 115.054688 95.015625 115.179688 95.195313 C 118.605469 100.203125 119.742188 105.710938 118.515625 111.621094 C 115.496094 126.148438 98.515625 132.945313 86.238281 124.605469 C 85.960938 124.417969 85.621094 124.316406 85.308594 124.175781 "/>
<path style=" stroke:none;fill-rule:nonzero;fill:rgb(99.198914%,98.799133%,98.799133%);fill-opacity:1;" d="M 64.515625 127.789063 C 62.332031 126.6875 61.324219 124.902344 61.332031 122.464844 C 61.347656 115.730469 61.351563 109 61.316406 102.269531 C 61.316406 101.519531 61.03125 100.769531 60.878906 100.019531 C 60.835938 99.964844 60.789063 99.90625 60.746094 99.851563 L 60.769531 99.863281 C 60.734375 99.742188 60.726563 99.605469 60.664063 99.503906 C 59.46875 97.496094 57.007813 96.453125 54.824219 97.015625 C 52.414063 97.636719 50.804688 99.679688 50.800781 102.183594 C 50.792969 110.21875 50.796875 118.253906 50.796875 126.289063 L 50.796875 127.597656 C 50.070313 127.597656 49.457031 127.589844 48.847656 127.597656 C 46.84375 127.621094 44.839844 127.652344 42.835938 127.679688 L 40.269531 127.679688 L 40.269531 85.730469 C 41.234375 86.273438 42.152344 86.785156 43.066406 87.300781 C 43.234375 87.394531 43.394531 87.511719 43.5625 87.605469 C 44.488281 88.140625 45.394531 89.03125 46.347656 89.09375 C 47.238281 89.148438 48.179688 88.308594 49.101563 87.871094 C 55.863281 84.648438 63.863281 86.5 68.539063 92.363281 C 68.621094 92.464844 68.710938 92.554688 68.796875 92.652344 C 68.90625 92.789063 69.015625 92.925781 69.121094 93.0625 L 69.113281 93.050781 C 69.179688 93.121094 69.246094 93.191406 69.308594 93.261719 L 69.304688 93.257813 C 69.359375 93.402344 69.394531 93.566406 69.476563 93.695313 C 71.179688 96.359375 71.941406 99.289063 71.941406 102.429688 C 71.941406 109.109375 71.957031 115.792969 71.914063 122.472656 C 71.910156 123.355469 71.757813 124.300781 71.410156 125.101563 C 70.296875 127.667969 67.851563 128.621094 64.648438 127.886719 L 64.660156 127.90625 C 64.609375 127.867188 64.5625 127.828125 64.515625 127.789063 "/>
<path style=" stroke:none;fill-rule:nonzero;fill:rgb(99.198914%,98.799133%,98.799133%);fill-opacity:1;" d="M 293.578125 100.238281 C 294.734375 100.632813 295.871094 101.082031 297.046875 101.40625 C 301.019531 102.511719 304.570313 104.273438 307.132813 107.644531 C 307.21875 107.71875 307.300781 107.796875 307.386719 107.871094 L 307.359375 107.851563 C 307.429688 107.984375 307.5 108.113281 307.570313 108.246094 L 307.570313 108.25 C 307.636719 108.425781 307.691406 108.609375 307.773438 108.777344 C 309.203125 111.613281 309.449219 114.558594 308.609375 117.613281 C 306.957031 123.644531 300.953125 127.832031 294.335938 128.28125 C 290.234375 128.558594 286.464844 127.570313 283.050781 125.265625 C 281.230469 123.921875 279.667969 122.359375 278.671875 120.289063 C 278.328125 119.570313 278.339844 119.125 279.136719 118.660156 C 280.898438 117.640625 282.597656 116.507813 284.300781 115.382813 C 284.816406 115.039063 285.171875 115.042969 285.628906 115.488281 C 286.5625 116.390625 287.496094 117.296875 288.527344 118.078125 C 291.207031 120.109375 295.109375 120.003906 297.527344 117.90625 C 299.0625 116.574219 299.632813 114.679688 299.023438 112.941406 C 298.691406 112.410156 298.480469 111.679688 298 111.386719 C 296.949219 110.738281 295.804688 110.15625 294.625 109.824219 C 292.585938 109.25 290.421875 109.109375 288.535156 108.011719 C 287.953125 107.675781 287.355469 107.367188 286.765625 107.046875 L 286.773438 107.058594 C 286.703125 106.992188 286.632813 106.925781 286.5625 106.859375 L 286.574219 106.871094 C 286.492188 106.808594 286.410156 106.746094 286.328125 106.679688 C 284.089844 104.925781 282.300781 102.84375 281.519531 100.042969 C 279.996094 94.589844 282.929688 89.066406 288.488281 86.835938 C 293.984375 84.628906 300.925781 85.851563 304.867188 91.183594 C 304.988281 91.355469 305.109375 91.527344 305.234375 91.703125 C 305.300781 91.910156 305.355469 92.128906 305.441406 92.328125 C 306.238281 94.128906 305.898438 95.832031 304.398438 97.117188 C 302.722656 98.550781 300.8125 98.6875 298.789063 97.976563 C 298.398438 97.757813 298.007813 97.535156 297.617188 97.316406 C 297.269531 96.855469 296.917969 96.402344 296.570313 95.941406 C 295.390625 94.371094 293.3125 94.097656 291.804688 95.34375 C 291.089844 95.941406 290.753906 96.691406 290.96875 97.660156 C 291.292969 99.085938 292.324219 99.769531 293.578125 100.238281 "/>
<path style=" stroke:none;fill-rule:nonzero;fill:rgb(99.198914%,98.799133%,98.799133%);fill-opacity:1;" d="M 222.125 129.046875 C 221.289063 129.011719 220.457031 128.972656 219.558594 128.933594 L 219.558594 126.839844 C 219.558594 107.910156 219.558594 88.980469 219.558594 70.050781 C 219.558594 66.820313 220.851563 64.851563 223.46875 64.097656 C 225.464844 63.519531 228.308594 63.980469 229.925781 67.105469 C 230.042969 68.320313 230.257813 69.535156 230.261719 70.75 C 230.28125 89.777344 230.273438 108.804688 230.273438 127.835938 L 230.273438 128.957031 C 229.75 128.957031 229.332031 128.953125 228.914063 128.957031 C 226.652344 128.988281 224.386719 129.019531 222.125 129.046875 "/>
<path style=" stroke:none;fill-rule:nonzero;fill:rgb(98.799133%,82.699585%,4.699707%);fill-opacity:1;" d="M 116.621094 157.179688 C 114.472656 155.566406 112.9375 153.535156 112.484375 150.832031 C 111.867188 147.175781 112.878906 144.050781 115.6875 141.558594 C 115.878906 141.390625 116.058594 141.207031 116.289063 140.984375 C 114.734375 138.964844 114.136719 136.71875 114.753906 134.230469 C 115.242188 132.253906 116.394531 130.734375 118.105469 129.636719 C 121.183594 127.667969 126.195313 128.152344 128.410156 131.578125 C 128.742188 132.371094 129.175781 133.140625 129.390625 133.964844 C 130.050781 136.496094 129.03125 137.898438 126.691406 137.796875 C 125.679688 137.324219 125.058594 136.582031 124.988281 135.417969 C 124.976563 135.179688 124.804688 134.949219 124.703125 134.714844 C 124.035156 133.46875 122.964844 132.933594 121.570313 133.152344 C 120.472656 133.324219 119.421875 134.328125 119.179688 135.4375 C 118.898438 136.753906 119.441406 137.910156 120.71875 138.707031 C 121.75 138.902344 122.78125 139.09375 123.921875 139.308594 C 123.949219 139.640625 123.992188 140.082031 124.03125 140.519531 C 124.03125 141.542969 124.03125 142.566406 124.03125 143.679688 C 123.367188 143.679688 122.851563 143.628906 122.351563 143.691406 C 121.621094 143.777344 120.851563 143.824219 120.1875 144.097656 C 118.277344 144.886719 117.136719 146.355469 116.933594 148.425781 C 116.761719 150.175781 117.246094 151.730469 118.757813 152.824219 L 118.75 152.816406 C 118.820313 152.882813 118.890625 152.953125 118.960938 153.019531 L 118.949219 153 C 119 153.054688 119.050781 153.109375 119.105469 153.164063 C 120.496094 154.382813 123.230469 154.613281 124.757813 153.273438 C 124.644531 152.925781 124.480469 152.574219 124.421875 152.203125 C 124.242188 151.011719 124.863281 150 125.96875 149.609375 C 126.992188 149.246094 128.054688 149.667969 128.691406 150.695313 C 128.773438 150.832031 128.847656 150.976563 128.929688 151.117188 C 129.632813 152.96875 130.707031 154.566406 132.179688 155.890625 C 137.089844 160.570313 144.394531 160.761719 149.929688 156.359375 C 151.503906 155.109375 152.964844 155.449219 153.851563 157.265625 C 154.121094 158.328125 153.746094 159.160156 152.9375 159.839844 C 148.519531 163.523438 143.464844 164.785156 137.824219 163.8125 C 135.441406 163.402344 133.3125 162.339844 131.230469 161.171875 L 131.234375 161.175781 C 131.003906 161.054688 130.777344 160.9375 130.550781 160.820313 C 129.882813 160.179688 129.214844 159.542969 128.546875 158.90625 C 128.105469 158.402344 127.660156 157.898438 127.214844 157.394531 C 127.023438 157.484375 126.90625 157.535156 126.796875 157.59375 C 123.667969 159.191406 120.542969 159.222656 117.410156 157.601563 C 117.238281 157.511719 117.019531 157.507813 116.824219 157.460938 L 116.835938 157.476563 C 116.765625 157.378906 116.691406 157.28125 116.621094 157.179688 "/>
<path style=" stroke:none;fill-rule:nonzero;fill:rgb(99.198914%,98.799133%,98.799133%);fill-opacity:1;" d="M 183.144531 154.59375 C 181.898438 154.09375 181.441406 153.148438 181.460938 151.84375 C 181.492188 149.136719 181.472656 146.425781 181.464844 143.714844 C 181.464844 143.363281 181.402344 143.015625 181.367188 142.664063 C 180.847656 141.429688 179.933594 140.902344 178.710938 141.136719 C 177.675781 141.332031 176.953125 142.253906 176.941406 143.476563 C 176.925781 145.835938 176.9375 148.195313 176.9375 150.554688 C 176.9375 151.804688 176.9375 153.054688 176.9375 154.40625 L 173.75 154.40625 C 173.304688 154.382813 172.859375 154.355469 172.367188 154.328125 L 172.367188 136.222656 C 173.339844 136.769531 174.226563 137.269531 175.109375 137.765625 C 178.273438 135.902344 180.433594 135.984375 183.785156 138.085938 C 188.183594 135.558594 191.476563 136.027344 194.183594 139.570313 C 194.28125 139.707031 194.382813 139.84375 194.484375 139.976563 L 194.472656 139.972656 C 195.230469 141.5625 195.3125 143.25 195.277344 144.976563 C 195.230469 147.246094 195.265625 149.515625 195.265625 151.78125 C 195.265625 153.894531 194.375 154.742188 192.308594 154.597656 C 191.109375 154.117188 190.636719 153.222656 190.65625 151.945313 C 190.695313 149.308594 190.671875 146.664063 190.660156 144.027344 C 190.660156 143.578125 190.585938 143.132813 190.542969 142.683594 C 190.019531 141.429688 189.144531 140.910156 187.910156 141.132813 C 186.828125 141.324219 186.117188 142.273438 186.117188 143.539063 C 186.113281 146.285156 186.117188 149.035156 186.113281 151.78125 C 186.113281 153.871094 185.210938 154.726563 183.144531 154.59375 "/>
<path style=" stroke:none;fill-rule:nonzero;fill:rgb(99.198914%,98.799133%,98.799133%);fill-opacity:1;" d="M 205.398438 149.261719 C 207.363281 150.457031 209.535156 150.226563 211.046875 148.65625 C 212.519531 147.128906 212.699219 144.882813 211.496094 143.078125 C 210.570313 141.578125 208.824219 140.828125 206.996094 141.140625 C 205.363281 141.421875 203.789063 142.949219 203.453125 144.582031 C 203.074219 146.433594 203.789063 148.160156 205.398438 149.261719 M 200.367188 163.332031 C 199.183594 162.761719 198.742188 161.839844 198.75 160.515625 C 198.789063 152.472656 198.769531 144.429688 198.769531 136.199219 C 199.855469 136.816406 200.828125 137.410156 201.84375 137.917969 C 202.117188 138.054688 202.601563 138.0625 202.851563 137.90625 C 207.347656 135.148438 212.578125 136.5625 215.128906 140.078125 C 215.160156 140.125 215.230469 140.148438 215.28125 140.183594 C 216.324219 141.964844 216.964844 143.828125 216.914063 145.953125 C 216.796875 150.917969 212.25 155.097656 207.3125 154.589844 C 205.992188 154.457031 204.699219 154.046875 203.335938 153.75 C 203.335938 155.871094 203.335938 158.09375 203.335938 160.320313 C 203.339844 162.667969 202.679688 163.339844 200.367188 163.332031 "/>
<path style=" stroke:none;fill-rule:nonzero;fill:rgb(7.499695%,3.49884%,3.49884%);fill-opacity:1;" d="M 178.917969 124.1875 C 181.683594 126.039063 184.671875 127.371094 187.984375 127.851563 C 193.464844 128.644531 198.507813 127.433594 203.097656 124.367188 C 203.613281 124.023438 203.9375 123.992188 204.457031 124.292969 C 206.828125 125.679688 209.222656 127.023438 211.609375 128.382813 C 211.714844 128.441406 211.832031 128.480469 212.089844 128.59375 C 212.089844 128.144531 212.089844 127.808594 212.089844 127.46875 C 212.09375 108.667969 212.09375 89.867188 212.097656 71.066406 C 212.097656 70.710938 212.140625 70.359375 212.160156 70.007813 C 212.917969 70.367188 213.6875 70.710938 214.425781 71.101563 C 214.585938 71.1875 214.703125 71.445313 214.742188 71.644531 C 214.796875 71.925781 214.765625 72.222656 214.765625 72.515625 C 214.765625 91.675781 214.765625 110.839844 214.765625 130 L 214.765625 131.355469 C 213.21875 130.484375 211.847656 129.71875 210.480469 128.941406 C 209.355469 128.300781 208.226563 127.667969 207.121094 126.992188 C 206.609375 126.679688 206.234375 126.722656 205.730469 127.066406 C 202.039063 129.582031 197.929688 130.84375 193.480469 130.753906 C 188.09375 130.644531 183.363281 128.769531 179.4375 125.015625 C 179.210938 124.796875 179.089844 124.464844 178.917969 124.1875 "/>
<path style=" stroke:none;fill-rule:nonzero;fill:rgb(99.198914%,98.799133%,98.799133%);fill-opacity:1;" d="M 262.023438 152.90625 C 259.921875 151.402344 258.898438 149.371094 258.933594 146.773438 C 258.96875 144.214844 258.9375 141.652344 258.941406 139.09375 C 258.941406 137.535156 259.515625 136.65625 260.730469 136.351563 C 261.890625 136.0625 262.867188 136.632813 263.554688 138 C 263.566406 141.003906 263.578125 144.007813 263.589844 147.011719 C 263.597656 148.210938 264.003906 148.789063 265.148438 149.261719 C 266.910156 149.609375 268.074219 148.699219 268.085938 146.925781 C 268.101563 144.40625 268.109375 141.882813 268.078125 139.363281 C 268.070313 138.832031 268.246094 138.554688 268.695313 138.3125 C 270.015625 137.59375 271.308594 136.824219 272.777344 135.984375 C 272.777344 136.859375 272.777344 137.5625 272.777344 138.261719 C 272.761719 138.617188 272.742188 138.96875 272.742188 139.324219 C 272.738281 144.988281 272.746094 150.652344 272.734375 156.316406 C 272.730469 159.515625 270.695313 162.242188 267.566406 162.941406 C 266.179688 163.253906 264.6875 163.097656 263.242188 163.152344 C 261.945313 162.464844 261.410156 161.496094 261.6875 160.355469 C 261.96875 159.214844 262.890625 158.617188 264.375 158.617188 C 264.699219 158.617188 265.023438 158.632813 265.347656 158.640625 C 267.296875 158.699219 268.191406 157.667969 268.046875 155.542969 C 268.050781 154.953125 268.050781 154.359375 268.050781 153.710938 C 265.859375 154.289063 263.878906 154.027344 262.023438 152.90625 "/>
<path style=" stroke:none;fill-rule:nonzero;fill:rgb(99.198914%,98.799133%,98.799133%);fill-opacity:1;" d="M 232.257813 142.867188 L 232.265625 142.875 C 231.175781 141.246094 229.550781 140.820313 227.785156 141.191406 C 225.976563 141.570313 224.785156 142.785156 224.40625 144.640625 C 224.019531 146.539063 224.703125 148.046875 226.25 149.183594 C 228.316406 150.398438 230.449219 150.191406 231.96875 148.632813 C 233.46875 147.089844 233.65625 144.960938 232.457031 143.082031 C 232.390625 143.011719 232.324219 142.9375 232.257813 142.867188 M 223.679688 153.097656 C 218.875 149.757813 218.542969 143.265625 222.042969 139.402344 C 224.914063 136.230469 229.917969 135.484375 233.542969 137.816406 C 234.058594 138.148438 234.414063 138.164063 234.914063 137.847656 C 235.8125 137.28125 236.757813 136.785156 237.820313 136.183594 C 237.855469 136.984375 237.890625 137.671875 237.921875 138.351563 C 237.902344 138.707031 237.871094 139.058594 237.871094 139.414063 C 237.867188 144.042969 237.867188 148.671875 237.867188 153.296875 L 237.867188 154.339844 L 233.304688 154.339844 C 233.261719 154.003906 233.226563 153.714844 233.179688 153.347656 C 231.476563 154.351563 229.726563 154.796875 227.890625 154.535156 C 226.671875 154.359375 225.492188 153.902344 224.292969 153.570313 L 224.285156 153.570313 C 224.085938 153.410156 223.882813 153.253906 223.679688 153.097656 "/>
<path style=" stroke:none;fill-rule:nonzero;fill:rgb(99.198914%,98.799133%,98.799133%);fill-opacity:1;" d="M 157.675781 149.109375 C 157.722656 149.164063 157.769531 149.21875 157.8125 149.277344 C 159.621094 150.449219 161.78125 150.238281 163.308594 148.746094 C 164.875 147.207031 165.097656 144.996094 163.871094 143.089844 C 162.515625 141.050781 159.890625 140.460938 157.84375 141.738281 C 155.082031 143.460938 154.992188 147.695313 157.6875 149.140625 Z M 154.800781 152.96875 C 152.445313 151.046875 151.097656 148.625 151.101563 145.527344 C 151.109375 141.613281 153.570313 138.183594 157.304688 136.898438 C 160.890625 135.667969 165.050781 136.9375 167.398438 139.984375 C 167.496094 140.109375 167.605469 140.226563 167.710938 140.347656 C 167.808594 140.484375 167.90625 140.621094 168.003906 140.757813 L 168 140.753906 C 168.414063 142.125 169.03125 143.476563 169.207031 144.878906 C 169.800781 149.652344 165.914063 154.1875 161.132813 154.597656 C 159.0625 154.773438 157.195313 154.25 155.371094 153.378906 L 155.375 153.382813 C 155.183594 153.246094 154.992188 153.105469 154.800781 152.96875 "/>
<path style=" stroke:none;fill-rule:nonzero;fill:rgb(7.499695%,3.49884%,3.49884%);fill-opacity:1;" d="M 222.125 129.046875 C 224.386719 129.019531 226.652344 128.988281 228.914063 128.957031 C 229.332031 128.953125 229.75 128.957031 230.273438 128.957031 L 230.273438 127.835938 C 230.273438 108.804688 230.28125 89.777344 230.261719 70.75 C 230.257813 69.535156 230.042969 68.320313 229.925781 67.105469 C 231.726563 67.890625 232.652344 69.308594 232.859375 71.222656 C 232.910156 71.703125 232.871094 72.195313 232.871094 72.679688 C 232.871094 92.042969 232.875 111.40625 232.875 130.769531 C 232.875 130.996094 232.875 131.21875 232.875 131.523438 L 222.125 131.523438 "/>
<path style=" stroke:none;fill-rule:nonzero;fill:rgb(99.198914%,98.799133%,98.799133%);fill-opacity:1;" d="M 252.425781 154.597656 C 251.199219 154.070313 250.746094 153.105469 250.761719 151.808594 C 250.789063 149.089844 250.777344 146.367188 250.765625 143.648438 C 250.761719 143.273438 250.667969 142.898438 250.617188 142.519531 C 250.066406 141.363281 249.121094 140.875 247.957031 141.144531 C 246.964844 141.371094 246.269531 142.300781 246.269531 143.449219 C 246.261719 146.808594 246.265625 150.171875 246.265625 153.535156 C 246.265625 153.808594 246.234375 154.085938 246.21875 154.402344 L 241.695313 154.402344 L 241.695313 136.222656 C 242.464844 136.660156 243.164063 137.097656 243.910156 137.457031 C 244.167969 137.582031 244.589844 137.628906 244.824219 137.503906 C 248.390625 135.582031 251.824219 136.3125 254.335938 139.570313 C 254.433594 139.707031 254.53125 139.84375 254.632813 139.980469 L 254.621094 139.972656 C 255.378906 141.554688 255.464844 143.234375 255.425781 144.953125 C 255.378906 147.210938 255.414063 149.472656 255.414063 151.730469 C 255.414063 153.898438 254.558594 154.71875 252.425781 154.597656 "/>
<path style=" stroke:none;fill-rule:nonzero;fill:rgb(99.198914%,98.799133%,98.799133%);fill-opacity:1;" d="M 139.015625 149.21875 C 140.832031 150.386719 142.59375 150.273438 144.355469 149.058594 C 146.015625 147.910156 147.34375 148.28125 148.230469 150.078125 C 148.480469 151.105469 148.109375 151.917969 147.339844 152.558594 C 145.527344 154.066406 143.414063 154.851563 141.085938 154.578125 C 139.589844 154.398438 138.144531 153.792969 136.675781 153.382813 L 136.6875 153.394531 C 136.617188 153.328125 136.546875 153.257813 136.476563 153.191406 L 136.488281 153.203125 C 136.359375 153.105469 136.230469 153.003906 136.101563 152.90625 C 131.332031 149.199219 131.429688 142.621094 135.269531 138.929688 C 138.539063 135.789063 144.140625 135.621094 147.488281 138.660156 C 147.769531 138.914063 147.957031 139.269531 148.1875 139.582031 C 148.4375 140.902344 148.09375 141.921875 147.140625 142.433594 C 146.109375 142.980469 145.179688 142.71875 144.277344 142.015625 C 142.285156 140.464844 139.453125 140.886719 137.925781 142.917969 C 136.417969 144.925781 136.898438 147.707031 139.015625 149.21875 "/>
<path style=" stroke:none;fill-rule:nonzero;fill:rgb(7.499695%,3.49884%,3.49884%);fill-opacity:1;" d="M 85.308594 124.175781 C 85.621094 124.316406 85.960938 124.417969 86.238281 124.605469 C 98.515625 132.945313 115.492188 126.148438 118.511719 111.621094 C 119.742188 105.710938 118.605469 100.203125 115.179688 95.195313 C 115.054688 95.015625 114.964844 94.808594 114.855469 94.613281 C 115.585938 95.316406 116.398438 95.945313 117.027344 96.726563 C 126.066406 107.949219 121.359375 124.890625 107.726563 129.636719 C 100.007813 132.328125 92.851563 130.890625 86.613281 125.464844 C 86.15625 125.066406 85.742188 124.605469 85.308594 124.175781 "/>
<path style=" stroke:none;fill-rule:nonzero;fill:rgb(7.499695%,3.49884%,3.49884%);fill-opacity:1;" d="M 132.421875 124.585938 C 132.773438 124.714844 133.15625 124.789063 133.46875 124.980469 C 143.523438 131.128906 156.113281 128.40625 162.351563 118.429688 C 166.996094 110.996094 166.746094 103.34375 162.269531 95.824219 C 162.105469 95.550781 161.9375 95.277344 161.773438 95 C 162.027344 95.140625 162.34375 95.230469 162.53125 95.433594 C 166.066406 99.183594 167.945313 103.628906 168.242188 108.785156 C 168.777344 118.050781 163.144531 126.3125 154.769531 129.582031 C 147.5 132.417969 137.84375 130.425781 132.480469 124.761719 C 132.441406 124.71875 132.441406 124.644531 132.421875 124.585938 "/>
<path style=" stroke:none;fill-rule:nonzero;fill:rgb(7.499695%,3.49884%,3.49884%);fill-opacity:1;" d="M 42.835938 127.679688 C 44.839844 127.652344 46.84375 127.621094 48.847656 127.597656 C 49.460938 127.589844 50.074219 127.59375 50.796875 127.59375 L 50.796875 126.289063 C 50.796875 118.253906 50.792969 110.21875 50.800781 102.183594 C 50.804688 99.679688 52.414063 97.636719 54.824219 97.015625 C 57.007813 96.449219 59.46875 97.496094 60.664063 99.503906 C 60.726563 99.605469 60.734375 99.742188 60.769531 99.863281 C 59.941406 99.761719 59.097656 99.496094 58.289063 99.585938 C 55.328125 99.917969 53.414063 102.125 53.40625 105.128906 C 53.394531 113.136719 53.398438 121.144531 53.394531 129.152344 C 53.394531 129.46875 53.394531 129.789063 53.394531 130.171875 L 42.835938 130.171875 "/>
<path style=" stroke:none;fill-rule:nonzero;fill:rgb(7.499695%,3.49884%,3.49884%);fill-opacity:1;" d="M 249.558594 115.066406 C 248.140625 114.21875 246.613281 112.007813 246.222656 110.191406 C 246.507813 110.179688 246.78125 110.15625 247.058594 110.15625 C 256.59375 110.152344 266.128906 110.136719 275.664063 110.175781 C 276.605469 110.179688 276.765625 109.835938 276.851563 109.019531 C 277.394531 103.804688 275.972656 99.125 273.117188 94.808594 C 273.445313 95.019531 273.835938 95.175781 274.085938 95.453125 C 278.257813 100.039063 280.03125 105.445313 279.53125 111.609375 C 279.5 111.992188 279.390625 112.367188 279.300781 112.835938 L 248.894531 112.835938 C 249.136719 113.65625 249.347656 114.359375 249.558594 115.066406 "/>
<path style=" stroke:none;fill-rule:nonzero;fill:rgb(7.499695%,3.49884%,3.49884%);fill-opacity:1;" d="M 283.050781 125.265625 C 286.464844 127.570313 290.234375 128.558594 294.335938 128.28125 C 300.953125 127.832031 306.957031 123.644531 308.609375 117.613281 C 309.449219 114.558594 309.199219 111.613281 307.773438 108.777344 C 307.691406 108.609375 307.636719 108.425781 307.570313 108.25 C 308.054688 108.613281 308.617188 108.90625 309.011719 109.351563 C 312.875 113.703125 312.457031 120.515625 308.972656 124.847656 C 306.109375 128.410156 302.328125 130.304688 297.824219 130.84375 C 292.769531 131.449219 288.265625 130.167969 284.375 126.867188 C 283.855469 126.425781 283.488281 125.800781 283.050781 125.265625 "/>
<path style=" stroke:none;fill-rule:nonzero;fill:rgb(7.499695%,3.49884%,3.49884%);fill-opacity:1;" d="M 64.648438 127.886719 C 67.851563 128.621094 70.292969 127.667969 71.410156 125.101563 C 71.761719 124.300781 71.910156 123.355469 71.914063 122.472656 C 71.957031 115.792969 71.941406 109.109375 71.941406 102.429688 C 71.9375 99.289063 71.179688 96.359375 69.476563 93.695313 C 69.394531 93.566406 69.359375 93.40625 69.304688 93.257813 C 69.953125 93.84375 70.710938 94.347656 71.234375 95.03125 C 73.40625 97.851563 74.585938 101.042969 74.582031 104.644531 C 74.570313 111.675781 74.582031 118.707031 74.574219 125.738281 C 74.574219 128.023438 72.84375 130.15625 70.554688 130.746094 C 68.425781 131.296875 65.949219 130.296875 64.816406 128.417969 C 64.722656 128.261719 64.703125 128.0625 64.648438 127.886719 "/>
<path style=" stroke:none;fill-rule:nonzero;fill:rgb(7.499695%,3.49884%,3.49884%);fill-opacity:1;" d="M 243.941406 123.789063 C 246.015625 124.789063 248.003906 126.089844 250.183594 126.738281 C 257.75 129 264.539063 127.355469 270.421875 122.089844 C 271.902344 120.765625 272.476563 119.078125 271.992188 117.089844 C 271.941406 116.875 271.953125 116.644531 271.9375 116.421875 C 273.761719 117.046875 275.09375 119.304688 274.828125 121.296875 C 274.640625 122.730469 274.050781 123.902344 272.960938 124.902344 C 264.957031 132.265625 252.542969 132.21875 244.660156 124.75 C 244.375 124.480469 244.179688 124.113281 243.941406 123.789063 "/>
<path style=" stroke:none;fill-rule:nonzero;fill:rgb(7.499695%,3.49884%,3.49884%);fill-opacity:1;" d="M 200.367188 163.332031 C 202.679688 163.339844 203.339844 162.667969 203.335938 160.320313 C 203.335938 158.09375 203.335938 155.871094 203.335938 153.746094 C 204.699219 154.046875 205.992188 154.457031 207.3125 154.59375 C 212.25 155.097656 216.796875 150.917969 216.914063 145.953125 C 216.964844 143.828125 216.324219 141.964844 215.28125 140.183594 C 217.199219 141.652344 218.160156 143.679688 218.398438 145.996094 C 218.910156 150.941406 215.921875 154.96875 211.050781 155.992188 C 209.3125 156.355469 207.574219 156.199219 205.90625 155.519531 C 205.667969 155.417969 205.433594 155.3125 205.191406 155.21875 C 205.144531 155.203125 205.070313 155.238281 204.839844 155.28125 C 204.839844 155.683594 204.839844 156.121094 204.839844 156.558594 C 204.84375 158.503906 204.847656 160.445313 204.839844 162.390625 C 204.835938 163.730469 204.222656 164.570313 203.089844 164.832031 C 201.960938 165.089844 200.96875 164.542969 200.367188 163.332031 "/>
<path style=" stroke:none;fill-rule:nonzero;fill:rgb(7.499695%,3.49884%,3.49884%);fill-opacity:1;" d="M 263.242188 163.15625 C 264.6875 163.097656 266.179688 163.25 267.570313 162.941406 C 270.695313 162.242188 272.730469 159.515625 272.734375 156.316406 C 272.75 150.652344 272.738281 144.988281 272.742188 139.324219 C 272.742188 138.96875 272.765625 138.613281 272.777344 138.261719 C 273.203125 138.042969 273.636719 137.828125 274.203125 137.539063 C 274.238281 137.890625 274.292969 138.15625 274.292969 138.417969 C 274.296875 144.742188 274.246094 151.066406 274.308594 157.386719 C 274.347656 161.671875 271.070313 164.988281 266.910156 164.726563 C 266.429688 164.695313 265.941406 164.714844 265.453125 164.710938 C 264.355469 164.703125 263.617188 164.1875 263.242188 163.15625 "/>
<path style=" stroke:none;fill-rule:nonzero;fill:rgb(7.499695%,3.49884%,3.49884%);fill-opacity:1;" d="M 224.292969 153.570313 C 225.488281 153.902344 226.671875 154.359375 227.890625 154.535156 C 229.726563 154.796875 231.476563 154.351563 233.179688 153.347656 C 233.226563 153.714844 233.261719 154.003906 233.304688 154.339844 L 237.867188 154.339844 L 237.867188 153.296875 C 237.867188 148.667969 237.867188 144.042969 237.867188 139.414063 C 237.871094 139.058594 237.902344 138.707031 237.921875 138.351563 C 238.355469 138.164063 238.785156 137.96875 239.335938 137.726563 L 239.335938 155.925781 C 237.914063 155.925781 236.46875 155.949219 235.027344 155.894531 C 234.839844 155.886719 234.671875 155.460938 234.429688 155.140625 C 233.804688 155.355469 233.101563 155.664063 232.363281 155.847656 C 229.582031 156.546875 227.039063 155.972656 224.746094 154.285156 C 224.53125 154.132813 224.441406 153.8125 224.292969 153.570313 "/>
<path style=" stroke:none;fill-rule:nonzero;fill:rgb(7.499695%,3.49884%,3.49884%);fill-opacity:1;" d="M 131.230469 161.171875 C 133.3125 162.339844 135.441406 163.398438 137.824219 163.8125 C 143.464844 164.785156 148.519531 163.523438 152.9375 159.839844 C 153.75 159.160156 154.121094 158.328125 153.851563 157.265625 C 155.609375 157.816406 156.074219 159.902344 154.664063 161.195313 C 152.980469 162.742188 151.035156 163.90625 148.859375 164.625 C 142.714844 166.652344 137.011719 165.785156 131.792969 161.941406 C 131.546875 161.761719 131.414063 161.429688 131.230469 161.171875 "/>
<path style=" stroke:none;fill-rule:nonzero;fill:rgb(7.499695%,3.49884%,3.49884%);fill-opacity:1;" d="M 155.371094 153.378906 C 157.195313 154.25 159.0625 154.773438 161.132813 154.597656 C 165.914063 154.1875 169.800781 149.652344 169.207031 144.878906 C 169.03125 143.476563 168.414063 142.125 168 140.753906 C 168.660156 141.566406 169.527344 142.285156 169.949219 143.207031 C 172.496094 148.734375 169.226563 155.011719 163.234375 156.042969 C 160.476563 156.519531 157.890625 155.871094 155.722656 153.980469 C 155.554688 153.835938 155.484375 153.582031 155.371094 153.378906 "/>
<path style=" stroke:none;fill-rule:nonzero;fill:rgb(7.499695%,3.49884%,3.49884%);fill-opacity:1;" d="M 298.789063 97.976563 C 300.8125 98.6875 302.722656 98.550781 304.398438 97.117188 C 305.898438 95.832031 306.238281 94.128906 305.441406 92.328125 C 305.351563 92.128906 305.300781 91.910156 305.234375 91.703125 C 305.398438 91.75 305.632813 91.746094 305.71875 91.855469 C 306.546875 92.914063 307.519531 93.902344 308.128906 95.078125 C 309.546875 97.8125 307.214844 100.808594 304.113281 101.035156 C 301.664063 101.210938 299.886719 100.175781 298.789063 97.976563 "/>
<path style=" stroke:none;fill-rule:nonzero;fill:rgb(7.499695%,3.49884%,3.49884%);fill-opacity:1;" d="M 173.75 154.40625 L 176.9375 154.40625 C 176.9375 153.054688 176.9375 151.804688 176.9375 150.554688 C 176.9375 148.195313 176.925781 145.835938 176.941406 143.476563 C 176.953125 142.253906 177.675781 141.332031 178.710938 141.132813 C 179.933594 140.902344 180.847656 141.429688 181.367188 142.664063 C 179.152344 142.65625 178.488281 143.3125 178.488281 145.535156 C 178.488281 148.933594 178.488281 152.332031 178.488281 155.828125 L 173.835938 155.828125 C 173.808594 155.402344 173.78125 154.90625 173.75 154.40625 "/>
<path style=" stroke:none;fill-rule:nonzero;fill:rgb(7.499695%,3.49884%,3.49884%);fill-opacity:1;" d="M 243.121094 154.402344 L 246.21875 154.402344 C 246.234375 154.085938 246.261719 153.808594 246.261719 153.535156 C 246.265625 150.171875 246.261719 146.808594 246.269531 143.449219 C 246.269531 142.304688 246.964844 141.371094 247.957031 141.144531 C 249.121094 140.875 250.066406 141.363281 250.617188 142.519531 C 250.464844 142.566406 250.316406 142.640625 250.164063 142.652344 C 248.515625 142.78125 247.792969 143.539063 247.789063 145.199219 C 247.777344 148.375 247.785156 151.554688 247.785156 154.730469 L 247.785156 155.851563 L 243.195313 155.851563 C 243.171875 155.351563 243.144531 154.878906 243.121094 154.402344 "/>
<path style=" stroke:none;fill-rule:nonzero;fill:rgb(7.499695%,3.49884%,3.49884%);fill-opacity:1;" d="M 183.144531 154.59375 C 185.210938 154.726563 186.113281 153.871094 186.113281 151.78125 C 186.117188 149.035156 186.113281 146.285156 186.117188 143.539063 C 186.117188 142.273438 186.828125 141.324219 187.910156 141.132813 C 189.144531 140.910156 190.019531 141.429688 190.542969 142.683594 C 188.429688 142.589844 187.640625 143.332031 187.636719 145.4375 C 187.632813 148.222656 187.648438 151.011719 187.628906 153.796875 C 187.617188 155.046875 186.851563 155.941406 185.710938 156.125 C 184.503906 156.320313 183.582031 155.773438 183.144531 154.59375 "/>
<path style=" stroke:none;fill-rule:nonzero;fill:rgb(7.499695%,3.49884%,3.49884%);fill-opacity:1;" d="M 139.015625 149.21875 C 136.898438 147.707031 136.417969 144.925781 137.925781 142.917969 C 139.453125 140.886719 142.285156 140.464844 144.277344 142.015625 C 145.179688 142.71875 146.109375 142.980469 147.140625 142.433594 C 148.09375 141.921875 148.4375 140.902344 148.1875 139.582031 C 149.273438 140.105469 149.941406 140.9375 149.8125 142.175781 C 149.703125 143.1875 149.105469 143.902344 148.085938 144.175781 C 147.199219 144.414063 146.464844 144.09375 145.753906 143.558594 C 143.171875 141.609375 139.476563 142.847656 138.765625 146.003906 C 138.539063 147.007813 138.914063 148.144531 139.015625 149.21875 "/>
<path style=" stroke:none;fill-rule:nonzero;fill:rgb(7.499695%,3.49884%,3.49884%);fill-opacity:1;" d="M 118.757813 152.824219 C 117.246094 151.730469 116.761719 150.175781 116.933594 148.425781 C 117.136719 146.355469 118.277344 144.886719 120.1875 144.097656 C 120.851563 143.824219 121.621094 143.777344 122.347656 143.691406 C 122.851563 143.628906 123.367188 143.679688 124.03125 143.679688 C 124.03125 142.5625 124.03125 141.542969 124.03125 140.519531 C 124.480469 140.519531 124.929688 140.519531 125.464844 140.519531 L 125.464844 145.21875 C 124.921875 145.21875 124.382813 145.230469 123.847656 145.21875 C 120.191406 145.117188 117.476563 148.859375 118.691406 152.085938 C 118.773438 152.308594 118.738281 152.578125 118.757813 152.824219 "/>
<path style=" stroke:none;fill-rule:nonzero;fill:rgb(7.499695%,3.49884%,3.49884%);fill-opacity:1;" d="M 252.425781 154.597656 C 254.558594 154.71875 255.414063 153.898438 255.414063 151.730469 C 255.414063 149.472656 255.378906 147.210938 255.425781 144.953125 C 255.464844 143.234375 255.378906 141.554688 254.621094 139.972656 C 254.851563 140.105469 255.132813 140.191406 255.296875 140.378906 C 256.367188 141.585938 256.925781 143.03125 256.953125 144.621094 C 257.007813 147.621094 256.980469 150.628906 256.964844 153.632813 C 256.953125 154.914063 256.230469 155.898438 255.203125 156.109375 C 253.914063 156.371094 253.0625 155.910156 252.425781 154.597656 "/>
<path style=" stroke:none;fill-rule:nonzero;fill:rgb(7.499695%,3.49884%,3.49884%);fill-opacity:1;" d="M 192.308594 154.597656 C 194.371094 154.742188 195.265625 153.894531 195.265625 151.78125 C 195.265625 149.515625 195.230469 147.246094 195.277344 144.976563 C 195.3125 143.25 195.230469 141.5625 194.472656 139.972656 C 194.722656 140.125 195.035156 140.230469 195.214844 140.445313 C 196.273438 141.710938 196.792969 143.195313 196.808594 144.828125 C 196.835938 147.777344 196.820313 150.726563 196.8125 153.679688 C 196.808594 154.949219 196.097656 155.875 194.996094 156.105469 C 193.808594 156.351563 192.832031 155.804688 192.308594 154.597656 "/>
<path style=" stroke:none;fill-rule:nonzero;fill:rgb(7.499695%,3.49884%,3.49884%);fill-opacity:1;" d="M 136.675781 153.382813 C 138.144531 153.792969 139.589844 154.398438 141.085938 154.578125 C 143.414063 154.851563 145.527344 154.066406 147.339844 152.558594 C 148.109375 151.917969 148.480469 151.105469 148.230469 150.082031 C 149.878906 150.675781 150.429688 152.609375 149.1875 153.792969 C 145.839844 156.984375 140.175781 156.96875 136.796875 153.722656 C 136.71875 153.648438 136.714844 153.496094 136.675781 153.382813 "/>
<path style=" stroke:none;fill-rule:nonzero;fill:rgb(7.499695%,3.49884%,3.49884%);fill-opacity:1;" d="M 293.578125 100.238281 C 292.324219 99.769531 291.292969 99.085938 290.96875 97.660156 C 290.753906 96.691406 291.089844 95.941406 291.804688 95.34375 C 293.3125 94.097656 295.390625 94.371094 296.570313 95.941406 C 296.917969 96.402344 297.269531 96.855469 297.617188 97.316406 C 296.910156 97.355469 296.171875 97.28125 295.503906 97.464844 C 294.171875 97.835938 293.585938 98.769531 293.578125 100.238281 "/>
<path style=" stroke:none;fill-rule:nonzero;fill:rgb(7.499695%,3.49884%,3.49884%);fill-opacity:1;" d="M 286.765625 107.046875 C 287.355469 107.367188 287.953125 107.675781 288.535156 108.011719 C 290.421875 109.109375 292.585938 109.25 294.621094 109.824219 C 295.808594 110.15625 296.949219 110.738281 298 111.386719 C 298.480469 111.679688 298.691406 112.410156 299.023438 112.941406 C 296.570313 112.277344 294.027344 111.824219 291.695313 110.867188 C 290.039063 110.1875 288.660156 108.832031 287.183594 107.746094 C 286.980469 107.601563 286.902344 107.285156 286.765625 107.046875 "/>
<path style=" stroke:none;fill-rule:nonzero;fill:rgb(7.499695%,3.49884%,3.49884%);fill-opacity:1;" d="M 116.824219 157.460938 C 117.019531 157.507813 117.238281 157.511719 117.410156 157.601563 C 120.542969 159.222656 123.667969 159.1875 126.796875 157.59375 C 126.90625 157.535156 127.023438 157.484375 127.214844 157.394531 C 127.660156 157.898438 128.105469 158.402344 128.546875 158.90625 C 125.761719 160.882813 120.898438 160.757813 118.074219 158.617188 C 117.621094 158.273438 117.238281 157.847656 116.824219 157.460938 "/>
<path style=" stroke:none;fill-rule:nonzero;fill:rgb(7.499695%,3.49884%,3.49884%);fill-opacity:1;" d="M 265.148438 149.261719 C 264.003906 148.789063 263.597656 148.207031 263.589844 147.011719 C 263.578125 144.003906 263.566406 141.003906 263.554688 138 C 264.671875 138.394531 265.097656 138.996094 265.105469 140.253906 C 265.128906 143.257813 265.136719 146.261719 265.148438 149.261719 "/>
<path style=" stroke:none;fill-rule:nonzero;fill:rgb(7.499695%,3.49884%,3.49884%);fill-opacity:1;" d="M 126.691406 137.796875 C 129.03125 137.898438 130.050781 136.496094 129.390625 133.964844 C 129.175781 133.140625 128.742188 132.371094 128.410156 131.578125 C 130.070313 132.246094 131.5625 135.773438 130.953125 137.90625 C 130.714844 138.75 129.660156 139.398438 128.757813 139.371094 C 127.738281 139.339844 127.019531 138.789063 126.691406 137.796875 "/>
<path style=" stroke:none;fill-rule:nonzero;fill:rgb(7.499695%,3.49884%,3.49884%);fill-opacity:1;" d="M 120.71875 138.707031 C 119.441406 137.910156 118.898438 136.753906 119.179688 135.4375 C 119.417969 134.328125 120.472656 133.320313 121.570313 133.152344 C 122.964844 132.933594 124.035156 133.46875 124.703125 134.714844 C 123.058594 134.539063 121.558594 134.769531 120.910156 136.539063 C 120.671875 137.195313 120.769531 137.980469 120.71875 138.707031 "/>
<path style=" stroke:none;fill-rule:nonzero;fill:rgb(99.198914%,98.799133%,98.799133%);fill-opacity:1;" d="M 280.921875 140.742188 C 281.125 140.425781 281.390625 140.128906 281.515625 139.785156 C 281.871094 138.773438 281.382813 137.550781 280.503906 137.125 C 279.675781 136.722656 278.527344 137.03125 278 137.796875 C 277.382813 138.691406 277.496094 139.988281 278.253906 140.730469 C 279 141.460938 279.976563 141.460938 280.9375 140.730469 Z M 276.988281 139.117188 C 276.992188 137.507813 278.070313 136.40625 279.640625 136.414063 C 281.144531 136.417969 282.261719 137.539063 282.277344 139.0625 C 282.296875 140.640625 281.191406 141.796875 279.644531 141.824219 C 278.097656 141.851563 276.988281 140.71875 276.988281 139.117188 "/>
<path style=" stroke:none;fill-rule:nonzero;fill:rgb(7.499695%,3.49884%,3.49884%);fill-opacity:1;" d="M 262.023438 152.90625 C 263.878906 154.027344 265.859375 154.289063 268.050781 153.710938 C 268.050781 154.359375 268.050781 154.953125 268.046875 155.542969 C 266.046875 155.65625 264.242188 155.148438 262.730469 153.789063 C 262.453125 153.542969 262.257813 153.203125 262.023438 152.90625 "/>
<path style=" stroke:none;fill-rule:nonzero;fill:rgb(7.499695%,3.49884%,3.49884%);fill-opacity:1;" d="M 132.179688 155.894531 C 130.707031 154.566406 129.632813 152.96875 128.925781 151.117188 C 129.339844 151.402344 129.898438 151.597656 130.128906 151.988281 C 130.878906 153.25 131.507813 154.585938 132.179688 155.894531 "/>
<path style=" stroke:none;fill-rule:nonzero;fill:rgb(7.499695%,3.49884%,3.49884%);fill-opacity:1;" d="M 223.679688 153.097656 C 223.882813 153.253906 224.085938 153.410156 224.285156 153.570313 C 224.085938 153.410156 223.882813 153.253906 223.679688 153.097656 "/>
<path style=" stroke:none;fill-rule:nonzero;fill:rgb(7.499695%,3.49884%,3.49884%);fill-opacity:1;" d="M 130.550781 160.816406 C 130.777344 160.9375 131.007813 161.054688 131.234375 161.175781 C 131.007813 161.054688 130.777344 160.9375 130.550781 160.816406 "/>
<path style=" stroke:none;fill-rule:nonzero;fill:rgb(7.499695%,3.49884%,3.49884%);fill-opacity:1;" d="M 154.800781 152.96875 C 154.992188 153.109375 155.183594 153.246094 155.375 153.382813 C 155.183594 153.246094 154.992188 153.109375 154.800781 152.96875 "/>
<path style=" stroke:none;fill-rule:nonzero;fill:rgb(7.499695%,3.49884%,3.49884%);fill-opacity:1;" d="M 305.234375 91.703125 C 305.109375 91.53125 304.988281 91.355469 304.867188 91.183594 C 304.988281 91.355469 305.109375 91.53125 305.234375 91.703125 "/>
<path style=" stroke:none;fill-rule:nonzero;fill:rgb(7.499695%,3.49884%,3.49884%);fill-opacity:1;" d="M 273.121094 94.816406 C 272.960938 94.613281 272.796875 94.414063 272.636719 94.210938 C 272.796875 94.414063 272.960938 94.613281 273.121094 94.816406 "/>
<path style=" stroke:none;fill-rule:nonzero;fill:rgb(7.499695%,3.49884%,3.49884%);fill-opacity:1;" d="M 178.320313 123.707031 C 178.523438 123.867188 178.726563 124.03125 178.925781 124.195313 C 178.726563 124.03125 178.523438 123.867188 178.320313 123.707031 "/>
<path style=" stroke:none;fill-rule:nonzero;fill:rgb(7.499695%,3.49884%,3.49884%);fill-opacity:1;" d="M 69.121094 93.0625 C 69.011719 92.925781 68.90625 92.789063 68.796875 92.652344 C 68.90625 92.789063 69.011719 92.925781 69.121094 93.0625 "/>
<path style=" stroke:none;fill-rule:nonzero;fill:rgb(7.499695%,3.49884%,3.49884%);fill-opacity:1;" d="M 136.101563 152.90625 C 136.230469 153.003906 136.359375 153.105469 136.488281 153.203125 C 136.359375 153.105469 136.230469 153.003906 136.101563 152.90625 "/>
<path style=" stroke:none;fill-rule:nonzero;fill:rgb(7.499695%,3.49884%,3.49884%);fill-opacity:1;" d="M 161.78125 95.007813 C 161.707031 94.878906 161.636719 94.746094 161.5625 94.613281 "/>
<path style=" stroke:none;fill-rule:nonzero;fill:rgb(7.499695%,3.49884%,3.49884%);fill-opacity:1;" d="M 307.570313 108.246094 C 307.5 108.113281 307.429688 107.984375 307.359375 107.851563 C 307.429688 107.984375 307.5 108.113281 307.570313 108.246094 "/>
<path style=" stroke:none;fill-rule:nonzero;fill:rgb(7.499695%,3.49884%,3.49884%);fill-opacity:1;" d="M 254.632813 139.976563 C 254.53125 139.839844 254.433594 139.707031 254.335938 139.570313 C 254.433594 139.707031 254.53125 139.839844 254.632813 139.976563 "/>
<path style=" stroke:none;fill-rule:nonzero;fill:rgb(7.499695%,3.49884%,3.49884%);fill-opacity:1;" d="M 194.480469 139.976563 C 194.382813 139.84375 194.28125 139.707031 194.183594 139.570313 C 194.28125 139.707031 194.382813 139.84375 194.480469 139.976563 "/>
<path style=" stroke:none;fill-rule:nonzero;fill:rgb(7.499695%,3.49884%,3.49884%);fill-opacity:1;" d="M 168.003906 140.757813 C 167.90625 140.621094 167.808594 140.484375 167.710938 140.347656 C 167.808594 140.484375 167.90625 140.621094 168.003906 140.757813 "/>
<path style=" stroke:none;fill-rule:nonzero;fill:rgb(7.499695%,3.49884%,3.49884%);fill-opacity:1;" d="M 249.921875 115.425781 C 249.863281 115.363281 249.808594 115.304688 249.753906 115.242188 C 249.808594 115.304688 249.863281 115.363281 249.921875 115.425781 "/>
<path style=" stroke:none;fill-rule:nonzero;fill:rgb(7.499695%,3.49884%,3.49884%);fill-opacity:1;" d="M 249.765625 115.261719 C 249.695313 115.195313 249.625 115.128906 249.558594 115.0625 C 249.625 115.128906 249.695313 115.195313 249.765625 115.261719 "/>
<path style=" stroke:none;fill-rule:nonzero;fill:rgb(7.499695%,3.49884%,3.49884%);fill-opacity:1;" d="M 69.3125 93.261719 C 69.246094 93.191406 69.179688 93.121094 69.113281 93.050781 C 69.179688 93.121094 69.246094 93.191406 69.3125 93.261719 "/>
<path style=" stroke:none;fill-rule:nonzero;fill:rgb(7.499695%,3.49884%,3.49884%);fill-opacity:1;" d="M 114.679688 94.425781 C 114.609375 94.347656 114.542969 94.273438 114.476563 94.195313 C 114.542969 94.273438 114.609375 94.347656 114.679688 94.425781 "/>
<path style=" stroke:none;fill-rule:nonzero;fill:rgb(7.499695%,3.49884%,3.49884%);fill-opacity:1;" d="M 116.621094 157.179688 C 116.691406 157.28125 116.765625 157.378906 116.835938 157.476563 C 116.765625 157.378906 116.691406 157.28125 116.621094 157.179688 "/>
<path style=" stroke:none;fill-rule:nonzero;fill:rgb(7.499695%,3.49884%,3.49884%);fill-opacity:1;" d="M 64.515625 127.789063 C 64.5625 127.828125 64.609375 127.867188 64.660156 127.90625 C 64.621094 127.851563 64.574219 127.8125 64.515625 127.789063 "/>
<path style=" stroke:none;fill-rule:nonzero;fill:rgb(7.499695%,3.49884%,3.49884%);fill-opacity:1;" d="M 114.867188 94.625 C 114.800781 94.554688 114.730469 94.484375 114.664063 94.414063 C 114.730469 94.484375 114.800781 94.554688 114.867188 94.625 "/>
<path style=" stroke:none;fill-rule:nonzero;fill:rgb(7.499695%,3.49884%,3.49884%);fill-opacity:1;" d="M 161.585938 94.632813 C 161.488281 94.558594 161.390625 94.480469 161.292969 94.40625 C 161.390625 94.480469 161.488281 94.558594 161.585938 94.632813 "/>
<path style=" stroke:none;fill-rule:nonzero;fill:rgb(7.499695%,3.49884%,3.49884%);fill-opacity:1;" d="M 136.476563 153.191406 C 136.546875 153.257813 136.617188 153.328125 136.6875 153.394531 C 136.617188 153.328125 136.546875 153.257813 136.476563 153.191406 "/>
<path style=" stroke:none;fill-rule:nonzero;fill:rgb(7.499695%,3.49884%,3.49884%);fill-opacity:1;" d="M 119.105469 153.164063 C 119.050781 153.109375 119 153.054688 118.949219 153 C 119 153.054688 119.050781 153.109375 119.105469 153.164063 "/>
<path style=" stroke:none;fill-rule:nonzero;fill:rgb(7.499695%,3.49884%,3.49884%);fill-opacity:1;" d="M 243.664063 123.640625 C 243.757813 123.695313 243.851563 123.746094 243.949219 123.796875 C 243.851563 123.746094 243.757813 123.695313 243.664063 123.640625 "/>
<path style=" stroke:none;fill-rule:nonzero;fill:rgb(7.499695%,3.49884%,3.49884%);fill-opacity:1;" d="M 118.960938 153.019531 C 118.890625 152.949219 118.820313 152.882813 118.75 152.816406 C 118.820313 152.882813 118.890625 152.949219 118.960938 153.019531 "/>
<path style=" stroke:none;fill-rule:nonzero;fill:rgb(7.499695%,3.49884%,3.49884%);fill-opacity:1;" d="M 60.746094 99.851563 C 60.792969 99.910156 60.835938 99.964844 60.878906 100.023438 C 60.835938 99.964844 60.792969 99.910156 60.746094 99.851563 "/>
<path style=" stroke:none;fill-rule:nonzero;fill:rgb(7.499695%,3.49884%,3.49884%);fill-opacity:1;" d="M 271.960938 116.4375 C 271.90625 116.375 271.855469 116.3125 271.800781 116.25 C 271.855469 116.3125 271.90625 116.375 271.960938 116.4375 "/>
<path style=" stroke:none;fill-rule:nonzero;fill:rgb(7.499695%,3.49884%,3.49884%);fill-opacity:1;" d="M 286.328125 106.679688 C 286.410156 106.746094 286.492188 106.808594 286.574219 106.871094 C 286.492188 106.808594 286.410156 106.746094 286.328125 106.679688 "/>
<path style=" stroke:none;fill-rule:nonzero;fill:rgb(7.499695%,3.49884%,3.49884%);fill-opacity:1;" d="M 286.5625 106.859375 C 286.632813 106.925781 286.703125 106.992188 286.773438 107.058594 C 286.703125 106.992188 286.632813 106.925781 286.5625 106.859375 "/>
<path style=" stroke:none;fill-rule:nonzero;fill:rgb(7.499695%,3.49884%,3.49884%);fill-opacity:1;" d="M 307.386719 107.871094 C 307.300781 107.796875 307.21875 107.71875 307.132813 107.644531 C 307.21875 107.71875 307.300781 107.796875 307.386719 107.871094 "/>
<path style=" stroke:none;fill-rule:nonzero;fill:rgb(99.198914%,98.799133%,98.799133%);fill-opacity:1;" d="M 191.0625 41.757813 C 191.175781 48.472656 188.914063 54.066406 184.5625 58.890625 C 184.757813 58.222656 184.964844 57.554688 185.144531 56.878906 C 185.328125 56.191406 185.535156 55.507813 185.632813 54.808594 C 185.769531 53.816406 185.914063 52.8125 185.878906 51.820313 C 185.832031 50.710938 185.292969 50.492188 184.328125 51.050781 C 172.429688 57.941406 159.773438 62.894531 146.273438 65.527344 C 140.886719 66.578125 135.402344 67.132813 129.960938 67.890625 C 129.355469 67.976563 128.730469 67.921875 128.113281 67.941406 C 126.882813 67.976563 126.539063 68.484375 127.222656 69.523438 C 127.890625 70.546875 128.707031 71.484375 129.558594 72.363281 C 130.363281 73.195313 131.300781 73.898438 132.367188 74.828125 C 125.917969 73.027344 120.945313 69.609375 117.359375 64.023438 C 118.585938 64.179688 119.707031 64.4375 120.828125 64.449219 C 124.289063 64.484375 127.777344 64.664063 131.214844 64.351563 C 140.632813 63.492188 149.789063 61.296875 158.785156 58.410156 C 166.996094 55.777344 174.988281 52.621094 182.464844 48.273438 C 185.519531 46.496094 188.441406 44.527344 191.0625 41.757813 "/>
<path style=" stroke:none;fill-rule:nonzero;fill:rgb(76.899719%,12.89978%,19.599915%);fill-opacity:1;" d="M 199.578125 101.164063 C 202.59375 105.089844 202.109375 110.941406 198.476563 114.511719 C 194.765625 118.15625 188.894531 118.519531 184.953125 115.347656 C 184.878906 115.105469 184.847656 114.84375 184.730469 114.625 C 183.523438 112.359375 183.296875 109.976563 183.78125 107.480469 C 184.765625 102.433594 190.363281 98.585938 195.363281 99.613281 C 196.667969 99.882813 197.925781 100.40625 199.203125 100.808594 L 199.179688 100.792969 C 199.3125 100.914063 199.445313 101.039063 199.578125 101.164063 "/>
<path style=" stroke:none;fill-rule:nonzero;fill:rgb(7.499695%,3.49884%,3.49884%);fill-opacity:1;" d="M 199.203125 100.808594 C 197.925781 100.40625 196.667969 99.882813 195.363281 99.613281 C 190.367188 98.585938 184.765625 102.433594 183.78125 107.480469 C 183.296875 109.976563 183.523438 112.359375 184.730469 114.628906 C 184.847656 114.84375 184.882813 115.105469 184.953125 115.347656 C 179.679688 111.792969 179.476563 103.289063 184.566406 99.207031 C 189.101563 95.570313 195.230469 96.058594 198.996094 100.359375 C 199.097656 100.480469 199.136719 100.660156 199.203125 100.808594 "/>
<path style=" stroke:none;fill-rule:nonzero;fill:rgb(7.499695%,3.49884%,3.49884%);fill-opacity:1;" d="M 199.578125 101.164063 C 199.445313 101.039063 199.3125 100.914063 199.179688 100.792969 C 199.3125 100.914063 199.445313 101.039063 199.578125 101.164063 "/>
<path style=" stroke:none;fill-rule:nonzero;fill:rgb(7.499695%,3.49884%,3.49884%);fill-opacity:1;" d="M 250.890625 102.75 L 246.273438 102.75 C 247.179688 101.539063 247.851563 100.394531 248.75 99.472656 C 253.179688 94.945313 260.683594 95.398438 264.558594 100.375 C 264.65625 100.5 264.710938 100.65625 264.785156 100.796875 C 259.910156 97.667969 253.992188 98.90625 250.890625 102.75 "/>
<path style=" stroke:none;fill-rule:nonzero;fill:rgb(76.899719%,12.89978%,19.599915%);fill-opacity:1;" d="M 250.890625 102.75 C 253.992188 98.90625 259.910156 97.667969 264.785156 100.796875 C 265.179688 101.40625 265.570313 102.015625 266.046875 102.75 "/>
<path style=" stroke:none;fill-rule:nonzero;fill:rgb(76.899719%,12.89978%,19.599915%);fill-opacity:1;" d="M 152.828125 101.121094 C 152.996094 101.261719 153.207031 101.371094 153.324219 101.542969 C 157.386719 107.355469 153.890625 115.992188 146.910156 117.375 C 143.90625 117.96875 141.125 117.460938 138.640625 115.601563 C 138.566406 115.546875 138.488281 115.488281 138.414063 115.433594 L 138.425781 115.449219 C 138.273438 115.03125 138.140625 114.605469 137.964844 114.199219 C 136.453125 110.734375 136.609375 107.308594 138.742188 104.226563 C 142.121094 99.347656 147.621094 98.230469 152.828125 101.121094 "/>
<path style=" stroke:none;fill-rule:nonzero;fill:rgb(7.499695%,3.49884%,3.49884%);fill-opacity:1;" d="M 152.828125 101.121094 C 147.621094 98.230469 142.121094 99.347656 138.742188 104.226563 C 136.609375 107.308594 136.453125 110.734375 137.964844 114.199219 C 138.140625 114.605469 138.273438 115.03125 138.425781 115.449219 C 135.214844 113.085938 133.59375 108.828125 134.589844 104.960938 C 135.664063 100.792969 138.3125 98.066406 142.558594 97.148438 C 146.394531 96.3125 149.699219 97.46875 152.390625 100.324219 C 152.59375 100.535156 152.6875 100.855469 152.828125 101.121094 "/>
<path style=" stroke:none;fill-rule:nonzero;fill:rgb(7.499695%,3.49884%,3.49884%);fill-opacity:1;" d="M 138.414063 115.433594 C 138.488281 115.488281 138.5625 115.546875 138.640625 115.601563 C 138.566406 115.546875 138.488281 115.488281 138.414063 115.433594 "/>
<path style=" stroke:none;fill-rule:nonzero;fill:rgb(76.899719%,12.89978%,19.599915%);fill-opacity:1;" d="M 106.375 101.175781 C 109.382813 105.203125 108.96875 110.933594 105.410156 114.5 C 101.703125 118.214844 96.121094 118.667969 91.953125 115.59375 C 91.855469 115.480469 91.765625 115.367188 91.667969 115.253906 L 91.6875 115.277344 C 91.585938 114.976563 91.507813 114.667969 91.371094 114.382813 C 90.0625 111.601563 89.972656 108.789063 91.128906 105.941406 C 92.734375 101.980469 97.101563 99.039063 101.570313 99.671875 C 103.128906 99.890625 104.628906 100.550781 106.152344 101.007813 L 106.117188 100.992188 C 106.203125 101.054688 106.289063 101.113281 106.375 101.175781 "/>
<path style=" stroke:none;fill-rule:nonzero;fill:rgb(7.499695%,3.49884%,3.49884%);fill-opacity:1;" d="M 106.152344 101.007813 C 104.628906 100.550781 103.128906 99.890625 101.570313 99.671875 C 97.101563 99.039063 92.734375 101.980469 91.128906 105.941406 C 89.972656 108.789063 90.0625 111.601563 91.371094 114.382813 C 91.507813 114.667969 91.585938 114.976563 91.691406 115.277344 C 89.953125 114.238281 88.972656 112.601563 88.289063 110.789063 C 86.515625 106.089844 88.488281 100.789063 92.902344 98.257813 C 97.265625 95.757813 102.894531 96.792969 106.035156 100.675781 C 106.105469 100.761719 106.113281 100.898438 106.152344 101.007813 "/>
<path style=" stroke:none;fill-rule:nonzero;fill:rgb(7.499695%,3.49884%,3.49884%);fill-opacity:1;" d="M 106.375 101.175781 C 106.289063 101.113281 106.203125 101.054688 106.117188 100.992188 C 106.203125 101.054688 106.289063 101.113281 106.375 101.175781 "/>
<path style=" stroke:none;fill-rule:nonzero;fill:rgb(7.499695%,3.49884%,3.49884%);fill-opacity:1;" d="M 91.667969 115.253906 C 91.765625 115.367188 91.855469 115.480469 91.953125 115.59375 C 91.859375 115.480469 91.765625 115.367188 91.667969 115.253906 "/>
<path style=" stroke:none;fill-rule:nonzero;fill:rgb(76.899719%,12.89978%,19.599915%);fill-opacity:1;" d="M 211.496094 143.078125 C 212.699219 144.882813 212.519531 147.128906 211.046875 148.65625 C 209.535156 150.226563 207.363281 150.457031 205.398438 149.261719 C 205.296875 148.957031 205.191406 148.652344 205.097656 148.347656 C 204.367188 145.941406 205.738281 143.308594 208.199219 142.808594 C 209.238281 142.597656 210.394531 142.96875 211.496094 143.078125 "/>
<path style=" stroke:none;fill-rule:nonzero;fill:rgb(7.499695%,3.49884%,3.49884%);fill-opacity:1;" d="M 211.496094 143.078125 C 210.394531 142.96875 209.238281 142.597656 208.199219 142.808594 C 205.738281 143.308594 204.367188 145.941406 205.097656 148.347656 C 205.191406 148.652344 205.296875 148.957031 205.398438 149.261719 C 203.789063 148.160156 203.074219 146.433594 203.453125 144.582031 C 203.789063 142.949219 205.363281 141.421875 206.996094 141.140625 C 208.824219 140.828125 210.570313 141.578125 211.496094 143.078125 "/>
<path style=" stroke:none;fill-rule:nonzero;fill:rgb(76.899719%,12.89978%,19.599915%);fill-opacity:1;" d="M 232.457031 143.082031 C 233.65625 144.960938 233.46875 147.089844 231.96875 148.632813 C 230.449219 150.191406 228.316406 150.398438 226.25 149.183594 C 226.214844 148.996094 226.207031 148.796875 226.140625 148.621094 C 225.449219 146.867188 225.832031 145.289063 227.078125 143.976563 C 228.308594 142.675781 229.878906 142.339844 231.613281 142.816406 C 231.820313 142.875 232.050781 142.855469 232.265625 142.871094 L 232.257813 142.867188 C 232.324219 142.9375 232.390625 143.011719 232.457031 143.082031 "/>
<path style=" stroke:none;fill-rule:nonzero;fill:rgb(7.499695%,3.49884%,3.49884%);fill-opacity:1;" d="M 232.265625 142.871094 C 232.050781 142.855469 231.820313 142.875 231.613281 142.816406 C 229.878906 142.335938 228.308594 142.675781 227.078125 143.976563 C 225.832031 145.289063 225.449219 146.867188 226.140625 148.621094 C 226.207031 148.796875 226.214844 148.996094 226.25 149.183594 C 224.703125 148.046875 224.019531 146.539063 224.40625 144.640625 C 224.785156 142.785156 225.976563 141.570313 227.785156 141.191406 C 229.550781 140.820313 231.175781 141.246094 232.265625 142.871094 "/>
<path style=" stroke:none;fill-rule:nonzero;fill:rgb(7.499695%,3.49884%,3.49884%);fill-opacity:1;" d="M 232.457031 143.082031 C 232.390625 143.011719 232.324219 142.9375 232.257813 142.867188 C 232.324219 142.9375 232.390625 143.011719 232.457031 143.082031 "/>
<path style=" stroke:none;fill-rule:nonzero;fill:rgb(76.899719%,12.89978%,19.599915%);fill-opacity:1;" d="M 163.871094 143.089844 C 165.097656 144.996094 164.878906 147.207031 163.308594 148.746094 C 161.78125 150.238281 159.621094 150.449219 157.8125 149.277344 C 157.769531 149.21875 157.722656 149.164063 157.675781 149.109375 L 157.6875 149.140625 C 157.632813 148.957031 157.59375 148.769531 157.527344 148.59375 C 156.855469 146.773438 157.4375 144.824219 158.964844 143.589844 C 160.503906 142.339844 162.15625 142.488281 163.871094 143.089844 "/>
<path style=" stroke:none;fill-rule:nonzero;fill:rgb(7.499695%,3.49884%,3.49884%);fill-opacity:1;" d="M 163.871094 143.089844 C 162.15625 142.488281 160.503906 142.339844 158.964844 143.589844 C 157.4375 144.824219 156.855469 146.773438 157.527344 148.59375 C 157.59375 148.769531 157.632813 148.957031 157.6875 149.140625 C 154.992188 147.695313 155.082031 143.460938 157.84375 141.738281 C 159.890625 140.464844 162.515625 141.050781 163.871094 143.089844 "/>
<path style=" stroke:none;fill-rule:nonzero;fill:rgb(7.499695%,3.49884%,3.49884%);fill-opacity:1;" d="M 157.675781 149.109375 C 157.722656 149.164063 157.769531 149.21875 157.8125 149.277344 C 157.769531 149.21875 157.722656 149.164063 157.675781 149.109375 "/>
<path style=" stroke:none;fill-rule:nonzero;fill:rgb(76.899719%,12.89978%,19.599915%);fill-opacity:1;" d="M 280.9375 140.730469 C 279.976563 141.464844 279 141.464844 278.253906 140.730469 C 277.496094 139.984375 277.382813 138.691406 278 137.796875 C 278.527344 137.03125 279.675781 136.722656 280.503906 137.128906 C 281.382813 137.550781 281.871094 138.773438 281.515625 139.78125 C 281.390625 140.128906 281.125 140.425781 280.921875 140.742188 C 280.683594 140.324219 280.445313 139.902344 280.210938 139.484375 C 280.289063 139.496094 280.367188 139.511719 280.445313 139.527344 C 280.542969 139.050781 280.871094 138.460938 280.699219 138.128906 C 280.238281 137.25 279.359375 137.765625 278.648438 137.703125 L 278.648438 140.636719 C 278.746094 140.65625 278.84375 140.679688 278.941406 140.703125 C 279.046875 140.261719 279.15625 139.820313 279.246094 139.453125 C 279.835938 139.898438 280.386719 140.3125 280.9375 140.730469 "/>
<path style=" stroke:none;fill-rule:nonzero;fill:rgb(99.198914%,98.799133%,98.799133%);fill-opacity:1;" d="M 280.9375 140.730469 C 280.386719 140.3125 279.835938 139.898438 279.246094 139.453125 C 279.15625 139.820313 279.046875 140.261719 278.941406 140.703125 C 278.84375 140.679688 278.746094 140.65625 278.648438 140.636719 L 278.648438 137.703125 C 279.359375 137.765625 280.238281 137.25 280.699219 138.128906 C 280.871094 138.460938 280.542969 139.050781 280.445313 139.527344 C 280.367188 139.511719 280.289063 139.496094 280.210938 139.484375 C 280.445313 139.902344 280.683594 140.324219 280.921875 140.742188 "/>
</g>
</svg>
