<?xml version="1.0" encoding="UTF-8"?>
<svg xmlns="http://www.w3.org/2000/svg" xmlns:xlink="http://www.w3.org/1999/xlink" width="563pt" height="563pt" viewBox="0 0 563 563" version="1.1">
<g id="surface1">
<path style="fill-rule:evenodd;fill:rgb(64.646912%,11.767578%,16.479492%);fill-opacity:1;stroke-width:2;stroke-linecap:butt;stroke-linejoin:miter;stroke:rgb(0%,0%,0%);stroke-opacity:1;stroke-miterlimit:4;" d="M 2815.351563 5629.726563 C 4365.351563 5629.726563 5629.53125 4365.546875 5629.53125 2815.546875 C 5629.53125 1265.585938 4365.351563 1.40625 2815.351563 1.40625 C 1265.390625 1.40625 1.25 1265.585938 1.25 2815.546875 C 1.25 4365.546875 1265.390625 5629.726563 2815.351563 5629.726563 Z M 2815.351563 5629.726563 " transform="matrix(0.1,0,0,-0.1,0,563)"/>
<path style=" stroke:none;fill-rule:evenodd;fill:rgb(100%,100%,100%);fill-opacity:1;" d="M 108.789063 377.964844 L 95.972656 384.738281 L 95.582031 383.847656 C 99.003906 380.902344 101.097656 377.941406 101.863281 374.972656 C 102.628906 371.996094 102.324219 368.976563 100.953125 365.890625 C 99.800781 363.308594 98.109375 361.269531 95.867188 359.769531 C 93.628906 358.269531 90.816406 357.5625 87.417969 357.644531 C 84.015625 357.726563 80.179688 358.722656 75.921875 360.617188 C 72.410156 362.183594 69.601563 364.097656 67.523438 366.382813 C 65.453125 368.65625 64.226563 371.230469 63.859375 374.113281 C 63.484375 376.988281 63.953125 379.878906 65.246094 382.785156 C 66.371094 385.3125 67.894531 387.292969 69.847656 388.746094 C 71.78125 390.195313 74.871094 391.367188 79.109375 392.246094 L 78.9375 393.390625 C 74.605469 392.984375 71.054688 391.832031 68.296875 389.953125 C 65.53125 388.066406 63.355469 385.339844 61.761719 381.757813 C 58.894531 375.316406 59.058594 369.261719 62.273438 363.597656 C 64.652344 359.382813 68.253906 356.195313 73.070313 354.050781 C 76.945313 352.328125 80.90625 351.609375 84.925781 351.894531 C 88.953125 352.1875 92.535156 353.464844 95.679688 355.710938 C 98.820313 357.972656 101.195313 360.90625 102.800781 364.515625 C 104.054688 367.324219 104.605469 370.410156 104.449219 373.75 C 104.386719 374.742188 104.429688 375.414063 104.585938 375.757813 C 104.808594 376.265625 105.195313 376.632813 105.726563 376.855469 C 106.460938 377.125 107.339844 377.15625 108.34375 376.964844 Z M 119.679688 394.675781 C 122.769531 399.257813 123.714844 404.394531 122.503906 410.101563 C 121.28125 415.808594 118.078125 420.410156 112.878906 423.921875 C 107.511719 427.539063 101.914063 428.84375 96.097656 427.84375 C 90.273438 426.851563 85.742188 423.949219 82.503906 419.144531 C 79.230469 414.296875 78.210938 409.039063 79.421875 403.414063 C 80.652344 397.777344 84.003906 393.113281 89.484375 389.414063 C 95.089844 385.636719 100.941406 384.464844 107.054688 385.886719 C 112.367188 387.136719 116.570313 390.066406 119.679688 394.675781 Z M 117.460938 395.460938 C 115.324219 392.300781 112.445313 390.5625 108.8125 390.230469 C 104.296875 389.824219 99.234375 391.511719 93.609375 395.304688 C 87.847656 399.191406 84.246094 403.417969 82.804688 407.964844 C 81.71875 411.453125 82.222656 414.746094 84.320313 417.855469 C 86.554688 421.167969 89.695313 423.027344 93.734375 423.441406 C 97.777344 423.855469 102.589844 422.191406 108.152344 418.433594 C 114.183594 414.367188 117.882813 410.140625 119.246094 405.757813 C 120.320313 402.253906 119.726563 398.828125 117.460938 395.460938 Z M 135.988281 419.636719 L 123.753906 431.046875 L 129.03125 436.710938 C 130.242188 438.011719 131.425781 438.699219 132.5625 438.769531 C 133.695313 438.839844 135.203125 438.179688 137.09375 436.796875 L 137.882813 437.644531 L 127.351563 447.464844 L 126.5625 446.617188 C 127.753906 445.476563 128.492188 444.496094 128.78125 443.671875 C 129.074219 442.839844 129.109375 442.027344 128.894531 441.234375 C 128.6875 440.445313 128.097656 439.53125 127.128906 438.488281 L 121.84375 432.824219 L 112.066406 441.941406 C 110.492188 443.410156 109.535156 444.476563 109.226563 445.148438 C 108.980469 445.652344 108.949219 446.285156 109.136719 447.03125 C 109.398438 448.050781 109.859375 448.921875 110.546875 449.660156 L 111.597656 450.785156 L 110.753906 451.578125 L 98.292969 438.21875 L 99.140625 437.429688 L 100.164063 438.523438 C 101.359375 439.808594 102.613281 440.398438 103.90625 440.277344 C 104.738281 440.191406 106.089844 439.269531 107.953125 437.53125 L 128.066406 418.773438 C 129.640625 417.304688 130.589844 416.230469 130.90625 415.570313 C 131.144531 415.054688 131.179688 414.433594 131.019531 413.707031 C 130.773438 412.707031 130.296875 411.832031 129.59375 411.082031 L 128.570313 409.984375 L 129.425781 409.1875 L 151.023438 432.347656 L 144.464844 439.027344 L 143.710938 438.21875 C 144.796875 436.476563 145.421875 435.011719 145.609375 433.851563 C 145.804688 432.691406 145.691406 431.578125 145.273438 430.519531 C 144.855469 429.457031 143.898438 428.121094 142.386719 426.5 Z M 162.273438 442.808594 L 152.203125 456.171875 L 158.390625 460.832031 C 159.808594 461.90625 161.09375 462.375 162.222656 462.246094 C 163.351563 462.117188 164.722656 461.207031 166.34375 459.515625 L 167.269531 460.214844 L 158.601563 471.710938 L 157.679688 471.015625 C 158.65625 469.6875 159.214844 468.589844 159.351563 467.730469 C 159.496094 466.859375 159.390625 466.054688 159.046875 465.308594 C 158.699219 464.570313 157.964844 463.769531 156.824219 462.914063 L 150.636719 458.25 L 142.589844 468.929688 C 141.296875 470.648438 140.539063 471.863281 140.347656 472.578125 C 140.195313 473.121094 140.277344 473.746094 140.589844 474.453125 C 141.023438 475.40625 141.628906 476.1875 142.433594 476.792969 L 143.664063 477.71875 L 142.96875 478.644531 L 128.378906 467.652344 L 129.078125 466.726563 L 130.273438 467.632813 C 131.679688 468.6875 133.015625 469.050781 134.265625 468.707031 C 135.070313 468.480469 136.238281 467.335938 137.773438 465.300781 L 154.324219 443.335938 C 155.621094 441.613281 156.367188 440.394531 156.566406 439.683594 C 156.714844 439.136719 156.640625 438.519531 156.351563 437.832031 C 155.9375 436.890625 155.3125 436.113281 154.492188 435.492188 L 153.296875 434.589844 L 154.003906 433.65625 L 179.289063 452.714844 L 173.988281 460.433594 L 173.105469 459.765625 C 173.871094 457.863281 174.234375 456.3125 174.222656 455.136719 C 174.214844 453.957031 173.90625 452.882813 173.308594 451.914063 C 172.714844 450.941406 171.539063 449.789063 169.769531 448.453125 Z M 191.199219 460.660156 L 184.089844 475.90625 L 192.566406 479.859375 C 194.769531 480.886719 196.390625 481.238281 197.4375 480.921875 C 198.839844 480.511719 200.09375 479.230469 201.238281 477.082031 L 202.289063 477.570313 L 196.023438 491 L 194.976563 490.507813 C 195.589844 488.511719 195.878906 487.183594 195.863281 486.527344 C 195.835938 485.707031 195.511719 484.921875 194.914063 484.179688 C 194.3125 483.4375 193.210938 482.6875 191.597656 481.9375 L 183.121094 477.984375 L 177.1875 490.703125 C 176.394531 492.414063 175.984375 493.488281 175.964844 493.921875 C 175.941406 494.367188 176.070313 494.777344 176.34375 495.179688 C 176.621094 495.570313 177.300781 496.015625 178.359375 496.507813 L 184.902344 499.5625 C 187.078125 500.574219 188.738281 501.171875 189.867188 501.320313 C 190.996094 501.480469 192.214844 501.328125 193.546875 500.859375 C 195.265625 500.230469 197.296875 499.015625 199.636719 497.222656 L 200.773438 497.753906 L 192.941406 505.875 L 163.214844 492.007813 L 163.699219 490.960938 L 165.070313 491.601563 C 165.96875 492.019531 166.941406 492.199219 167.960938 492.144531 C 168.714844 492.128906 169.335938 491.863281 169.839844 491.363281 C 170.339844 490.851563 171.023438 489.660156 171.894531 487.785156 L 183.585938 462.722656 C 184.722656 460.277344 185.179688 458.660156 184.953125 457.855469 C 184.628906 456.78125 183.671875 455.871094 182.074219 455.128906 L 180.703125 454.492188 L 181.199219 453.433594 L 210.929688 467.296875 L 207.421875 475.941406 L 206.300781 475.421875 C 206.851563 473.207031 207.0625 471.617188 206.929688 470.632813 C 206.796875 469.648438 206.359375 468.734375 205.59375 467.894531 C 204.96875 467.257813 203.695313 466.488281 201.78125 465.597656 Z M 221.429688 473.1875 L 216.796875 489.355469 L 225.785156 491.933594 C 228.128906 492.605469 229.777344 492.703125 230.761719 492.226563 C 232.078125 491.601563 233.121094 490.136719 233.914063 487.835938 L 235.027344 488.152344 L 230.945313 502.398438 L 229.835938 502.078125 C 230.121094 500.011719 230.199219 498.652344 230.089844 498.007813 C 229.925781 497.203125 229.488281 496.476563 228.777344 495.835938 C 228.070313 495.199219 226.863281 494.628906 225.152344 494.140625 L 216.164063 491.5625 L 212.296875 505.054688 C 211.773438 506.867188 211.539063 507.992188 211.585938 508.425781 C 211.636719 508.867188 211.824219 509.253906 212.160156 509.605469 C 212.496094 509.945313 213.234375 510.28125 214.355469 510.605469 L 221.296875 512.59375 C 223.605469 513.257813 225.339844 513.585938 226.472656 513.554688 C 227.617188 513.535156 228.796875 513.195313 230.035156 512.523438 C 231.636719 511.636719 233.460938 510.117188 235.484375 507.980469 L 236.691406 508.324219 L 230.226563 517.574219 L 198.691406 508.53125 L 199.011719 507.417969 L 200.464844 507.835938 C 201.421875 508.109375 202.40625 508.132813 203.402344 507.917969 C 204.144531 507.785156 204.714844 507.425781 205.132813 506.855469 C 205.546875 506.273438 206.039063 504.988281 206.609375 502.996094 L 214.230469 476.417969 C 214.976563 473.820313 215.175781 472.152344 214.824219 471.394531 C 214.335938 470.382813 213.242188 469.636719 211.554688 469.152344 L 210.101563 468.734375 L 210.421875 467.613281 L 241.964844 476.65625 L 239.84375 485.746094 L 238.65625 485.40625 C 238.851563 483.132813 238.8125 481.527344 238.527344 480.578125 C 238.242188 479.625 237.671875 478.792969 236.78125 478.082031 C 236.0625 477.550781 234.6875 476.988281 232.65625 476.410156 Z M 291.671875 479.511719 L 292.140625 494 L 291.164063 493.96875 C 290.019531 489.597656 288.277344 486.417969 285.945313 484.425781 C 283.601563 482.4375 280.753906 481.382813 277.382813 481.265625 C 274.554688 481.167969 271.980469 481.796875 269.652344 483.152344 C 267.320313 484.503906 265.453125 486.722656 264.035156 489.816406 C 262.621094 492.90625 261.835938 496.792969 261.671875 501.453125 C 261.535156 505.292969 262.027344 508.65625 263.171875 511.527344 C 264.304688 514.386719 266.085938 516.613281 268.515625 518.210938 C 270.933594 519.804688 273.734375 520.652344 276.914063 520.765625 C 279.675781 520.859375 282.128906 520.355469 284.289063 519.242188 C 286.441406 518.140625 288.84375 515.875 291.496094 512.453125 L 292.445313 513.105469 C 290.183594 516.820313 287.59375 519.507813 284.695313 521.164063 C 281.785156 522.820313 278.378906 523.582031 274.464844 523.445313 C 267.414063 523.199219 262.046875 520.394531 258.363281 515.023438 C 255.621094 511.039063 254.339844 506.402344 254.519531 501.136719 C 254.671875 496.894531 255.753906 493.019531 257.777344 489.535156 C 259.804688 486.042969 262.523438 483.386719 265.921875 481.539063 C 269.335938 479.710938 273.007813 478.863281 276.960938 479 C 280.03125 479.105469 283.046875 479.964844 285.980469 481.566406 C 286.839844 482.058594 287.464844 482.316406 287.839844 482.328125 C 288.398438 482.347656 288.898438 482.160156 289.328125 481.78125 C 289.894531 481.242188 290.308594 480.464844 290.578125 479.476563 Z M 312.378906 476.882813 C 317.863281 476.207031 322.871094 477.699219 327.402344 481.371094 C 331.933594 485.046875 334.585938 489.988281 335.347656 496.222656 C 336.136719 502.644531 334.757813 508.222656 331.226563 512.949219 C 327.699219 517.691406 323.054688 520.410156 317.300781 521.117188 C 311.496094 521.828125 306.347656 520.355469 301.886719 516.714844 C 297.421875 513.0625 294.789063 507.957031 293.984375 501.398438 C 293.160156 494.6875 294.773438 488.941406 298.8125 484.136719 C 302.339844 479.972656 306.859375 477.558594 312.378906 476.882813 Z M 312.070313 479.21875 C 308.285156 479.683594 305.425781 481.457031 303.484375 484.546875 C 301.074219 488.382813 300.277344 493.660156 301.101563 500.394531 C 301.949219 507.296875 304.078125 512.421875 307.480469 515.769531 C 310.09375 518.320313 313.253906 519.367188 316.976563 518.910156 C 320.945313 518.421875 324.027344 516.46875 326.230469 513.058594 C 328.433594 509.644531 329.132813 504.605469 328.316406 497.9375 C 327.429688 490.71875 325.339844 485.5 322.054688 482.296875 C 319.421875 479.75 316.101563 478.722656 312.070313 479.21875 Z M 365.328125 507.097656 L 337.140625 479.554688 L 347.339844 506.109375 C 348.269531 508.550781 349.117188 509.96875 349.878906 510.378906 C 350.914063 510.921875 352.222656 510.890625 353.78125 510.292969 L 355.183594 509.753906 L 355.597656 510.832031 L 341.773438 516.140625 L 341.359375 515.058594 L 342.761719 514.523438 C 344.441406 513.878906 345.4375 512.910156 345.753906 511.617188 C 345.945313 510.832031 345.605469 509.320313 344.753906 507.101563 L 334.789063 481.132813 C 334.109375 479.375 333.433594 478.175781 332.742188 477.546875 C 332.246094 477.082031 331.566406 476.804688 330.6875 476.707031 C 329.804688 476.609375 328.558594 476.871094 326.9375 477.492188 L 326.519531 476.402344 L 337.773438 472.082031 L 364.121094 497.644531 L 366.367188 461.105469 L 377.621094 456.785156 L 378.039063 457.875 L 376.660156 458.40625 C 374.964844 459.058594 373.953125 460.027344 373.640625 461.308594 C 373.453125 462.101563 373.777344 463.609375 374.636719 465.839844 L 384.601563 491.804688 C 385.539063 494.246094 386.402344 495.65625 387.1875 496.058594 C 388.222656 496.601563 389.519531 496.574219 391.085938 495.972656 L 392.464844 495.441406 L 392.878906 496.523438 L 375.992188 503.003906 L 375.578125 501.925781 L 376.988281 501.382813 C 378.6875 500.730469 379.683594 499.765625 379.980469 498.476563 C 380.171875 497.691406 379.835938 496.183594 378.980469 493.960938 L 368.789063 467.40625 L 366.300781 506.726563 Z M 398.996094 468.207031 L 405.929688 478.484375 C 407.425781 480.703125 408.605469 481.914063 409.460938 482.125 C 410.632813 482.445313 411.882813 482.15625 413.214844 481.257813 L 414.574219 480.34375 L 415.222656 481.300781 L 400.105469 491.496094 L 399.460938 490.539063 L 400.78125 489.644531 C 402.273438 488.636719 403.011719 487.433594 402.996094 486.03125 C 402.976563 485.257813 402.296875 483.859375 400.9375 481.851563 L 385.558594 459.050781 C 384.0625 456.832031 382.902344 455.609375 382.070313 455.394531 C 380.882813 455.085938 379.613281 455.386719 378.277344 456.285156 L 376.960938 457.179688 L 376.300781 456.207031 L 389.234375 447.484375 C 392.390625 445.359375 395.097656 444.011719 397.355469 443.429688 C 399.621094 442.84375 401.890625 442.917969 404.1875 443.617188 C 406.484375 444.316406 408.339844 445.726563 409.761719 447.84375 C 411.703125 450.71875 412.339844 453.707031 411.652344 456.789063 C 410.96875 459.875 408.894531 462.589844 405.421875 464.933594 C 404.585938 465.503906 403.613281 466.0625 402.546875 466.601563 C 401.472656 467.144531 400.289063 467.6875 398.996094 468.207031 Z M 398.003906 466.722656 C 399.035156 466.269531 399.941406 465.851563 400.714844 465.460938 C 401.476563 465.0625 402.109375 464.699219 402.617188 464.359375 C 404.421875 463.140625 405.507813 461.398438 405.878906 459.109375 C 406.242188 456.835938 405.679688 454.585938 404.183594 452.367188 C 403.152344 450.839844 401.882813 449.628906 400.382813 448.742188 C 398.863281 447.851563 397.328125 447.46875 395.742188 447.59375 C 394.15625 447.710938 392.632813 448.269531 391.175781 449.25 C 390.296875 449.84375 389.265625 450.773438 388.09375 452.042969 Z M 437.414063 445.976563 L 424.976563 456.789063 L 427.210938 463.75 C 427.753906 465.464844 428.296875 466.625 428.835938 467.25 C 429.253906 467.734375 429.863281 467.957031 430.644531 467.929688 C 431.4375 467.894531 432.652344 467.265625 434.300781 466.027344 L 435.0625 466.902344 L 424.945313 475.695313 L 424.1875 474.824219 C 425.316406 473.414063 425.921875 472.351563 425.984375 471.628906 C 426.136719 470.175781 425.683594 467.855469 424.644531 464.683594 L 412.972656 428.425781 L 413.796875 427.707031 L 448.203125 444.703125 C 450.96875 446.074219 452.996094 446.753906 454.285156 446.753906 C 455.578125 446.753906 456.921875 446.226563 458.300781 445.167969 L 459.058594 446.039063 L 446.382813 457.0625 L 445.621094 456.1875 C 446.84375 455.011719 447.519531 454.042969 447.65625 453.285156 C 447.800781 452.535156 447.640625 451.894531 447.179688 451.371094 C 446.578125 450.671875 445.304688 449.863281 443.367188 448.90625 Z M 435.226563 444.796875 L 418.492188 436.558594 L 424.1875 454.394531 Z M 425.355469 419.632813 L 432.464844 410.53125 L 473.644531 409.679688 L 454.304688 394.566406 C 452.242188 392.957031 450.765625 392.1875 449.90625 392.246094 C 448.730469 392.324219 447.632813 393.015625 446.605469 394.332031 L 445.695313 395.496094 L 444.773438 394.777344 L 453.894531 383.101563 L 454.816406 383.820313 L 453.886719 385.011719 C 452.777344 386.429688 452.421875 387.769531 452.816406 389.027344 C 453.0625 389.804688 454.128906 390.917969 456.003906 392.390625 L 484.269531 414.472656 L 483.570313 415.367188 L 439.289063 416.378906 L 459.949219 432.519531 C 462.007813 434.128906 463.464844 434.910156 464.328125 434.867188 C 465.507813 434.78125 466.613281 434.082031 467.628906 432.78125 L 468.550781 431.601563 L 469.464844 432.3125 L 460.347656 443.980469 L 459.4375 443.269531 L 460.339844 442.109375 C 461.464844 440.675781 461.824219 439.328125 461.429688 438.054688 C 461.191406 437.28125 460.121094 436.160156 458.246094 434.699219 L 434.921875 416.472656 C 433.019531 416.550781 431.691406 416.710938 430.9375 416.921875 C 430.179688 417.144531 429.265625 417.617188 428.195313 418.34375 C 427.679688 418.714844 427.035156 419.378906 426.277344 420.351563 Z M 465.914063 354.875 L 471.953125 341.3125 L 473.023438 341.785156 L 472.691406 342.53125 C 472.46875 343.027344 472.359375 343.851563 472.378906 345.003906 C 472.390625 346.148438 472.632813 347.300781 473.105469 348.449219 C 473.578125 349.597656 474.488281 351.164063 475.839844 353.136719 L 486.421875 369.085938 L 496.179688 373.429688 C 498.566406 374.492188 500.171875 374.890625 501.007813 374.617188 C 502.136719 374.25 503.046875 373.285156 503.742188 371.71875 L 504.304688 370.457031 L 505.363281 370.925781 L 498.011719 387.4375 L 496.953125 386.96875 L 497.566406 385.597656 C 498.296875 383.953125 498.320313 382.554688 497.628906 381.425781 C 497.210938 380.734375 495.898438 379.90625 493.726563 378.9375 L 484.515625 374.839844 L 463.480469 378.257813 C 461.011719 378.660156 459.4375 378.988281 458.757813 379.226563 C 458.074219 379.460938 457.089844 380.136719 455.796875 381.246094 C 455.425781 381.542969 455.089844 382.0625 454.769531 382.785156 L 453.699219 382.3125 L 461.101563 365.683594 L 462.171875 366.15625 L 461.789063 367.019531 C 461.386719 367.917969 461.226563 368.832031 461.3125 369.773438 C 461.390625 370.722656 461.863281 371.378906 462.703125 371.753906 C 463.386719 372.058594 464.890625 372.035156 467.203125 371.65625 L 483.355469 369.128906 L 474.757813 356.164063 C 473.46875 354.21875 472.394531 353.046875 471.511719 352.65625 C 470.972656 352.414063 470.433594 352.339844 469.886719 352.433594 C 469.34375 352.519531 468.84375 352.777344 468.371094 353.179688 C 467.90625 353.59375 467.445313 354.3125 466.980469 355.351563 Z M 493.617188 298.574219 C 499.460938 298.574219 504.222656 303.339844 504.222656 309.179688 C 504.222656 315.019531 499.460938 319.78125 493.617188 319.78125 C 487.777344 319.78125 483.011719 315.019531 483.011719 309.179688 C 483.011719 303.339844 487.777344 298.574219 493.617188 298.574219 Z M 70.269531 298.574219 C 76.109375 298.574219 80.878906 303.339844 80.878906 309.179688 C 80.878906 315.019531 76.109375 319.78125 70.269531 319.78125 C 64.429688 319.78125 59.667969 315.019531 59.667969 309.179688 C 59.667969 303.339844 64.429688 298.574219 70.269531 298.574219 Z M 281.535156 109.332031 C 376.335938 109.332031 453.648438 186.648438 453.648438 281.445313 C 453.648438 376.242188 376.335938 453.558594 281.535156 453.558594 C 186.742188 453.558594 109.425781 376.242188 109.425781 281.445313 C 109.425781 186.648438 186.742188 109.332031 281.535156 109.332031 Z M 281.535156 16.34375 C 427.546875 16.34375 546.636719 135.433594 546.636719 281.445313 C 546.636719 427.457031 427.546875 546.546875 281.535156 546.546875 C 135.523438 546.546875 16.433594 427.457031 16.433594 281.445313 C 16.433594 135.433594 135.523438 16.34375 281.535156 16.34375 Z M 491.820313 240.800781 L 506.761719 229.636719 L 488.285156 226.613281 Z M 489.777344 242.21875 L 485.796875 226.230469 L 478.578125 225.058594 C 476.804688 224.761719 475.519531 224.714844 474.722656 224.914063 C 474.097656 225.070313 473.621094 225.507813 473.296875 226.21875 C 472.964844 226.941406 472.972656 228.308594 473.324219 230.339844 L 472.203125 230.621094 L 468.964844 217.617188 L 470.085938 217.335938 C 470.824219 218.984375 471.496094 220 472.113281 220.386719 C 473.339844 221.183594 475.609375 221.832031 478.90625 222.347656 L 516.511719 228.40625 L 516.777344 229.46875 L 486.015625 252.40625 C 483.539063 254.25 482.011719 255.746094 481.425781 256.898438 C 480.839844 258.050781 480.703125 259.484375 481.015625 261.195313 L 479.894531 261.476563 L 475.835938 245.175781 L 476.953125 244.894531 C 477.445313 246.519531 478.003906 247.558594 478.617188 248.027344 C 479.21875 248.492188 479.863281 248.640625 480.539063 248.472656 C 481.433594 248.25 482.734375 247.484375 484.464844 246.191406 Z M 468.796875 215.164063 L 467.722656 215.597656 L 460.886719 198.679688 L 461.964844 198.246094 L 462.523438 199.648438 C 463.183594 201.277344 464.136719 202.265625 465.390625 202.617188 C 466.191406 202.835938 467.789063 202.46875 470.152344 201.511719 L 495.652344 191.210938 C 497.652344 190.402344 498.921875 189.738281 499.453125 189.234375 C 499.863281 188.839844 500.117188 188.273438 500.222656 187.535156 C 500.34375 186.496094 500.214844 185.507813 499.839844 184.574219 L 499.269531 183.175781 L 500.351563 182.734375 L 507.1875 199.652344 L 506.105469 200.089844 L 505.527344 198.660156 C 504.878906 197.050781 503.925781 196.070313 502.6875 195.71875 C 501.863281 195.484375 500.273438 195.835938 497.910156 196.792969 L 472.40625 207.09375 C 470.414063 207.902344 469.144531 208.5625 468.609375 209.070313 C 468.203125 209.464844 467.949219 210.039063 467.851563 210.796875 C 467.71875 211.820313 467.839844 212.800781 468.214844 213.734375 Z M 469.570313 189.152344 L 469.894531 190.164063 L 458.070313 192.785156 L 441.59375 164.246094 L 442.597656 163.667969 L 443.398438 165.058594 C 444.300781 166.617188 445.449219 167.433594 446.847656 167.519531 C 447.652344 167.5625 449.105469 166.972656 451.203125 165.761719 L 474.992188 152.027344 C 477.296875 150.699219 478.589844 149.617188 478.867188 148.773438 C 479.257813 147.605469 479.050781 146.328125 478.253906 144.9375 L 477.445313 143.546875 L 478.460938 142.960938 L 488.09375 159.652344 L 487.085938 160.238281 C 485.96875 158.269531 485.003906 156.996094 484.164063 156.429688 C 483.328125 155.859375 482.535156 155.597656 481.785156 155.648438 C 481.046875 155.695313 479.566406 156.351563 477.378906 157.613281 L 454.21875 170.984375 C 452.714844 171.851563 451.769531 172.59375 451.371094 173.207031 C 451.113281 173.640625 451.027344 174.136719 451.105469 174.699219 C 451.191406 175.253906 451.914063 176.71875 453.285156 179.09375 L 454.839844 181.785156 C 456.472656 184.617188 457.820313 186.484375 458.898438 187.382813 C 459.976563 188.285156 461.316406 188.894531 462.921875 189.230469 C 464.519531 189.554688 466.746094 189.53125 469.570313 189.152344 Z M 440.410156 138.714844 L 447.765625 121.574219 L 430.253906 128.195313 Z M 439.347656 140.960938 L 427.902344 129.109375 L 421.066406 131.699219 C 419.382813 132.332031 418.253906 132.933594 417.65625 133.503906 C 417.195313 133.953125 417.003906 134.570313 417.070313 135.351563 C 417.148438 136.140625 417.839844 137.320313 419.160156 138.902344 L 418.328125 139.707031 L 409.019531 130.066406 L 409.851563 129.261719 C 411.316406 130.316406 412.40625 130.859375 413.132813 130.886719 C 414.59375 130.96875 416.886719 130.394531 419.996094 129.191406 L 455.597656 115.632813 L 456.355469 116.421875 L 441.183594 151.667969 C 439.964844 154.503906 439.386719 156.5625 439.460938 157.851563 C 439.523438 159.140625 440.121094 160.457031 441.253906 161.777344 L 440.421875 162.582031 L 428.753906 150.496094 L 429.585938 149.691406 C 430.820313 150.851563 431.824219 151.476563 432.589844 151.570313 C 433.34375 151.675781 433.972656 151.480469 434.476563 151 C 435.136719 150.359375 435.878906 149.046875 436.734375 147.058594 Z M 435.859375 96.246094 L 430.519531 104.695313 L 429.539063 104.007813 C 430.359375 102.4375 430.824219 101.234375 430.929688 100.375 C 431.09375 99.015625 430.894531 97.789063 430.347656 96.703125 C 429.796875 95.609375 428.800781 94.558594 427.363281 93.550781 L 422.449219 90.109375 L 403.796875 116.753906 C 402.296875 118.894531 401.597656 120.394531 401.675781 121.25 C 401.824219 122.425781 402.578125 123.492188 403.929688 124.4375 L 405.140625 125.285156 L 404.480469 126.234375 L 389.691406 115.878906 L 390.355469 114.933594 L 391.589844 115.796875 C 393.066406 116.832031 394.425781 117.113281 395.664063 116.648438 C 396.421875 116.367188 397.496094 115.25 398.859375 113.300781 L 417.515625 86.65625 L 413.320313 83.71875 C 411.699219 82.582031 410.453125 81.894531 409.601563 81.652344 C 408.480469 81.347656 407.273438 81.445313 405.996094 81.925781 C 404.714844 82.414063 403.464844 83.394531 402.234375 84.890625 L 401.261719 84.207031 L 407.398438 76.316406 Z M 379.703125 108.753906 L 379.175781 109.785156 L 362.921875 101.5 L 363.445313 100.472656 L 364.789063 101.15625 C 366.355469 101.953125 367.726563 102.074219 368.902344 101.519531 C 369.648438 101.15625 370.613281 99.832031 371.773438 97.558594 L 384.257813 73.054688 C 385.234375 71.136719 385.757813 69.800781 385.835938 69.070313 C 385.878906 68.503906 385.699219 67.910156 385.296875 67.28125 C 384.703125 66.414063 383.960938 65.757813 383.058594 65.300781 L 381.714844 64.617188 L 382.246094 63.574219 L 398.503906 71.859375 L 397.972656 72.898438 L 396.597656 72.199219 C 395.050781 71.410156 393.691406 71.292969 392.523438 71.84375 C 391.746094 72.207031 390.777344 73.515625 389.621094 75.789063 L 377.136719 100.292969 C 376.160156 102.210938 375.636719 103.542969 375.5625 104.277344 C 375.515625 104.839844 375.703125 105.441406 376.128906 106.078125 C 376.699219 106.933594 377.429688 107.597656 378.328125 108.054688 Z M 358.128906 70.273438 L 358.652344 68.894531 C 361.121094 68.476563 362.921875 67.890625 364.035156 67.128906 C 364.828125 66.582031 365.433594 65.792969 365.828125 64.761719 C 366.0625 64.152344 366.128906 63.660156 366.015625 63.285156 C 365.898438 62.90625 365.703125 62.660156 365.425781 62.554688 C 365.214844 62.472656 364.898438 62.429688 364.496094 62.4375 C 363.921875 62.410156 363.464844 62.339844 363.132813 62.210938 C 362.355469 61.914063 361.773438 61.359375 361.390625 60.535156 C 361.015625 59.714844 360.988281 58.863281 361.324219 57.984375 C 361.699219 57.015625 362.300781 56.371094 363.113281 56.054688 C 364.214844 55.628906 365.339844 55.632813 366.46875 56.066406 C 367.777344 56.570313 368.746094 57.574219 369.367188 59.074219 C 369.992188 60.578125 369.984375 62.15625 369.355469 63.796875 C 368.46875 66.097656 366.796875 67.863281 364.324219 69.097656 C 362.695313 69.90625 360.628906 70.292969 358.128906 70.273438 Z M 309.171875 82.691406 C 311.6875 83.734375 313.835938 84.40625 315.601563 84.71875 C 320.382813 85.558594 324.644531 84.582031 328.394531 81.773438 C 332.140625 78.976563 334.527344 74.695313 335.546875 68.945313 C 336.5625 63.164063 335.78125 58.316406 333.21875 54.425781 C 330.652344 50.523438 326.902344 48.144531 321.960938 47.273438 C 320.097656 46.945313 317.9375 46.867188 315.460938 47.050781 Z M 296.683594 83.613281 L 296.882813 82.472656 L 298.460938 82.75 C 300.230469 83.0625 301.589844 82.714844 302.523438 81.703125 C 303.097656 81.109375 303.601563 79.621094 304.015625 77.257813 L 308.796875 50.171875 C 309.253906 47.554688 309.246094 45.867188 308.796875 45.113281 C 308.152344 44.066406 307.027344 43.402344 305.445313 43.121094 L 303.871094 42.84375 L 304.074219 41.691406 L 321.136719 44.699219 C 327.394531 45.804688 332.035156 47.363281 335.058594 49.351563 C 338.066406 51.351563 340.273438 54.191406 341.683594 57.855469 C 343.085938 61.527344 343.410156 65.535156 342.644531 69.882813 C 341.613281 75.71875 338.980469 80.277344 334.746094 83.566406 C 330.003906 87.234375 323.546875 88.347656 315.410156 86.914063 Z M 251.464844 44.832031 C 247.679688 45.296875 244.820313 47.070313 242.878906 50.160156 C 240.46875 53.996094 239.671875 59.273438 240.496094 66.007813 C 241.34375 72.90625 243.476563 78.03125 246.878906 81.382813 C 249.488281 83.929688 252.648438 84.980469 256.371094 84.523438 C 260.339844 84.035156 263.421875 82.082031 265.628906 78.667969 C 267.828125 75.257813 268.527344 70.21875 267.714844 63.550781 C 266.824219 56.328125 264.734375 51.113281 261.449219 47.910156 C 258.816406 45.363281 255.496094 44.335938 251.464844 44.832031 Z M 251.769531 42.492188 C 257.257813 41.820313 262.265625 43.3125 266.796875 46.984375 C 271.328125 50.660156 273.976563 55.601563 274.742188 61.832031 C 275.53125 68.257813 274.152344 73.835938 270.621094 78.5625 C 267.09375 83.304688 262.449219 86.019531 256.695313 86.726563 C 250.890625 87.441406 245.742188 85.96875 241.28125 82.328125 C 236.816406 78.675781 234.183594 73.570313 233.378906 67.007813 C 232.554688 60.300781 234.171875 54.554688 238.214844 49.75 C 241.734375 45.582031 246.253906 43.171875 251.769531 42.492188 Z M 173.847656 65.84375 L 184.632813 61.703125 L 220.371094 82.183594 L 211.574219 59.269531 C 210.636719 56.828125 209.769531 55.40625 208.996094 55.011719 C 207.953125 54.472656 206.65625 54.5 205.09375 55.101563 L 203.714844 55.628906 L 203.296875 54.539063 L 217.128906 49.230469 L 217.546875 50.320313 L 216.136719 50.863281 C 214.460938 51.507813 213.464844 52.472656 213.148438 53.75 C 212.964844 54.546875 213.296875 56.046875 214.152344 58.277344 L 227.007813 91.765625 L 225.945313 92.171875 L 187.46875 70.230469 L 196.867188 94.707031 C 197.800781 97.148438 198.644531 98.566406 199.410156 98.976563 C 200.464844 99.511719 201.773438 99.480469 203.3125 98.886719 L 204.714844 98.347656 L 205.128906 99.429688 L 191.304688 104.738281 L 190.890625 103.65625 L 192.261719 103.128906 C 193.964844 102.476563 194.964844 101.507813 195.285156 100.214844 C 195.476563 99.429688 195.136719 97.917969 194.285156 95.695313 L 183.675781 68.058594 C 182.007813 67.152344 180.785156 66.601563 180.03125 66.398438 C 179.265625 66.195313 178.242188 66.132813 176.949219 66.199219 C 176.3125 66.25 175.421875 66.492188 174.269531 66.933594 Z M 153.699219 102.863281 C 154.046875 102.648438 154.339844 102.46875 154.589844 102.324219 C 154.839844 102.179688 155.050781 102.054688 155.210938 101.960938 C 158.648438 99.808594 160.78125 97.441406 161.597656 94.859375 C 162.421875 92.273438 162.101563 89.832031 160.660156 87.523438 C 159.253906 85.269531 157.398438 83.875 155.109375 83.347656 C 152.820313 82.820313 150.507813 83.28125 148.179688 84.734375 C 147.15625 85.375 145.871094 86.417969 144.320313 87.855469 Z M 190.933594 105.394531 L 181.296875 111.421875 L 158.527344 102.183594 C 157.644531 102.773438 156.921875 103.25 156.347656 103.609375 C 156.128906 103.75 155.878906 103.90625 155.597656 104.066406 C 155.328125 104.222656 155.050781 104.382813 154.753906 104.546875 L 161.300781 115.03125 C 162.71875 117.300781 163.855469 118.550781 164.691406 118.800781 C 165.859375 119.152344 167.113281 118.914063 168.460938 118.074219 L 169.878906 117.1875 L 170.488281 118.167969 L 155.023438 127.832031 L 154.414063 126.851563 L 155.765625 126.007813 C 157.296875 125.050781 158.070313 123.871094 158.105469 122.472656 C 158.132813 121.683594 157.507813 120.257813 156.222656 118.203125 L 141.648438 94.882813 C 140.230469 92.609375 139.09375 91.359375 138.261719 91.121094 C 137.089844 90.769531 135.804688 91.027344 134.441406 91.882813 L 133.089844 92.726563 L 132.46875 91.734375 L 145.617188 83.519531 C 149.449219 81.125 152.453125 79.640625 154.621094 79.070313 C 156.785156 78.488281 158.96875 78.546875 161.179688 79.253906 C 163.386719 79.972656 165.132813 81.355469 166.433594 83.4375 C 167.816406 85.652344 168.304688 88.027344 167.871094 90.570313 C 167.445313 93.101563 165.929688 95.652344 163.316406 98.21875 L 177.238281 103.921875 C 180.425781 105.242188 182.886719 105.902344 184.589844 105.921875 C 186.300781 105.925781 188.214844 105.429688 190.320313 104.414063 Z M 107.425781 120.371094 L 119.523438 132.054688 L 126.019531 125.328125 C 127.714844 123.578125 128.570313 122.160156 128.613281 121.070313 C 128.679688 119.613281 127.878906 118.003906 126.21875 116.222656 L 127.019531 115.390625 L 137.679688 125.683594 L 136.878906 126.515625 C 135.1875 125.289063 134.023438 124.582031 133.398438 124.382813 C 132.613281 124.144531 131.765625 124.191406 130.871094 124.515625 C 129.972656 124.839844 128.90625 125.640625 127.671875 126.917969 L 121.171875 133.648438 L 131.269531 143.398438 C 132.628906 144.707031 133.507813 145.445313 133.914063 145.609375 C 134.324219 145.769531 134.757813 145.785156 135.222656 145.65625 C 135.683594 145.519531 136.328125 145.023438 137.136719 144.183594 L 142.15625 138.988281 C 143.820313 137.261719 144.925781 135.886719 145.433594 134.867188 C 145.953125 133.851563 146.203125 132.652344 146.195313 131.242188 C 146.164063 129.410156 145.675781 127.089844 144.738281 124.296875 L 145.609375 123.394531 L 150.742188 133.441406 L 127.953125 157.042969 L 127.121094 156.238281 L 128.171875 155.148438 C 128.863281 154.433594 129.347656 153.578125 129.628906 152.59375 C 129.855469 151.878906 129.804688 151.207031 129.503906 150.566406 C 129.175781 149.929688 128.273438 148.890625 126.785156 147.453125 L 106.894531 128.246094 C 104.953125 126.371094 103.570313 125.410156 102.738281 125.363281 C 101.613281 125.320313 100.445313 125.933594 99.222656 127.195313 L 98.171875 128.285156 L 97.335938 127.472656 L 120.121094 103.875 L 127.15625 110.011719 L 126.300781 110.894531 C 124.382813 109.65625 122.945313 108.9375 121.972656 108.742188 C 121.003906 108.546875 119.992188 108.664063 118.949219 109.113281 C 118.144531 109.5 117.003906 110.453125 115.535156 111.972656 Z M 90.34375 135.097656 L 91.328125 135.734375 C 90.726563 137.144531 90.511719 138.359375 90.660156 139.390625 C 90.921875 140.875 91.710938 142.558594 93.007813 144.429688 L 115.300781 176.609375 L 114.671875 177.582031 L 75.214844 170.964844 C 73.183594 170.632813 71.910156 170.484375 71.378906 170.542969 C 70.546875 170.617188 69.773438 170.882813 69.046875 171.332031 C 68.320313 171.765625 67.570313 172.503906 66.777344 173.535156 L 65.796875 172.898438 L 75.265625 158.316406 L 76.246094 158.953125 C 75.328125 160.703125 74.917969 161.960938 74.992188 162.710938 C 75.085938 163.457031 75.441406 164.046875 76.070313 164.457031 C 76.953125 165.027344 78.582031 165.511719 80.964844 165.910156 L 107.789063 170.417969 L 92.597656 148.582031 C 91.09375 146.429688 89.957031 145.101563 89.164063 144.589844 C 88.648438 144.253906 88.003906 144.191406 87.207031 144.402344 C 86.410156 144.617188 85.523438 145.253906 84.546875 146.34375 C 84.472656 146.421875 84.351563 146.546875 84.175781 146.742188 L 83.195313 146.105469 Z M 46.378906 227.855469 L 50.140625 216.933594 L 88.800781 202.722656 L 65.59375 194.730469 C 63.121094 193.882813 61.472656 193.632813 60.675781 193.96875 C 59.59375 194.421875 58.777344 195.433594 58.234375 197.015625 L 57.753906 198.410156 L 56.648438 198.03125 L 61.472656 184.023438 L 62.582031 184.402344 L 62.089844 185.832031 C 61.503906 187.53125 61.601563 188.914063 62.378906 189.976563 C 62.867188 190.632813 64.234375 191.339844 66.492188 192.117188 L 100.40625 203.796875 L 100.035156 204.871094 L 58.496094 220.242188 L 83.285156 228.777344 C 85.757813 229.628906 87.386719 229.894531 88.191406 229.574219 C 89.277344 229.109375 90.09375 228.085938 90.632813 226.527344 L 91.121094 225.109375 L 92.214844 225.484375 L 87.394531 239.484375 L 86.300781 239.109375 L 86.777344 237.71875 C 87.371094 235.996094 87.273438 234.605469 86.488281 233.53125 C 86.007813 232.878906 84.632813 232.164063 82.386719 231.390625 L 54.394531 221.753906 C 52.628906 222.449219 51.417969 223.03125 50.777344 223.476563 C 50.132813 223.933594 49.425781 224.675781 48.648438 225.710938 C 48.277344 226.230469 47.886719 227.070313 47.484375 228.234375 Z M 86.398438 242.960938 L 87.542969 243.121094 L 85.003906 261.1875 L 83.855469 261.027344 L 84.066406 259.53125 C 84.3125 257.789063 83.980469 256.457031 83.078125 255.527344 C 82.484375 254.9375 80.917969 254.457031 78.394531 254.101563 L 51.160156 250.273438 C 49.027344 249.976563 47.59375 249.914063 46.878906 250.085938 C 46.332031 250.222656 45.828125 250.585938 45.363281 251.171875 C 44.738281 252.011719 44.359375 252.933594 44.21875 253.929688 L 44.007813 255.425781 L 42.851563 255.265625 L 45.390625 237.195313 L 46.546875 237.359375 L 46.335938 238.886719 C 46.089844 240.605469 46.421875 241.929688 47.320313 242.855469 C 47.917969 243.46875 49.472656 243.957031 51.996094 244.3125 L 79.230469 248.140625 C 81.363281 248.441406 82.792969 248.5 83.511719 248.328125 C 84.058594 248.191406 84.566406 247.820313 85.03125 247.214844 C 85.65625 246.390625 86.042969 245.484375 86.183594 244.488281 Z M 213.171875 262.886719 C 189.546875 303.234375 184.636719 344.113281 197.414063 369.277344 C 232.40625 342.699219 265.074219 315.109375 278.261719 279.398438 C 288.972656 250.402344 300.433594 222.03125 339.636719 197.976563 C 344.046875 195.273438 344.835938 191.375 344.773438 187.632813 C 343.539063 187.027344 342.265625 186.46875 340.945313 185.96875 C 303.589844 171.917969 246.191406 206.46875 213.171875 262.886719 Z M 200.636719 374.738281 C 205.613281 382.046875 212.421875 387.597656 221.027344 390.835938 C 258.382813 404.886719 315.785156 370.335938 348.808594 313.917969 C 374.289063 270.390625 377.996094 226.234375 361.210938 201.878906 C 358.664063 202.152344 356.148438 202.488281 353.960938 203.707031 C 318.515625 223.417969 303.386719 252.894531 290.945313 283.082031 C 273.1875 326.171875 242.019531 354.261719 200.636719 374.738281 Z M 200.636719 374.738281 "/>
</g>
</svg>
