<?xml version="1.0" encoding="UTF-8"?>
<svg xmlns="http://www.w3.org/2000/svg" xmlns:xlink="http://www.w3.org/1999/xlink" width="187.09pt" height="114.92pt" viewBox="0 0 187.09 114.92" version="1.1">
<defs>
<clipPath id="clip1">
  <path d="M 143 65 L 187.089844 65 L 187.089844 114.921875 L 143 114.921875 Z M 143 65 "/>
</clipPath>
<clipPath id="clip2">
  <path d="M 27 67 L 70 67 L 70 114.921875 L 27 114.921875 Z M 27 67 "/>
</clipPath>
</defs>
<g id="surface1">
<path style=" stroke:none;fill-rule:evenodd;fill:rgb(96.861267%,57.254028%,22.3526%);fill-opacity:1;" d="M 149.300781 8.949219 C 148.316406 8.730469 147.425781 9.875 146.484375 10.339844 C 142.226563 10.683594 137.191406 10.453125 134.222656 13.847656 C 131.890625 13.949219 130.15625 16.179688 128.066406 17.347656 C 122.359375 18.988281 117.953125 23.910156 113.5625 27.34375 C 107.335938 35.699219 98.578125 44.621094 94.214844 54.390625 C 93.839844 56.414063 91.496094 56.402344 90.019531 56.5 C 89.304688 56.09375 88.882813 54.867188 87.890625 55.390625 C 82.992188 52.179688 82.085938 44.652344 75.457031 44.53125 C 68.074219 39.148438 63.808594 30.933594 65.511719 22.371094 C 65.054688 17.265625 71.5 15.515625 72.789063 10.976563 C 75.960938 8.082031 80.65625 4.910156 85.453125 6.640625 C 84.785156 7.769531 83.433594 9.6875 84.265625 11.058594 C 84.519531 11.386719 84.957031 11.128906 85.359375 11.15625 C 88.539063 8.375 90.570313 2.984375 95.0625 2.738281 C 97.371094 -0.269531 101.621094 1.839844 104.296875 0.00390625 C 106.0625 0.796875 107.84375 1.820313 109.933594 1.507813 C 112.546875 3.898438 115.191406 1.609375 118.09375 3.179688 C 112.160156 7.40625 103.769531 12.480469 98.691406 20.128906 C 98.050781 22.457031 94.914063 25.066406 93.394531 27.050781 C 93.382813 27.679688 92.683594 28.355469 93.351563 28.9375 C 102.632813 21.003906 109.804688 8.878906 121.792969 6.414063 C 125.917969 3.28125 131.933594 2.761719 136.925781 2.308594 C 136.015625 2.367188 136.136719 3.332031 136.246094 4.066406 C 141.273438 2.472656 146.609375 6.277344 152.003906 6.710938 C 150.277344 6.484375 150.773438 8.734375 149.300781 8.949219 "/>
<path style=" stroke:none;fill-rule:evenodd;fill:rgb(17.64679%,70.587158%,34.117126%);fill-opacity:1;" d="M 159.058594 23.242188 C 155.582031 26.730469 149.386719 27.949219 146.414063 32.941406 C 141.453125 38.128906 136.28125 44.300781 129.660156 46.859375 C 120.597656 50.382813 111.476563 50.542969 101.730469 53.253906 L 101.304688 52.886719 C 107.019531 42.054688 117.125 31.097656 127.371094 24.757813 L 129.945313 24.011719 C 128.839844 24.542969 129.808594 25.390625 129.679688 26.027344 C 132.984375 25.917969 137.03125 25.816406 139.746094 22.949219 C 144.480469 21.203125 150.398438 23.484375 154.136719 19.695313 C 157.09375 21.207031 161.191406 19.332031 164.574219 19.617188 C 163.230469 21.648438 159.640625 20.863281 159.058594 23.242188 "/>
<path style=" stroke:none;fill-rule:evenodd;fill:rgb(5.883789%,16.088867%,56.054688%);fill-opacity:1;" d="M 12.484375 43.710938 C 5.957031 43.675781 0.136719 48.261719 0.140625 54.785156 L 0 113.382813 L 18.640625 113.359375 L 18.683594 78.101563 L 31.816406 78.152344 L 35.992188 67.109375 L 18.722656 67.046875 L 18.742188 58.796875 C 18.730469 56.691406 20.5 55.609375 22.09375 55.621094 L 43.515625 55.601563 L 47.996094 43.816406 "/>
<path style=" stroke:none;fill-rule:evenodd;fill:rgb(5.883789%,16.088867%,56.054688%);fill-opacity:1;" d="M 90.605469 67.625 C 100.242188 61.394531 115.894531 65.03125 115.929688 74.507813 L 115.832031 112.644531 L 103.195313 112.65625 C 100.714844 112.558594 98.855469 110.46875 98.953125 107.984375 L 99.128906 78.160156 C 99.128906 74.140625 90.570313 74.21875 90.570313 77.988281 L 90.503906 112.554688 L 74.265625 112.496094 L 74.234375 65.199219 L 90.589844 65.261719 "/>
<path style=" stroke:none;fill-rule:evenodd;fill:rgb(5.883789%,16.088867%,56.054688%);fill-opacity:1;" d="M 124.386719 53.535156 L 124.308594 65.335938 L 118.117188 65.3125 L 118.109375 74.511719 L 124.1875 74.535156 L 124.0625 112.710938 L 139.875 112.714844 L 140.003906 74.59375 L 149.332031 74.617188 L 152.613281 65.417969 L 140.160156 65.378906 L 140.304688 47.078125 C 136.382813 50.546875 124.386719 53.535156 124.386719 53.535156 "/>
<g clip-path="url(#clip1)" clip-rule="nonzero">
<path style=" stroke:none;fill-rule:evenodd;fill:rgb(5.883789%,16.088867%,56.054688%);fill-opacity:1;" d="M 171.886719 96.449219 C 171.890625 92.675781 168.9375 88.730469 164.585938 89.660156 C 156.332031 91.421875 158.171875 107.773438 171.851563 105.785156 Z M 176.386719 65.472656 C 182.484375 65.753906 187.324219 70.980469 187.085938 77.191406 L 187 112.835938 L 178.394531 112.820313 C 174.097656 112.796875 171.832031 110.777344 171.855469 106.761719 C 168.453125 111.613281 161.816406 114.46875 157.65625 114.148438 C 138.5 112.671875 140.164063 84.753906 157.046875 80.914063 C 160.730469 80.074219 166.46875 81.332031 171.933594 84.753906 L 171.929688 78.78125 C 171.953125 75.824219 170.964844 74.65625 168.363281 74.644531 L 153.488281 74.605469 L 156.988281 65.375 "/>
</g>
<g clip-path="url(#clip2)" clip-rule="nonzero">
<path style=" stroke:none;fill-rule:evenodd;fill:rgb(5.883789%,16.088867%,56.054688%);fill-opacity:1;" d="M 54.996094 97.542969 C 54.996094 93.84375 52.101563 89.976563 47.835938 90.886719 C 39.746094 92.613281 41.546875 108.648438 54.960938 106.695313 Z M 59.40625 67.175781 C 65.382813 67.449219 70.128906 72.574219 69.898438 78.664063 L 69.695313 113.609375 L 61.375 113.59375 C 57.160156 113.566406 54.945313 111.589844 54.964844 107.652344 C 51.628906 112.410156 45.121094 115.210938 41.046875 114.898438 C 22.261719 113.449219 23.898438 86.074219 40.449219 82.3125 C 44.058594 81.488281 49.683594 82.722656 55.042969 86.074219 L 55.039063 80.222656 C 55.058594 77.320313 54.09375 76.179688 51.539063 76.167969 L 36.957031 76.128906 L 40.390625 67.078125 "/>
</g>
</g>
</svg>
