<?xml version="1.0" encoding="utf-8"?>
<!-- Generator: Adobe Illustrator 20.0.0, SVG Export Plug-In . SVG Version: 6.00 Build 0)  -->
<svg version="1.1" id="Layer_1" xmlns="http://www.w3.org/2000/svg" xmlns:xlink="http://www.w3.org/1999/xlink" x="0px" y="0px"
	 viewBox="0 0 388.6 227.4" style="enable-background:new 0 0 388.6 227.4;" xml:space="preserve">
<style type="text/css">
	.st0{fill:#008348;}
	.st1{fill:#00A886;}
	.st2{fill:url(#SVGID_1_);}
	.st3{fill:url(#SVGID_2_);}
	.st4{fill:#FFFFFF;}
	.st5{fill:#95013D;stroke:#231F20;}
	.st6{fill:#95013D;stroke:#FFFFFF;stroke-width:12.0433;stroke-linecap:round;stroke-linejoin:round;}
	.st7{fill:none;stroke:#FFFFFF;stroke-width:12.0433;stroke-linecap:round;stroke-linejoin:round;}
	.st8{fill:none;stroke:#076CB5;stroke-width:5.3525;stroke-linecap:round;stroke-linejoin:round;}
	.st9{fill:#95013D;stroke:#076CB5;stroke-width:5.3525;stroke-linecap:round;stroke-linejoin:round;}
	.st10{fill:#CD1543;}
	.st11{fill:#010101;}
	.st12{fill:#95013D;}
	.st13{fill:url(#SVGID_3_);}
	.st14{fill:url(#SVGID_4_);}
	.st15{fill:#FAA22B;}
	.st16{fill:#C32655;}
	.st17{fill:#C42655;}
</style>
<g>
	<polygon class="st0" points="98.1,60.3 95.4,50.4 94.4,44.9 94.4,41 95.2,37 97.1,36.1 99.3,35.7 99.6,34.3 97.5,31.7 95.4,30.8 
		92.5,31.4 90.9,32.6 89.6,35.2 88.9,39 88.9,44.5 90.2,51.9 91.2,56 93.1,62.1 98.1,60.3 	"/>
	<g>
		<path class="st0" d="M87,51.8c-3-7.4-7.1-11.4-14.5-14.3c-4-1.5-6.6-2.3-10.9-1.6c-2.9,0.5-4.4,1.6-7.1,2.8
			c-3.7,1.6-5.4,3.3-9.3,4.4c-3.4,0.9-5.5,0.8-9.1,0.9c-4.5,0.2-7.1,0.1-11.6-0.4c3.3,4.2,5.4,6.4,9.5,9.7c2.9,2.4,4.5,3.8,7.9,5.4
			c3.3,1.6,5.3,2.1,8.8,2.7c3.9,0.8,6.2,1,10.2,0.7c5.8-0.4,8.9-1.7,14.3-3.9c3.5-1.4,5.2-2.8,8.6-4.2c1.3-0.6,2-0.8,3.3-1.4
			L87,51.8L87,51.8z"/>
		<path class="st0" d="M94.8,54.3c-0.2,0.1-2.8-1.1-4.7-1.2c-2.3-0.2-3.7,0-5.9,0.7c-1.1,0.4-1.7,0.6-2.6,1.2l2.8-3.9l1.4-1.8
			c0.2,0.4,0.3,0.6,0.6,1c0.6,0.7,1.3,0.9,2.2,1.2c1.3,0.5,2.2,0.3,3.6,0.6c1.1,0.3,1.7,0.5,2.8,0.9C95,53.5,95.3,54.1,94.8,54.3
			L94.8,54.3z"/>
		<path class="st1" d="M83.6,52c-3.6-1.1-5.7-1.6-9.5-2.2c-3.9-0.6-6.1-1.1-10-0.9c-4.1,0.2-6.3,1.5-10.4,2.2
			c-3.7,0.6-5.7,1.6-9.5,1.4c-4.4-0.3-7.1-1.2-10.8-3.7c1.7,0.7,2.6,1,4.4,1.4c2.6,0.6,4.2,0.9,6.8,0.9c3.5,0,5.5-0.8,9-1.4
			c4-0.7,6.1-2,10.1-2.2c4.1-0.2,6.4,0.1,10.4,1C78.1,49.4,80.2,50.2,83.6,52L83.6,52z"/>
		<path class="st1" d="M79.8,49.5c-1.7-2.2-2.9-3.4-5.1-5.1c-2.7-2.1-4.4-3.2-7.6-4.5c2.9,1.7,4.5,2.8,7.2,4.9
			C76.6,46.5,77.8,47.5,79.8,49.5L79.8,49.5z"/>
		<path class="st1" d="M71.8,47.6c-2.1-1.9-3.4-2.8-5.9-4.2c-3-1.6-4.9-2.3-8.2-3.1c3.2,1.2,4.9,2,7.9,3.6
			C68.1,45.2,69.5,46,71.8,47.6L71.8,47.6z"/>
		<path class="st1" d="M64.4,46.4c-2.1-1.3-3.4-1.9-5.7-2.7c-2.8-1-4.5-1.3-7.5-1.4c2.9,0.5,4.5,1,7.3,1.9
			C60.9,44.9,62.2,45.4,64.4,46.4L64.4,46.4z"/>
		<path class="st1" d="M58,47.7c-1.5-0.9-2.5-1.4-4.2-2c-2.7-1-4.3-1.3-7.1-1.3c2.7,0.5,4.3,0.9,6.9,1.8
			C55.4,46.7,56.3,47.1,58,47.7L58,47.7z"/>
		<path class="st1" d="M65,58.7c2.8-0.6,4.3-1.1,6.8-2.3c3.1-1.5,4.8-2.6,7.3-4.8c-2.8,1.9-4.5,2.8-7.5,4.3
			C69.1,57.1,67.6,57.7,65,58.7L65,58.7z"/>
		<path class="st1" d="M58.1,57.6c2.8-0.6,4.3-1.1,6.8-2.3c3.1-1.5,4.8-2.6,7.3-4.8c-2.8,1.9-4.5,2.8-7.5,4.3
			C62.2,56,60.8,56.6,58.1,57.6L58.1,57.6z"/>
		<path class="st1" d="M50.1,56.8c2.8-0.6,4.3-1.1,6.8-2.3c3.1-1.5,4.8-2.6,7.3-4.8c-2.8,1.9-4.5,2.8-7.5,4.3
			C54.2,55.2,52.7,55.8,50.1,56.8L50.1,56.8z"/>
	</g>
	<radialGradient id="SVGID_1_" cx="77.4588" cy="93.53" r="78.1924" gradientUnits="userSpaceOnUse">
		<stop  offset="0" style="stop-color:#ED1B2E"/>
		<stop  offset="0.3323" style="stop-color:#CE1737"/>
		<stop  offset="1" style="stop-color:#95013D"/>
	</radialGradient>
	<path class="st2" d="M98.9,60l-0.4,0.1c-7.6,1.7-15-1.6-29.2,2C54.9,65.6,44.8,81.8,48,94.9C51.3,108,60.9,129.4,72,142
		c11.1,12.6,25.7,24.5,35,22.2c9.4-2.3,12.8-10.3,17-11.3c4.3-1.1,15.4,3.5,21.5,2c6.1-1.5,17.6-14.9,21.5-42.5
		c3.9-27.6-0.8-38.4-2.2-44c-1.4-5.6-12.1-27.9-35.3-22.1c-22.8,5.7-16.9,10.2-27.8,13.2L98.9,60L98.9,60z"/>
</g>
<g>
	<path class="st0" d="M210.3,32.8c0.3-7.9-1.9-13.4-7.5-18.9c-3-3-5.1-4.8-9.3-5.8c-2.9-0.8-4.7-0.3-7.7-0.3
		c-4-0.1-6.3,0.9-10.2,0.2c-3.5-0.6-5.4-1.5-8.7-2.8c-4.2-1.7-6.5-2.8-10.5-5.1c1.3,5.1,2.3,8,4.7,12.7c1.7,3.3,2.6,5.3,5,8.1
		c2.3,2.8,4,4,7,6.1c3.3,2.3,5.3,3.4,9,4.8c5.4,2,8.9,2,14.7,2.3c3.7,0.1,5.8-0.4,9.6-0.4c1.4,0,2.2,0,3.6,0.1L210.3,32.8
		L210.3,32.8z"/>
	<polygon class="st0" points="212.1,41.7 215.7,32.1 217.1,26.6 217.4,22.7 216.9,18.8 215.1,17.7 213,17.2 212.7,15.6 215,13.2 
		217.3,12.6 220.1,13.4 221.6,14.7 222.6,17.4 223.1,21.2 222.6,26.7 220.7,34 219.4,38 217,43.9 212.1,41.7 	"/>
	<path class="st0" d="M216.5,38.2c-0.3,0-2.1-2.1-3.8-3c-2-1.1-3.4-1.5-5.7-1.7c-1.1-0.1-1.8-0.1-2.9,0l4.1-2.4l1.9-1
		c0,0.4,0,0.7,0.2,1.1c0.3,0.9,0.8,1.3,1.5,2c1,1,1.9,1.2,3,2c0.9,0.7,1.4,1.1,2.2,2C216.9,37.6,217,38.2,216.5,38.2L216.5,38.2z"/>
	<path class="st1" d="M207.2,31.6c-2.8-2.5-4.6-3.8-7.7-5.9c-3.3-2.1-5.1-3.5-8.8-4.9c-3.9-1.5-6.4-1.2-10.4-2.2
		c-3.6-0.9-5.9-0.8-9.2-2.6c-3.9-2.1-6-4-8.4-7.7c1.2,1.3,2,2,3.4,3.1c2.1,1.7,3.4,2.5,5.9,3.6c3.2,1.5,5.3,1.5,8.8,2.4
		c3.9,0.9,6.4,0.7,10.2,2.1c3.8,1.4,5.8,2.7,9.1,5.1C203.1,27,204.8,28.5,207.2,31.6L207.2,31.6z"/>
	<path class="st1" d="M204.8,27.7c-0.7-2.7-1.3-4.3-2.5-6.8c-1.6-3-2.7-4.7-5.1-7.1c2,2.8,3,4.4,4.6,7.4
		C203,23.7,203.7,25.1,204.8,27.7L204.8,27.7z"/>
	<path class="st1" d="M198.2,22.7c-1.1-2.6-2-4-3.7-6.2c-2.1-2.7-3.5-4.1-6.3-6.2c2.4,2.4,3.7,3.8,5.8,6.5
		C195.8,19,196.7,20.3,198.2,22.7L198.2,22.7z"/>
	<path class="st1" d="M191.9,18.6c-1.4-2-2.3-3.1-4.1-4.8c-2.2-2-3.6-3-6.3-4.3c2.4,1.7,3.7,2.7,5.9,4.7
		C189.3,15.8,190.3,16.8,191.9,18.6L191.9,18.6z"/>
	<path class="st1" d="M184.9,17.2c-1-1.5-1.7-2.3-3-3.5c-2-2-3.4-2.9-6-4.1c2.3,1.6,3.5,2.6,5.6,4.4
		C182.9,15.2,183.6,15.9,184.9,17.2L184.9,17.2z"/>
	<path class="st1" d="M186.7,30.1c2.8,0.6,4.4,0.7,7.2,0.7c3.4-0.1,5.4-0.4,8.7-1.4c-3.3,0.5-5.2,0.7-8.6,0.9
		C191.1,30.4,189.5,30.3,186.7,30.1L186.7,30.1z"/>
	<path class="st1" d="M181,26.3c2.8,0.6,4.4,0.7,7.2,0.7c3.4-0.1,5.4-0.4,8.7-1.4c-3.3,0.5-5.2,0.7-8.6,0.9
		C185.4,26.5,183.8,26.5,181,26.3L181,26.3z"/>
	<path class="st1" d="M174.8,22.6c2.8,0.6,4.4,0.7,7.2,0.7c3.4-0.1,5.4-0.4,8.7-1.4c-3.3,0.5-5.2,0.7-8.6,0.9
		C179.2,22.8,177.6,22.8,174.8,22.6L174.8,22.6z"/>
	<radialGradient id="SVGID_2_" cx="215.2037" cy="132.2845" r="62.1635" gradientUnits="userSpaceOnUse">
		<stop  offset="0" style="stop-color:#9FCC3B"/>
		<stop  offset="1" style="stop-color:#49B749"/>
	</radialGradient>
	<path class="st3" d="M219.7,35.1L219.7,35.1c-14.2-2.6-22.9,13.5-29.9,26.5c-3.4,6.4-6.9,12.9-10,15.3c-3.9,3-31.5,31.9-25.5,57.4
		c3.6,15.5,18.2,25.8,43.4,30.7c40,7.8,55.2-5.3,60.9-17.7c8.8-19.1-1.1-46.2-9.6-53c-6.2-5-7.6-15.6-8.9-25.8
		C238.2,54.2,236.2,38.1,219.7,35.1z"/>
	<path class="st4" d="M204.1,64.5c1.1,0.7,2.9-0.4,3.5-1.6c0.5-1.2,1.5-4.1,2.7-5.5c1.1-1.4,4.7-5,6.2-6.6c1.5-1.6,0.7-3.6,0-4.1
		c-0.6-0.5-2.2-0.6-4.2,1c-2,1.6-4,3.9-5.7,6.1c-1.6,2.3-2.9,5.1-3.4,6.7C202.6,62.3,202.8,63.7,204.1,64.5L204.1,64.5z"/>
	<path class="st1" d="M170.9,20.3c1.8,0.4,2.8,0.5,4.6,0.6c2.8,0.1,4.5-0.2,7.2-1c-2.8,0.4-4.3,0.5-7.1,0.5
		C173.7,20.5,172.7,20.4,170.9,20.3L170.9,20.3z"/>
</g>
<g>
	<path class="st5" d="M301.6,165.6c4.8-2.1,9.9-3.1,15.4-3.1c1.5,0,2.9,0.1,4.4,0.3c-4.8,3.6-9.2,6.4-13.4,8.2
		c-5.1,2.2-10.2,3.3-15.2,3.3c-0.5,0-1,0-1.5,0c-0.5,0-1,0-1.5-0.1C292.9,170.6,296.8,167.7,301.6,165.6L301.6,165.6z M351.9,181.4
		c3.1-1.7,5-3.7,5.7-6.1c-5.9,0-12.7,1-20.6,3c-6.5,1.8-13.2,3.6-20.2,5.4c-7,1.8-13.3,2.7-19,2.7c-3,0-6.2-0.4-9.5-1.1
		c2.7-2.5,6.6-4.4,11.8-5.7c2.9-0.7,7.5-1.8,13.8-3.3c4.1-1.3,7.6-3.1,10.5-5.2c3.7-2.7,5.5-5.3,5.5-8c0-1.7-0.8-3.4-2.4-5
		c-2.5-2.6-6.3-3.8-11.5-3.8c-5.1,0-10.9,1.2-17.3,3.7c-5.7,2.1-10.1,4.5-13.3,7c-1.8,1.4-3.6,4-5.5,7.9c-1.9,3.8-3.6,6.1-5.1,6.9
		c-1.1,0.5-2.7,1-4.8,1.4c-2.2,0.4-4,0.7-5.7,0.8c-1.1,0-2.1,0-3.1,0c-1.9,0-3.5,0.2-4.6,0.6c-1.1,0.4-1.6,1.2-1.6,2.4
		c0,0.4,0.2,1.1,0.5,2.1c0.3,1,1,1.7,2,2.2c1,0.5,2.1,0.8,3.4,0.8c1,0,2.2-0.1,3.7-0.4c1.5-0.3,2.9-0.5,4.2-0.7
		c2.7-0.5,4.5-0.8,5.4-0.8c0.8,0,1.7,0.4,2.6,1.1c1.5,1.4,2.9,2.5,4.1,3.2c2,1.3,4.1,2.2,6.6,2.7c2.4,0.5,5.2,0.8,8.4,0.8
		c6.1,0,12.6-1,19.4-3.1c6.8-2,13.4-4.1,19.8-6C345,183.9,350.6,182.1,351.9,181.4L351.9,181.4z"/>
	<g>
		<path class="st6" d="M70.7,171.6c-4.1,1.2-7.3,2.1-9.6,2.7c-4.4,1.2-7.9,1.7-10.5,1.7c-3.5,0-6-1-7.4-3c-0.8-1.2-1.3-2.4-1.3-3.6
			c0-4.2,4.4-9.3,13.1-15.1c5.3-3.3,8.8-5.5,10.5-6.6c4.9-3.4,9.9-6.8,14.9-10.2c7.9-4.9,14-7.4,18.3-7.4c3.3,0,5.4,1.4,6.4,4.3
			c-8.6,2.7-17.1,6.8-25.6,12.4c-7.2,4.7-14.2,10.3-21,16.9h2c2.9,0,9.6-0.8,20.2-2.4c10.6-1.6,18-2.4,22.4-2.4
			c3.9,0,6.9,0.4,8.9,1.2c2,0.8,3.1,2.2,3.1,4.2c0,1.9-1.1,4.4-3.2,7.4c-5.1,7.2-12.5,13.7-22.2,19.5c-9,5.4-18.9,9.5-29.5,12.4
			c-4.5,1.3-7,2-7.7,2.1c-2,0.4-3.7,0.6-5.2,0.6c-3,0-5-0.9-6.2-2.8c-0.7-0.9-1-1.8-1-2.6c0-1.8,2-3.1,6.1-3.9
			c3.4-0.5,6.9-1,10.3-1.5c8.8-1.7,17.3-5.3,25.6-10.7c7.5-4.8,13.9-10.6,19.3-17.2c-2.5-0.4-4.7-0.5-6.4-0.5
			c-4.3,0-9.4,0.7-15.4,2.1C76.8,170,73.8,170.8,70.7,171.6L70.7,171.6z"/>
		<path class="st7" d="M130.8,178.9c6.9-2.8,14.1-4.2,21.8-4.2c4.5,0,8.5,0.5,12,1.6c3.5,1.1,6.1,2.7,8,5c-6.1,2.9-12.6,5.3-19.4,7
			c-6.8,1.7-13.6,2.6-20.3,2.6c-2.3,0-4.8-0.2-7.3-0.5c-2.5-0.3-4.8-0.7-6.8-1.3C119.9,185.1,123.9,181.6,130.8,178.9L130.8,178.9z
			 M158.5,151.6c3.9,0,6.8,1.8,8.7,5.3c1.4,2.7,2.2,6,2.2,9.9c-10.7,0.9-17.7,1.6-20.9,2c-7.8,1-14.8,2.6-20.9,4.7
			c-4.9,1.6-9.2,3.6-12.8,5.7c-5.1,3.1-7.7,6.1-7.7,8.9c0,1.2,0.4,2.2,1.2,3.3c2.1,2.9,4.9,5,8.5,6.4c3.1,1.2,6.9,1.7,11.5,1.7
			c6.3,0,14.4-1.4,24.4-4.1c5.3-1.5,12.4-3.6,21.3-6.3c1,2.3,2,4.1,3,5.2c1.6,1.8,3.7,2.8,6.4,2.8c1.6,0,2.9-0.7,4-2.2
			c1-1.5,1.6-3,1.6-4.5c0-2.1-1.2-4.9-3.5-8.6c-2.3-3.7-3.7-6.4-4-8.3c-0.9-4.9-2.1-9.5-3.7-13.9c-1.9-5.2-4.1-9.6-6.8-13.2
			c-1.1-1.5-2.4-2.6-3.9-3.2c-1.4-0.6-3.1-1-5.1-1c-3.1,0-7.6,1.2-13.4,3.5c-1.8,0.7-4.3,1.7-7.5,3c-3.1,1-6.2,2.1-9.3,3.1
			c-7.5,2.7-11.2,5.6-11.2,8.5c0,1,0.4,1.9,1.1,2.9c0.8,0.9,1.4,1.6,1.9,1.9c0.5,0.3,1.1,0.5,1.9,0.5c1.1,0,2.3-0.5,3.9-1.5
			c0.9-0.5,2.3-1.5,4.3-2.9c3.8-2.2,7.1-3.9,10-5.2c3.7-1.6,7.3-2.9,10.9-3.8C156,151.8,157.3,151.6,158.5,151.6L158.5,151.6z"/>
		<path class="st6" d="M215.4,168.7c7.3-3.6,14.7-5.4,22.4-5.4c2.1,0,4.1,0.2,6,0.5c-1.5,5.2-6.4,9.7-14.5,13.3
			c-7.4,3.3-15,5-22.7,5c-1.5,0-3-0.1-4.5-0.3C203.7,176.8,208.1,172.4,215.4,168.7L215.4,168.7z M234,180c4.1-2.1,7.4-3.8,9.8-4.9
			c0.8,2.6,1.4,5.3,1.9,8.2c0.4,2.8,0.7,6,0.7,9.4c0,4.3-0.6,8-1.7,11.2c-1.1,3.2-2.9,5.2-5.3,6c-3.3,1.1-6.6,1.9-9.8,2.6
			c-3.3,0.6-6.5,0.9-9.6,0.9c-5.1,0-10-0.7-14.8-2.2c3.5-2.7,7-5.3,10.5-7.9c-5.1,0.7-9.8,1.7-14.1,3c-6.1,1.9-9.2,4.2-9.2,6.7
			c0,1.3,0.8,2.5,2.4,3.8c2,1.7,5,2.9,8.9,3.6c3.9,0.7,8.5,1.1,13.7,1.1c4.6,0,9.2-0.3,13.8-0.8c4.6-0.5,8.4-1.1,11.3-1.7
			c4.9-1.1,8.3-3.1,10.3-6c1.4-2.3,2.2-5.4,2.2-9.3c0-0.2-0.1-1.7-0.2-4.6c-0.2-2.9-0.2-4.9-0.2-6c0-2.1,0.3-7.2,1-15.4
			c0.3-3.7,0.5-6.7,0.5-9.1c0-2.1-0.1-4.3-0.4-6.5c-0.2-2.2-0.6-4.1-1.1-5.8c-0.5-1.7-1.2-3-2-3.9c-1.1-1.3-2.5-2-4.1-2
			c-1.7,0-3.2,0.9-4.4,2.6c-1.2,1.7-2.7,2.7-4.5,3.1c-8.1,1.6-14.4,3-18.8,4.3c-7.3,2.1-13,4.7-17.1,7.6c-5.1,3.6-8,7.9-8.7,12.9
			c-0.1,0.5-0.1,1.2-0.1,2c0,2.6,0.9,4.5,2.6,5.7c1.4,1,3.6,1.5,6.5,1.5c1.9,0,4-0.2,6.3-0.7c2.3-0.5,4.6-1,6.9-1.7
			C221.2,186.2,226.9,183.8,234,180L234,180z"/>
		<path class="st6" d="M298.8,166.2c4.7-2.1,9.8-3.1,15.3-3.1c1.4,0,2.9,0.1,4.3,0.3c-4.7,3.6-9.2,6.3-13.2,8.1
			c-5.1,2.2-10.1,3.3-15,3.3c-0.5,0-1,0-1.4,0c-0.5,0-1,0-1.4-0.1C290.2,171.1,294,168.3,298.8,166.2L298.8,166.2z M348.5,181.8
			c3.1-1.6,4.9-3.7,5.7-6c-5.8,0-12.6,1-20.4,2.9c-6.4,1.8-13.1,3.5-20,5.3c-6.9,1.8-13.1,2.7-18.8,2.7c-3,0-6.1-0.4-9.4-1.1
			c2.7-2.5,6.6-4.4,11.7-5.6c2.9-0.7,7.4-1.8,13.6-3.3c4-1.3,7.5-3.1,10.4-5.2c3.6-2.7,5.4-5.3,5.4-7.9c0-1.7-0.8-3.3-2.4-4.9
			c-2.5-2.5-6.3-3.8-11.3-3.8c-5.1,0-10.8,1.2-17.1,3.6c-5.6,2.1-10,4.4-13.1,6.9c-1.8,1.4-3.6,4-5.4,7.8c-1.8,3.8-3.5,6.1-5.1,6.8
			c-1,0.5-2.6,1-4.8,1.4c-2.1,0.4-4,0.7-5.6,0.8c-1.1,0-2.1,0-3,0c-1.9,0-3.4,0.2-4.5,0.5c-1.1,0.4-1.6,1.2-1.6,2.4
			c0,0.4,0.2,1.1,0.5,2c0.3,0.9,1,1.7,1.9,2.2c1,0.5,2.1,0.8,3.4,0.8c1,0,2.2-0.1,3.7-0.4c1.5-0.3,2.9-0.5,4.2-0.7
			c2.7-0.5,4.4-0.8,5.3-0.8c0.8,0,1.6,0.4,2.5,1.1c1.5,1.4,2.9,2.4,4.1,3.2c1.9,1.3,4.1,2.2,6.5,2.7c2.4,0.5,5.2,0.8,8.3,0.8
			c6,0,12.4-1,19.2-3c6.8-2,13.3-4,19.5-6C341.7,184.3,347.3,182.5,348.5,181.8L348.5,181.8z"/>
	</g>
	<g>
		<g>
			<path class="st8" d="M69,174c-4.1,1.2-7.4,2.1-9.7,2.7c-4.4,1.2-8,1.7-10.6,1.7c-3.6,0-6.1-1-7.5-3c-0.8-1.2-1.3-2.4-1.3-3.6
				c0-4.3,4.4-9.4,13.3-15.3c5.4-3.3,8.9-5.5,10.6-6.6c5-3.4,10-6.8,15.1-10.3c8-5,14.2-7.5,18.5-7.5c3.3,0,5.5,1.4,6.5,4.3
				c-8.7,2.8-17.3,6.9-25.8,12.5c-7.3,4.7-14.3,10.4-21.2,17.1h2c2.9,0,9.7-0.8,20.4-2.4c10.7-1.6,18.2-2.4,22.7-2.4
				c4,0,7,0.4,9,1.2c2.1,0.8,3.1,2.2,3.1,4.2c0,2-1.1,4.5-3.2,7.5c-5.2,7.3-12.7,13.9-22.5,19.7c-9.1,5.4-19.1,9.6-29.8,12.5
				c-4.5,1.3-7.1,2-7.8,2.2c-2,0.4-3.7,0.7-5.2,0.7c-3,0-5.1-0.9-6.2-2.8c-0.7-0.9-1-1.8-1-2.6c0-1.8,2.1-3.1,6.2-3.9
				c3.5-0.5,7-1,10.5-1.5c8.9-1.7,17.5-5.3,25.9-10.8c7.5-4.9,14-10.7,19.5-17.4c-2.5-0.4-4.7-0.5-6.5-0.5c-4.3,0-9.5,0.7-15.5,2.2
				C75.2,172.4,72.1,173.2,69,174L69,174z"/>
			<path class="st9" d="M127.4,177.9c6.9-2.8,14.3-4.2,22-4.2c4.6,0,8.6,0.5,12.1,1.6c3.5,1.1,6.2,2.8,8.1,5
				c-6.2,3-12.7,5.3-19.6,7.1c-6.9,1.8-13.7,2.6-20.5,2.6c-2.4,0-4.8-0.2-7.4-0.5c-2.6-0.3-4.9-0.7-6.9-1.3
				C116.4,184.2,120.5,180.7,127.4,177.9L127.4,177.9z M155.5,150.3c3.9,0,6.8,1.8,8.8,5.3c1.5,2.7,2.2,6.1,2.2,10
				c-10.8,0.9-17.8,1.6-21.1,2c-7.9,1-14.9,2.6-21.1,4.8c-5,1.7-9.3,3.6-12.9,5.8c-5.2,3.1-7.8,6.1-7.8,9c0,1.2,0.4,2.3,1.2,3.3
				c2.1,2.9,5,5.1,8.5,6.4c3.1,1.2,7,1.8,11.6,1.8c6.3,0,14.6-1.4,24.7-4.2c5.4-1.5,12.5-3.6,21.5-6.4c1.1,2.4,2.1,4.1,3,5.2
				c1.6,1.9,3.8,2.8,6.4,2.8c1.6,0,3-0.7,4-2.2c1.1-1.5,1.6-3,1.6-4.5c0-2.1-1.2-5-3.5-8.7c-2.4-3.7-3.7-6.5-4-8.3
				c-0.9-4.9-2.2-9.6-3.8-14c-1.9-5.3-4.2-9.7-6.8-13.4c-1.1-1.5-2.4-2.6-3.9-3.3c-1.5-0.6-3.2-1-5.1-1c-3.2,0-7.7,1.2-13.5,3.5
				c-1.8,0.7-4.3,1.7-7.6,3c-3.2,1-6.3,2.1-9.4,3.1c-7.6,2.8-11.3,5.6-11.3,8.6c0,1,0.4,2,1.2,2.9c0.8,1,1.4,1.6,2,1.9
				c0.5,0.3,1.2,0.5,1.9,0.5c1.1,0,2.4-0.5,3.9-1.6c0.9-0.6,2.4-1.5,4.4-2.9c3.8-2.2,7.2-3.9,10.1-5.2c3.7-1.6,7.4-2.9,11-3.9
				C153,150.5,154.3,150.3,155.5,150.3L155.5,150.3z"/>
			<path class="st9" d="M213,167.7c7.4-3.7,14.9-5.5,22.6-5.5c2.1,0,4.1,0.2,6.1,0.6c-1.5,5.3-6.4,9.8-14.6,13.5
				c-7.5,3.4-15.1,5.1-22.9,5.1c-1.5,0-3-0.1-4.5-0.3C201.2,175.8,205.6,171.3,213,167.7L213,167.7z M231.8,179.1
				c4.2-2.2,7.4-3.8,9.9-5c0.8,2.6,1.4,5.4,1.9,8.2c0.4,2.9,0.7,6,0.7,9.5c0,4.3-0.6,8.1-1.7,11.3c-1.1,3.2-2.9,5.2-5.4,6
				c-3.3,1.1-6.6,2-9.9,2.6c-3.3,0.6-6.5,0.9-9.7,0.9c-5.1,0-10.1-0.7-15-2.2c3.5-2.7,7-5.4,10.6-8c-5.2,0.7-10,1.7-14.3,3
				c-6.2,2-9.3,4.2-9.3,6.7c0,1.3,0.8,2.6,2.4,3.9c2,1.7,5,2.9,9,3.7c3.9,0.7,8.6,1.1,13.8,1.1c4.6,0,9.3-0.3,14-0.8
				c4.7-0.5,8.5-1.1,11.4-1.7c5-1.1,8.4-3.1,10.4-6.1c1.5-2.3,2.2-5.4,2.2-9.4c0-0.2-0.1-1.7-0.2-4.6c-0.2-2.9-0.2-4.9-0.2-6.1
				c0-2.1,0.3-7.3,1-15.6c0.3-3.7,0.5-6.8,0.5-9.2c0-2.2-0.1-4.3-0.4-6.6c-0.2-2.2-0.6-4.2-1.1-5.9c-0.5-1.7-1.2-3-2-3.9
				c-1.1-1.4-2.5-2-4.1-2c-1.7,0-3.2,0.9-4.4,2.6c-1.3,1.7-2.8,2.8-4.6,3.1c-8.2,1.6-14.5,3.1-19,4.4c-7.4,2.2-13.1,4.7-17.3,7.7
				c-5.1,3.6-8,8-8.8,13.1c-0.1,0.5-0.1,1.2-0.1,2c0,2.7,0.9,4.6,2.7,5.7c1.5,1,3.7,1.5,6.6,1.5c1.9,0,4.1-0.2,6.4-0.7
				c2.3-0.5,4.6-1,7-1.7C218.9,185.3,224.7,182.8,231.8,179.1L231.8,179.1z"/>
			<path class="st9" d="M297.3,165.2c4.8-2.1,9.9-3.1,15.4-3.1c1.5,0,2.9,0.1,4.4,0.3c-4.8,3.6-9.2,6.4-13.4,8.2
				c-5.1,2.2-10.2,3.3-15.2,3.3c-0.5,0-1,0-1.5,0c-0.5,0-1,0-1.5-0.1C288.6,170.1,292.5,167.2,297.3,165.2L297.3,165.2z
				 M347.6,180.9c3.1-1.7,5-3.7,5.7-6.1c-5.9,0-12.7,1-20.6,3c-6.5,1.8-13.2,3.6-20.2,5.4c-7,1.8-13.3,2.7-19,2.7
				c-3,0-6.2-0.4-9.5-1.1c2.7-2.5,6.6-4.4,11.8-5.7c2.9-0.7,7.5-1.8,13.8-3.3c4.1-1.3,7.6-3.1,10.5-5.2c3.7-2.7,5.5-5.3,5.5-8
				c0-1.7-0.8-3.4-2.4-4.9c-2.5-2.6-6.3-3.8-11.5-3.8c-5.1,0-10.9,1.2-17.3,3.7c-5.7,2.1-10.1,4.5-13.3,7c-1.8,1.4-3.6,4-5.5,7.9
				c-1.9,3.8-3.6,6.1-5.1,6.9c-1.1,0.5-2.7,1-4.8,1.4c-2.2,0.4-4,0.7-5.7,0.8c-1.1,0-2.1,0-3.1,0c-2,0-3.5,0.2-4.6,0.6
				c-1.1,0.4-1.6,1.2-1.6,2.4c0,0.4,0.2,1.1,0.5,2.1c0.3,1,1,1.7,2,2.2c1,0.5,2.1,0.8,3.4,0.8c1,0,2.2-0.1,3.7-0.4
				c1.5-0.3,2.9-0.5,4.2-0.7c2.7-0.5,4.5-0.8,5.4-0.8c0.8,0,1.7,0.4,2.6,1.1c1.5,1.4,2.9,2.5,4.1,3.2c2,1.3,4.1,2.2,6.6,2.7
				c2.4,0.5,5.2,0.8,8.4,0.8c6.1,0,12.6-1,19.4-3.1c6.8-2,13.4-4,19.8-6C340.7,183.4,346.3,181.6,347.6,180.9L347.6,180.9z"/>
		</g>
		<g>
			<path class="st10" d="M70.2,172.9c-4.1,1.2-7.4,2.1-9.7,2.7c-4.4,1.2-8,1.7-10.6,1.7c-3.6,0-6.1-1-7.5-3
				c-0.8-1.2-1.3-2.4-1.3-3.6c0-4.3,4.4-9.4,13.3-15.3c5.4-3.3,8.9-5.5,10.6-6.6c5-3.4,10-6.8,15.1-10.3c8-5,14.2-7.5,18.5-7.5
				c3.3,0,5.5,1.4,6.5,4.3c-8.7,2.8-17.3,6.9-25.8,12.5c-7.3,4.7-14.3,10.4-21.2,17h2c2.9,0,9.7-0.8,20.4-2.4
				c10.7-1.6,18.2-2.4,22.7-2.4c4,0,7,0.4,9,1.2c2.1,0.8,3.1,2.2,3.1,4.2c0,2-1.1,4.5-3.2,7.5c-5.2,7.3-12.7,13.9-22.5,19.7
				c-9.1,5.4-19.1,9.6-29.8,12.5c-4.5,1.3-7.1,2-7.8,2.2c-2,0.4-3.7,0.7-5.2,0.7c-3,0-5.1-0.9-6.2-2.8c-0.7-0.9-1-1.8-1-2.6
				c0-1.8,2.1-3.1,6.2-3.9c3.5-0.5,7-1,10.5-1.5c8.9-1.7,17.5-5.3,25.9-10.8c7.5-4.9,14-10.7,19.5-17.4c-2.5-0.4-4.7-0.5-6.5-0.5
				c-4.3,0-9.5,0.7-15.5,2.2C76.4,171.3,73.3,172.1,70.2,172.9L70.2,172.9z"/>
			<path class="st10" d="M127.4,177.9c6.9-2.8,14.3-4.2,22-4.2c4.6,0,8.6,0.5,12.1,1.6c3.5,1.1,6.2,2.8,8.1,5
				c-6.2,3-12.7,5.3-19.6,7.1c-6.9,1.8-13.7,2.6-20.5,2.6c-2.4,0-4.8-0.2-7.4-0.5c-2.6-0.3-4.9-0.7-6.9-1.3
				C116.4,184.2,120.5,180.7,127.4,177.9L127.4,177.9z M155.5,150.3c3.9,0,6.8,1.8,8.8,5.3c1.5,2.7,2.2,6.1,2.2,10
				c-10.8,0.9-17.8,1.6-21.1,2c-7.9,1-14.9,2.6-21.1,4.8c-5,1.7-9.3,3.6-12.9,5.8c-5.2,3.1-7.8,6.1-7.8,9c0,1.2,0.4,2.3,1.2,3.3
				c2.1,2.9,5,5.1,8.5,6.4c3.1,1.2,7,1.8,11.6,1.8c6.3,0,14.6-1.4,24.7-4.2c5.4-1.5,12.5-3.6,21.5-6.4c1.1,2.4,2.1,4.1,3,5.2
				c1.6,1.9,3.8,2.8,6.4,2.8c1.6,0,3-0.7,4-2.2c1.1-1.5,1.6-3,1.6-4.5c0-2.1-1.2-5-3.5-8.7c-2.4-3.7-3.7-6.5-4-8.3
				c-0.9-4.9-2.2-9.6-3.8-14c-1.9-5.3-4.2-9.7-6.8-13.4c-1.1-1.5-2.4-2.6-3.9-3.3c-1.5-0.6-3.2-1-5.1-1c-3.2,0-7.7,1.2-13.5,3.5
				c-1.8,0.7-4.3,1.7-7.6,3c-3.2,1-6.3,2.1-9.4,3.1c-7.6,2.8-11.3,5.6-11.3,8.6c0,1,0.4,2,1.2,2.9c0.8,1,1.4,1.6,2,1.9
				c0.5,0.3,1.2,0.5,1.9,0.5c1.1,0,2.4-0.5,3.9-1.6c0.9-0.6,2.4-1.5,4.4-2.9c3.8-2.2,7.2-3.9,10.1-5.2c3.7-1.6,7.4-2.9,11-3.9
				C153,150.5,154.3,150.3,155.5,150.3L155.5,150.3z"/>
			<path class="st10" d="M213,167.7c7.4-3.7,14.9-5.5,22.6-5.5c2.1,0,4.1,0.2,6.1,0.6c-1.5,5.3-6.4,9.8-14.6,13.5
				c-7.5,3.4-15.1,5.1-22.9,5.1c-1.5,0-3-0.1-4.5-0.3C201.2,175.8,205.6,171.3,213,167.7L213,167.7z M231.8,179.1
				c4.2-2.2,7.4-3.8,9.9-5c0.8,2.6,1.4,5.4,1.9,8.2c0.4,2.9,0.7,6,0.7,9.5c0,4.3-0.6,8.1-1.7,11.3c-1.1,3.2-2.9,5.2-5.4,6
				c-3.3,1.1-6.6,2-9.9,2.6c-3.3,0.6-6.5,0.9-9.7,0.9c-5.1,0-10.1-0.7-15-2.2c3.5-2.7,7-5.4,10.6-8c-5.2,0.7-10,1.7-14.3,3
				c-6.2,2-9.3,4.2-9.3,6.7c0,1.3,0.8,2.6,2.4,3.9c2,1.7,5,2.9,9,3.7c3.9,0.7,8.6,1.1,13.8,1.1c4.6,0,9.3-0.3,14-0.8
				c4.7-0.5,8.5-1.1,11.4-1.7c5-1.1,8.4-3.1,10.4-6.1c1.5-2.3,2.2-5.4,2.2-9.4c0-0.2-0.1-1.7-0.2-4.6c-0.2-2.9-0.2-4.9-0.2-6.1
				c0-2.1,0.3-7.3,1-15.6c0.3-3.7,0.5-6.8,0.5-9.2c0-2.2-0.1-4.3-0.4-6.6c-0.2-2.2-0.6-4.2-1.2-5.9c-0.5-1.7-1.2-3-2-3.9
				c-1.1-1.4-2.5-2-4.1-2c-1.7,0-3.2,0.9-4.4,2.6c-1.3,1.7-2.8,2.8-4.6,3.1c-8.2,1.6-14.5,3.1-19,4.4c-7.4,2.2-13.1,4.7-17.3,7.7
				c-5.1,3.6-8,8-8.8,13.1c-0.1,0.5-0.1,1.2-0.1,2c0,2.7,0.9,4.6,2.7,5.7c1.5,1,3.7,1.5,6.6,1.5c1.9,0,4.1-0.2,6.4-0.7
				c2.3-0.5,4.6-1,7-1.7C218.9,185.3,224.7,182.8,231.8,179.1L231.8,179.1z"/>
			<path class="st10" d="M297.3,165.2c4.8-2.1,9.9-3.1,15.4-3.1c1.5,0,2.9,0.1,4.4,0.3c-4.8,3.6-9.2,6.4-13.4,8.2
				c-5.1,2.2-10.2,3.3-15.2,3.3c-0.5,0-1,0-1.5,0c-0.5,0-1,0-1.5-0.1C288.6,170.1,292.5,167.2,297.3,165.2L297.3,165.2z
				 M347.6,180.9c3.1-1.7,5-3.7,5.7-6.1c-5.9,0-12.7,1-20.6,3c-6.5,1.8-13.2,3.6-20.2,5.4c-7,1.8-13.3,2.7-19,2.7
				c-3,0-6.2-0.4-9.5-1.1c2.7-2.5,6.6-4.4,11.8-5.7c2.9-0.7,7.5-1.8,13.8-3.3c4.1-1.3,7.6-3.1,10.5-5.2c3.7-2.7,5.5-5.3,5.5-8
				c0-1.7-0.8-3.4-2.4-4.9c-2.5-2.6-6.3-3.8-11.5-3.8c-5.1,0-10.9,1.2-17.3,3.7c-5.7,2.1-10.1,4.5-13.3,7c-1.8,1.4-3.6,4-5.5,7.9
				c-1.9,3.8-3.6,6.1-5.1,6.9c-1.1,0.5-2.7,1-4.8,1.4c-2.2,0.4-4,0.7-5.7,0.8c-1.1,0-2.1,0-3.1,0c-1.9,0-3.5,0.2-4.6,0.6
				c-1.1,0.4-1.6,1.2-1.6,2.4c0,0.4,0.2,1.1,0.5,2.1c0.3,1,1,1.7,2,2.2c1,0.5,2.1,0.8,3.4,0.8c1,0,2.2-0.1,3.7-0.4
				c1.5-0.3,2.9-0.5,4.2-0.7c2.7-0.5,4.5-0.8,5.4-0.8c0.8,0,1.7,0.4,2.6,1.1c1.5,1.4,2.9,2.5,4.1,3.2c2,1.3,4.1,2.2,6.6,2.7
				c2.4,0.5,5.2,0.8,8.4,0.8c6.1,0,12.6-1,19.4-3.1c6.8-2,13.4-4,19.8-6C340.7,183.4,346.3,181.6,347.6,180.9L347.6,180.9z"/>
		</g>
	</g>
</g>
<path class="st11" d="M336.8,156.9c0.1-1.7,1.5-3,3.2-2.9c1.7,0.1,3,1.5,2.9,3.2c-0.1,1.7-1.5,3-3.2,2.9
	C338,160.1,336.7,158.6,336.8,156.9L336.8,156.9z M342.3,157.2c0.1-1.4-1-2.5-2.4-2.6c-1.4-0.1-2.6,1-2.6,2.4
	c-0.1,1.4,1,2.5,2.4,2.6C341.1,159.6,342.3,158.6,342.3,157.2L342.3,157.2z M341.3,158.8l-0.8,0l-0.7-1.4l-0.6,0l-0.1,1.4l-0.7,0
	l0.2-3.3l1.6,0.1c0.3,0,0.7,0,0.9,0.2c0.3,0.2,0.4,0.5,0.3,0.9c0,0.6-0.4,0.8-0.9,0.9L341.3,158.8L341.3,158.8z M340.2,156.9
	c0.4,0,0.6,0,0.6-0.5c0-0.4-0.5-0.5-0.8-0.5l-0.8,0l0,0.9L340.2,156.9L340.2,156.9z"/>
<g>
	<path class="st12" d="M36.2,26.4c0,0.1-0.1,0.2-0.1,0.3c0,0.1,0,0.2,0,0.3c0,0.1,0,0.2,0,0.3c0,0.1,0,0.3,0.1,0.5l1.8,8.6l-3.5,1.4
		l-1.9-3c0-0.1,0-0.1-0.1-0.1l-0.2-0.4c-0.1-0.1-0.2-0.3-0.2-0.4C32,33.8,32,33.7,32,33.7l-0.2-0.4c0,0,0,0,0-0.1c0,0,0-0.1-0.1-0.1
		l0,0l0.1,0.2l0.1,0.5c0,0.2,0.1,0.4,0.2,0.6C32,34.7,32,34.9,32,35l0.7,3.5l-3.4,1.4l-4.8-7.4c-0.1-0.2-0.2-0.3-0.3-0.4
		S24.1,32,24,31.9c-0.1-0.1-0.2-0.1-0.2-0.1c-0.1,0-0.2-0.1-0.3-0.1l-0.8-2l4.3-1.8l0.8,2c-0.1,0.2-0.2,0.3-0.2,0.4
		c0,0.1,0,0.2,0.1,0.3c0,0,0,0.1,0.1,0.1c0,0,0,0.1,0.1,0.1l0.1,0.1l1,1.8l0.1,0.2l0.2,0.3c0.1,0.1,0.1,0.2,0.2,0.3
		c0.1,0.1,0.1,0.2,0.2,0.4l0,0l0-0.2c0-0.1-0.1-0.2-0.1-0.4c0-0.1,0-0.2-0.1-0.2l-0.1-0.3c0-0.1,0-0.1,0-0.1s0-0.1,0-0.1l-1.1-5
		l2.4-1l2.7,4l0.2,0.4l0.3,0.4c0.1,0.1,0.1,0.2,0.1,0.2c0,0.1,0.1,0.2,0.1,0.3l0,0c-0.1-0.2-0.1-0.4-0.2-0.6
		c-0.1-0.2-0.1-0.3-0.1-0.5l-0.1-0.4l-0.4-1.4c0-0.1,0-0.1,0-0.1l-0.1-0.2L33,28.4c-0.1-0.3-0.3-0.4-0.6-0.4l-0.8-2l3.8-1.6
		L36.2,26.4z"/>
	<path class="st12" d="M42.6,22.1l4.3,7.5c0.2,0.4,0.4,0.7,0.6,0.9c0.1,0.2,0.3,0.2,0.5,0.3l0.7,2l-4.5,1.5l-0.7-2
		c0.2-0.2,0.3-0.5,0.2-0.7c0,0,0-0.1,0-0.1c0,0,0-0.1-0.1-0.1l0-0.1l-1.7,0.6c0,0.1,0,0.2,0,0.2c0,0,0,0.1,0,0.1
		c0.1,0.3,0.3,0.5,0.7,0.5l0.7,2l-3.9,1.3l-0.7-2c0.1-0.2,0.2-0.3,0.2-0.5s0-0.4-0.1-0.8l-1.1-8.7L42.6,22.1z M42.6,29.3l-1-1.9
		c-0.1-0.2-0.1-0.3-0.2-0.3c0-0.1-0.1-0.1-0.1-0.3c-0.1-0.1-0.1-0.2-0.2-0.4c-0.1-0.2-0.1-0.3-0.2-0.4l-0.1-0.2l0,0
		c0.1,0.3,0.1,0.5,0.2,0.8c0.1,0.3,0.1,0.6,0.1,0.8l0.4,2.1L42.6,29.3z"/>
	<path class="st12" d="M55.3,22.8l-3.4,0.9l0-0.1c-0.1-0.2-0.1-0.4-0.2-0.5c0-0.1-0.1-0.3-0.1-0.3c-0.1-0.2-0.2-0.3-0.4-0.4
		c-0.2-0.1-0.3-0.1-0.5-0.1c-0.2,0.1-0.4,0.2-0.5,0.4c-0.1,0.2-0.1,0.4,0,0.7c0,0.1,0.1,0.3,0.1,0.4c0.1,0.1,0.2,0.2,0.3,0.2
		c0.1,0.1,0.3,0.1,0.4,0.1s0.4,0,0.7,0l1.1,0c0.6,0,1.1,0.1,1.5,0.2c0.4,0.1,0.8,0.3,1.1,0.5c0.3,0.2,0.5,0.5,0.7,0.9
		s0.4,0.8,0.5,1.3c0.3,1.3,0.2,2.4-0.3,3.1c-0.5,0.8-1.6,1.4-3.1,1.8c-0.4,0.1-0.8,0.2-1.2,0.3c-0.4,0.1-0.7,0.1-1.1,0.1
		c-0.4,0-0.7,0-1.1-0.1c-0.4-0.1-0.8-0.2-1.2-0.3l-0.9-3.3l3.5-0.9l0.1,0.3c0.1,0.3,0.1,0.5,0.2,0.7c0,0.2,0.1,0.3,0.1,0.4
		c0.1,0.2,0.2,0.3,0.4,0.4c0.2,0.1,0.3,0.1,0.5,0.1c0.2-0.1,0.4-0.2,0.5-0.4c0.1-0.2,0.1-0.5,0-0.8c-0.1-0.3-0.3-0.6-0.5-0.8
		c-0.1-0.1-0.1-0.1-0.2-0.1c-0.1,0-0.1,0-0.3-0.1s-0.3,0-0.4,0s-0.4,0-0.7,0c-0.4,0-0.7,0-1,0c-0.3,0-0.5,0-0.7-0.1
		C49,27,48.9,27,48.7,27c-0.2,0-0.3-0.1-0.4-0.2c-0.4-0.2-0.7-0.5-1-0.8c-0.3-0.4-0.5-0.9-0.6-1.5c-0.3-1.3-0.2-2.3,0.3-3
		c0.6-0.8,1.6-1.3,3-1.7c0.8-0.2,1.6-0.3,2.3-0.3c0.7,0,1.5,0.1,2.3,0.4L55.3,22.8z"/>
	<path class="st12" d="M58.2,28.1c0.2-0.1,0.3-0.3,0.3-0.5c0-0.2,0-0.4-0.1-0.8l0-0.2l-1-5l0-0.2c-0.1-0.4-0.2-0.6-0.3-0.7
		c-0.1-0.1-0.2-0.2-0.5-0.3l-0.4-2.1l4.5-0.9l0.4,2.1c-0.1,0.1-0.2,0.2-0.2,0.4c0,0.1,0,0.3,0,0.5l0.1,0.3l0,0.2l0.2,1.2l1.4-0.3
		l-0.2-1.2l0-0.2l-0.1-0.3c-0.1-0.2-0.1-0.4-0.2-0.5c-0.1-0.1-0.2-0.2-0.4-0.2l-0.4-2.1l4.5-0.9l0.4,2.1C66.1,18.7,66,18.8,66,19
		c0,0.2,0,0.4,0.1,0.8l0,0.2l1,5l0,0.2c0.1,0.4,0.2,0.6,0.2,0.7c0.1,0.1,0.2,0.2,0.5,0.3l0.4,2.1l-4.5,0.9l-0.4-2.1
		c0.1-0.1,0.2-0.2,0.3-0.3c0-0.1,0-0.3,0-0.5l-0.1-0.4l0-0.2l-0.3-1.5l-1.4,0.3l0.3,1.5l0,0.2l0.1,0.3c0,0.2,0.1,0.4,0.2,0.5
		c0.1,0.1,0.2,0.2,0.4,0.2l0.4,2.1l-4.5,0.9L58.2,28.1z"/>
	<path class="st12" d="M68.9,26c0.2-0.1,0.3-0.3,0.3-0.4c0-0.2,0-0.4,0-0.8l0-0.2l-0.8-5l0-0.2c-0.1-0.4-0.1-0.6-0.2-0.8
		s-0.2-0.2-0.4-0.3l-0.3-2.1l4.6-0.8l0.3,2.1C72.1,17.7,72,17.8,72,18c0,0.2,0,0.4,0,0.8l0,0.2l0.8,5l0,0.2c0,0.2,0.1,0.3,0.1,0.5
		c0,0.1,0.1,0.2,0.1,0.3c0,0.1,0.1,0.1,0.2,0.2c0.1,0,0.2,0.1,0.3,0.1l0.3,2.1l-4.6,0.8L68.9,26z"/>
	<path class="st12" d="M74.6,25c0.2-0.1,0.3-0.3,0.3-0.4c0-0.1,0-0.4,0-0.8l0-0.2l-0.6-5.1l0-0.2c0-0.4-0.1-0.6-0.2-0.8
		c-0.1-0.1-0.2-0.2-0.4-0.3l-0.3-2.1l4.1-0.5l2.2,4.1l0.1,0.2l0.1,0.3l0.1,0.2c0.1,0.1,0.1,0.2,0.1,0.2c0,0,0,0.1,0.1,0.1l-0.2-1.9
		l0-0.2c-0.1-0.4-0.1-0.7-0.2-0.8c-0.1-0.1-0.2-0.2-0.4-0.3l-0.3-2.1l3.9-0.5l0.3,2.1c-0.2,0.1-0.3,0.3-0.3,0.4s0,0.4,0,0.8l0,0.2
		l1.1,8.5l-3.6,0.5l-2.3-3.9c0,0,0,0,0-0.1c0,0,0-0.1-0.1-0.1c-0.1-0.2-0.2-0.4-0.3-0.6c-0.1-0.2-0.2-0.3-0.2-0.4l0.2,1.9l0,0.2
		c0,0.4,0.1,0.6,0.2,0.8c0.1,0.1,0.2,0.2,0.4,0.3l0.3,2.1l-3.8,0.5L74.6,25z"/>
	<path class="st12" d="M93.3,17.4l-3.6,0.3l-0.1-0.8c-0.1-0.7-0.3-1-0.8-1c-0.2,0-0.4,0.1-0.5,0.3s-0.2,0.4-0.1,0.6l0,0.3l0.4,4.6
		l0,0.3c0,0.2,0.1,0.4,0.1,0.6c0,0.1,0,0.2,0.1,0.3c0.1,0.3,0.3,0.4,0.7,0.4c0.3,0,0.4-0.1,0.5-0.3s0.1-0.5,0.1-0.9L90,21.1
		l-0.7,0.1l-0.2-2.4l4.2-0.3l0.5,5.7c-0.5,0.5-1,0.9-1.7,1.1s-1.5,0.4-2.5,0.5c-1,0.1-1.8,0-2.4-0.1s-1.2-0.5-1.5-1
		c-0.2-0.2-0.4-0.5-0.5-0.7c-0.1-0.3-0.2-0.6-0.3-1c0-0.1,0-0.1,0-0.2c0,0,0-0.1,0-0.2c0-0.1,0-0.2,0-0.3c0-0.1,0-0.3,0-0.5L84.5,18
		l-0.1-0.7c0-0.7,0-1.3,0.2-1.8s0.4-0.9,0.8-1.2c0.7-0.6,1.7-0.9,3-1c0.9-0.1,1.7,0,2.5,0.1c0.8,0.2,1.5,0.5,2.1,0.9L93.3,17.4z"/>
	<path class="st12" d="M97,22.9c0.2-0.1,0.4-0.3,0.5-0.5c0.1-0.2,0.1-0.4,0.1-0.8l0-0.2l-0.2-6c-0.3,0-0.5,0.1-0.6,0.2
		c-0.1,0.1-0.1,0.3-0.1,0.6l0,0.1l0.1,2.1L94,18.6l-0.2-5.4l10.3-0.4l0.2,5.5l-2.7,0.1l-0.1-2.1l0-0.1c0-0.3-0.1-0.5-0.2-0.6
		c-0.1-0.1-0.3-0.2-0.6-0.2l0.2,6l0,0.2c0,0.3,0.1,0.6,0.2,0.7c0.1,0.2,0.3,0.3,0.5,0.4l0.1,2.1L97,25L97,22.9z"/>
	<path class="st12" d="M105.3,16.9l0-0.7c0-0.7,0.1-1.3,0.3-1.8c0.2-0.4,0.5-0.8,0.9-1.1c0.4-0.3,0.8-0.5,1.3-0.6
		c0.5-0.1,1.2-0.2,1.9-0.2c0.8,0,1.5,0.1,2.1,0.2c0.5,0.2,1,0.4,1.4,0.8c0.3,0.3,0.6,0.7,0.7,1.1c0.2,0.4,0.2,1,0.2,1.6l0,0.7l0,3.7
		l0,0.7c0,0.7-0.1,1.3-0.3,1.8c-0.2,0.4-0.5,0.8-0.9,1.1c-0.4,0.3-0.8,0.5-1.3,0.6c-0.5,0.1-1.2,0.2-1.9,0.2c-0.9,0-1.6-0.1-2.1-0.3
		c-0.5-0.2-1-0.4-1.4-0.8c-0.3-0.3-0.6-0.7-0.7-1.1c-0.2-0.4-0.2-1-0.2-1.6l0-0.7L105.3,16.9z M110.5,16.7l0-0.2c0-0.3,0-0.5,0-0.6
		c0-0.1,0-0.2-0.1-0.3c0-0.1-0.1-0.2-0.2-0.3c-0.1-0.1-0.2-0.1-0.4-0.1c-0.1,0-0.3,0-0.4,0.1c-0.1,0.1-0.2,0.2-0.2,0.3
		c0,0.1-0.1,0.2-0.1,0.3c0,0.1,0,0.3,0,0.6l0,0.2l0,4.2l0,0.3c0,0.3,0,0.4,0,0.6c0,0.1,0,0.2,0.1,0.3c0,0.1,0.1,0.2,0.2,0.3
		c0.1,0.1,0.2,0.1,0.4,0.1s0.3,0,0.4-0.1c0.1-0.1,0.2-0.2,0.2-0.3c0-0.1,0-0.2,0.1-0.3c0-0.1,0-0.3,0-0.6l0-0.3L110.5,16.7z"/>
	<path class="st12" d="M115.1,22.7c0.2-0.1,0.3-0.2,0.4-0.3s0.1-0.4,0.1-0.8l0-0.2l0.3-5.1l0-0.2c0-0.4,0-0.6,0-0.8
		s-0.2-0.3-0.4-0.4l0.1-2.1l4.1,0.2l1.5,4.4l0.1,0.2l0.1,0.3l0.1,0.3c0.1,0.1,0.1,0.2,0.1,0.2c0,0,0,0.1,0,0.1l0.1-2l0-0.2
		c0-0.4,0-0.7-0.1-0.8c-0.1-0.2-0.2-0.3-0.4-0.3l0.1-2.1l4,0.2l-0.1,2.1c-0.2,0.1-0.3,0.2-0.4,0.4c-0.1,0.1-0.1,0.4-0.1,0.8l0,0.2
		l-0.5,8.5l-3.6-0.2l-1.5-4.3c0,0,0,0,0-0.1c0,0,0-0.1,0-0.1c-0.1-0.2-0.2-0.4-0.2-0.6c-0.1-0.2-0.1-0.3-0.1-0.4l-0.1,1.9l0,0.2
		c0,0.4,0,0.7,0.1,0.8c0.1,0.2,0.2,0.3,0.4,0.3l-0.1,2.1l-3.9-0.2L115.1,22.7z"/>
</g>
<path class="st4" d="M69.5,101.2c1.3-0.2,2.1-2.1,1.7-3.4c-0.3-1.2-1.3-4.1-1.3-5.9c0-1.8,0.6-6.8,0.8-9c0.2-2.2-1.7-3.2-2.5-3.2
	c-0.8,0-2.1,0.9-2.7,3.4c-0.6,2.5-0.8,5.5-0.6,8.3c0.1,2.8,0.8,5.8,1.5,7.4C67.1,100.3,68.1,101.3,69.5,101.2L69.5,101.2z"/>
<radialGradient id="SVGID_3_" cx="260.8246" cy="120.7894" r="26.0828" gradientUnits="userSpaceOnUse">
	<stop  offset="0" style="stop-color:#FBB725"/>
	<stop  offset="0.2193" style="stop-color:#F89E2A"/>
	<stop  offset="0.7005" style="stop-color:#F15F2D"/>
	<stop  offset="1" style="stop-color:#ED1B2E"/>
</radialGradient>
<path class="st13" d="M264.7,105.6c0,0,6.9-2,11.3,0.8c6.3,4.1,9.9,10.2,11.9,20.7c2,10.5-2,22.9-12.7,27.4c-10.7,4.5-14,4.7-14,4.7
	s-1.8-11.2-8.4-13.8c-9.1-3.6-14.2,4.2-14.2,4.2s-8.9-4.2-9.6-18.7c-0.7-14.5,8-23.8,14.2-26c6.2-2.2,10.9-2.6,14.2-1.6
	C260.7,104.4,264.7,105.6,264.7,105.6z"/>
<path class="st4" d="M265.2,117.1c-1,0.7-5.2,0.6-6.9-0.5c-2-1.2-5.8-5.2-5.7-2.2c0.1,3.1,3.8,4.5,8,5.4c4.2,0.8,4.9,0.3,7.6-0.3
	C272.4,118.5,269.2,114.4,265.2,117.1L265.2,117.1z"/>
<radialGradient id="SVGID_4_" cx="308.6685" cy="128.8603" r="28.1588" gradientUnits="userSpaceOnUse">
	<stop  offset="0" style="stop-color:#ED1B2E"/>
	<stop  offset="0.3323" style="stop-color:#CE1737"/>
	<stop  offset="1" style="stop-color:#95013D"/>
</radialGradient>
<path class="st14" d="M309.5,102.6c0,0,8.8,1.6,13.3,5.6c4.4,4,7.6,6.5,10.3,11.4c2.7,4.9,6.4,14,4.6,22.1c-1.7,8.1-8.1,14-8.1,14
	s-4.9-8.4-19.1-7.6c-14.6,0.8-22.9,5.7-22.9,5.7s-10-9.5-8.3-24.2c1.7-14.7,6.9-19.1,12.9-22.9C302.6,100.1,309.5,102.6,309.5,102.6
	z"/>
<g>
	<g>
		<path class="st15" d="M269.3,121.5L269.3,121.5"/>
	</g>
	<g>
		<path class="st16" d="M308.7,155.1"/>
		<path class="st17" d="M308.8,155.1"/>
	</g>
	<g>
		<g>
			<path class="st0" d="M310.3,49.8c-12,6.4-26.2,13.9-40.6,33.3c-4.9,6.6-7.8,24.4-7.8,26.2c-0.1,5.1-3.9,4.9-3.5-1.2
				c0.2-4.2,2.1-18.6,8.9-27.8c6.8-9.2,19.7-24.1,42.3-33.1C313.5,45.6,313.1,48.3,310.3,49.8L310.3,49.8z"/>
			<path class="st0" d="M305,110c-0.3-1.9-2.7-17.9-1.7-27.1c1.1-9.2,8.8-28.7,11-34.1c0.4-0.9,4-2,2.6,2.5
				c-1.4,4.5-9.7,24.4-10.1,31.7c-0.4,7.3,1,24.8,1.4,26.9C308.6,111.9,305.4,111.9,305,110L305,110z"/>
			<path class="st0" d="M306,46.8c0.4,2.8,2.4,1.6,3.4,3.4c0.5,0.8,1.5,0.3,2.2,0.6c0.7,0.3,0.6,2,1.3,2.3c0.7,0.4,2.5-0.4,2.3,1.2
				c-0.2,1.6,3.6,0.1,4.3-2.2c0.4-1.1-0.4-4.1,1.3-7.6c1.7-3.5,3-2.6,4.4-4.3c1.4-1.7,1-1.9,0.2-3.3c-0.9-1.4-1.6-1.8-3.3-1.1
				C316,38.6,305.7,45,306,46.8L306,46.8z"/>
			<path class="st0" d="M332.1,45c7.7-3.8,14-4.2,22.1-1.1c4.3,1.7,7,2.9,9.9,6.6c2,2.5,2.4,4.5,3.8,7.4c1.9,3.9,2,6.6,4.4,10.2
				c2.1,3.2,3.9,4.6,6.7,7.3c3.5,3.4,5.7,5.2,9.7,8.1c-5.7,1.1-9,1.3-14.7,1c-4-0.2-6.4-0.2-10.3-1.3c-3.8-1.1-5.8-2.2-9.1-4.2
				c-3.7-2.2-5.7-3.7-8.8-6.8c-4.4-4.5-6-7.9-8.8-13.5c-1.8-3.6-2.2-6-3.9-9.6c-0.6-1.4-1-2.1-1.7-3.5L332.1,45L332.1,45z"/>
			<path class="st0" d="M324,41.3c0.1,0.2,3,1.2,4.7,2.4c2,1.5,3,2.7,4.3,4.8c0.6,1.1,0.9,1.7,1.3,2.9l0.5-5.1l0.2-2.4
				c-0.4,0.2-0.7,0.3-1.2,0.3c-1,0.1-1.6-0.2-2.6-0.6c-1.4-0.5-2-1.4-3.4-2c-1.1-0.6-1.8-0.8-2.9-1.3
				C324.4,40.6,323.8,40.8,324,41.3L324,41.3z"/>
			<path class="st1" d="M334.7,47.5c3.7,1.7,5.8,2.8,9.3,5c3.6,2.3,5.7,3.5,8.7,6.5c3.2,3.2,4,5.8,6.8,9.3c2.5,3.2,3.5,5.5,6.7,7.9
				c3.8,2.9,6.6,4.1,11.4,4.8c-1.8-0.7-2.8-1.1-4.6-2c-2.6-1.4-4-2.3-6.2-4.2c-2.9-2.5-3.9-4.6-6.3-7.6c-2.7-3.5-3.5-6-6.6-9.1
				c-3.1-3.1-5.3-4.6-9.2-6.7C341.1,49.4,338.8,48.5,334.7,47.5L334.7,47.5z"/>
			<path class="st1" d="M339.6,48.2c3-0.6,4.8-0.7,7.8-0.5c3.7,0.2,5.8,0.6,9.3,1.8c-3.6-0.7-5.7-1-9.3-1.2
				C344.4,48.1,342.7,48.1,339.6,48.2L339.6,48.2z"/>
			<path class="st1" d="M347.5,52.4c3.1,0,4.8,0.2,7.8,0.8c3.6,0.8,5.6,1.6,8.9,3.4c-3.4-1.3-5.4-1.9-9-2.8
				C352.2,53.1,350.5,52.8,347.5,52.4L347.5,52.4z"/>
			<path class="st1" d="M354.3,56.8c2.6,0.4,4.1,0.9,6.5,1.9c3,1.3,4.6,2.2,7.1,4.3c-2.7-1.6-4.3-2.5-7.3-3.7
				C358.3,58.1,356.9,57.6,354.3,56.8L354.3,56.8z"/>
			<path class="st1" d="M358.6,62.5c1.9,0.4,3,0.7,4.8,1.4c2.8,1.1,4.4,2.1,6.7,4.1c-2.6-1.5-4.1-2.3-6.9-3.6
				C361.5,63.6,360.4,63.2,358.6,62.5L358.6,62.5z"/>
			<path class="st1" d="M351.4,70.4c-1.8-2.5-2.7-4-3.9-6.8c-1.5-3.4-2-5.5-2.5-9.2c1,3.5,1.6,5.5,3,8.9
				C349.2,66.2,349.9,67.7,351.4,70.4L351.4,70.4z"/>
			<path class="st1" d="M358.5,75.6c-1.8-2.5-2.7-4-3.9-6.8c-1.5-3.4-2-5.5-2.5-9.2c1,3.5,1.6,5.5,3,8.9
				C356.3,71.3,357,72.9,358.5,75.6L358.5,75.6z"/>
		</g>
		<path class="st1" d="M345,66c-1.8-2.5-2.7-4-3.9-6.8c-1.5-3.4-2-5.5-2.5-9.2c1,3.5,1.6,5.5,3,8.9C342.8,61.7,343.5,63.3,345,66
			L345,66z"/>
	</g>
</g>
<path class="st4" d="M317.9,117c-1.6-0.8-3.2,0.5-4.1,1.7c-0.9,1.2-5.5,1.9-7.7,0.4c-2.2-1.5-4.5-2.7-5.7-0.9
	c-1.2,1.8,0.3,2,2.5,3.2c2.2,1.2,5.1,1.9,7,1.9c1.7,0,5.8-1,6.7-1.9C318.9,119.3,319.4,117.8,317.9,117L317.9,117z"/>
</svg>
